LeutkirchSans-Light.ufo
<glyph name="exclam" format="2">
	<unicode hex="0021"/>
	<advance width="293"/>
	<outline>
		<contour>
			<point x="173" y="743" type="line"/>
			<point x="109" y="743" type="line"/>
			<point x="115" y="218" type="line"/>
			<point x="167" y="218" type="line"/>
		</contour>
		<contour>
			<point x="184" y="-26" type="line"/>
			<point x="184" y="65" type="line"/>
			<point x="100" y="65" type="line"/>
			<point x="100" y="-26" type="line"/>
		</contour>
	</outline>
</glyph>
<glyph name="quotedbl" format="2">
	<unicode hex="0022"/>
	<advance width="370"/>
	<outline>
		<contour>
			<point x="288" y="763" type="line"/>
			<point x="218" y="763" type="line"/>
			<point x="231" y="556" type="line"/>
			<point x="275" y="556" type="line"/>
		</contour>
		<contour>
			<point x="155" y="763" type="line"/>
			<point x="84" y="763" type="line"/>
			<point x="98" y="556" type="line"/>
			<point x="142" y="556" type="line"/>
		</contour>
	</outline>
</glyph>
<glyph name="numbersign" format="2">
	<unicode hex="0023"/>
	<advance width="595"/>
	<outline>
		<contour>
			<point x="518" y="442" type="line"/>
			<point x="410" y="442" type="line"/>
			<point x="462" y="664" type="line"/>
			<point x="413" y="664" type="line"/>
			<point x="361" y="442" type="line"/>
			<point x="248" y="442" type="line"/>
			<point x="299" y="664" type="line"/>
			<point x="250" y="664" type="line"/>
			<point x="199" y="442" type="line"/>
			<point x="97" y="442" type="line"/>
			<point x="87" y="399" type="line"/>
			<point x="191" y="399" type="line"/>
			<point x="165" y="288" type="line"/>
			<point x="62" y="288" type="line"/>
			<point x="53" y="245" type="line"/>
			<point x="157" y="245" type="line"/>
			<point x="106" y="25" type="line"/>
			<point x="155" y="25" type="line"/>
			<point x="206" y="245" type="line"/>
			<point x="318" y="245" type="line"/>
			<point x="269" y="25" type="line"/>
			<point x="317" y="25" type="line"/>
			<point x="367" y="245" type="line"/>
			<point x="474" y="245" type="line"/>
			<point x="484" y="288" type="line"/>
			<point x="375" y="288" type="line"/>
			<point x="402" y="399" type="line"/>
			<point x="509" y="399" type="line"/>
		</contour>
		<contour>
			<point x="353" y="399" type="line"/>
			<point x="327" y="288" type="line"/>
			<point x="214" y="288" type="line"/>
			<point x="240" y="399" type="line"/>
		</contour>
	</outline>
</glyph>
<glyph name="dollar" format="2">
	<unicode hex="0024"/>
	<advance width="504"/>
	<outline>
		<contour>
			<point x="258" y="46" type="curve"/>
			<point x="258" y="331" type="line"/>
			<point x="315.169" y="302.415"/>
			<point x="368" y="267.074"/>
			<point x="368" y="184" type="curve" smooth="yes"/>
			<point x="368" y="106.661"/>
			<point x="325.755" y="52.7755"/>
		</contour>
		<contour>
			<point x="219" y="347" type="curve"/>
			<point x="219" y="46" type="line"/>
			<point x="166.481" y="51.6271"/>
			<point x="121" y="96.7653"/>
			<point x="121" y="148" type="curve"/>
			<point x="55" y="148" type="line"/>
			<point x="61.5749" y="66.91"/>
			<point x="124.614" y="13.6302"/>
			<point x="219" y="10" type="curve"/>
			<point x="219" y="-75" type="line"/>
			<point x="258" y="-75" type="line"/>
			<point x="258" y="10" type="line"/>
			<point x="360.908" y="15.4162"/>
			<point x="428" y="80.1629"/>
			<point x="428" y="191" type="curve" smooth="yes"/>
			<point x="428" y="308.427"/>
			<point x="343.338" y="344.865"/>
			<point x="258" y="379" type="curve"/>
			<point x="258" y="662" type="line"/>
			<point x="308.022" y="654.304"/>
			<point x="349.819" y="610.984"/>
			<point x="352" y="563" type="curve"/>
			<point x="417" y="563" type="line"/>
			<point x="417" y="639.824"/>
			<point x="335.222" y="691.285"/>
			<point x="258" y="698" type="curve"/>
			<point x="258" y="773" type="line"/>
			<point x="219" y="773" type="line"/>
			<point x="219" y="698" type="line"/>
			<point x="127.07" y="687.185"/>
			<point x="63" y="633.68"/>
			<point x="63" y="533" type="curve" smooth="yes"/>
			<point x="63" y="412.354"/>
			<point x="130.327" y="379.245"/>
		</contour>
		<contour>
			<point x="219" y="662" type="curve"/>
			<point x="219" y="394" type="line"/>
			<point x="157.145" y="420.509"/>
			<point x="122" y="450.194"/>
			<point x="122" y="537" type="curve" smooth="yes"/>
			<point x="122" y="609.995"/>
			<point x="155.222" y="651.37"/>
		</contour>
	</outline>
</glyph>
<glyph name="percent" format="2">
	<unicode hex="0025"/>
	<advance width="766"/>
	<outline>
		<contour>
			<point x="535" y="670" type="line"/>
			<point x="484" y="670" type="line"/>
			<point x="230" y="28" type="line"/>
			<point x="281" y="28" type="line"/>
		</contour>
		<contour>
			<point x="265" y="476" type="curve" smooth="yes"/>
			<point x="265" y="403.6"/>
			<point x="241.524" y="323"/>
			<point x="178" y="323" type="curve" smooth="yes"/>
			<point x="115.112" y="323"/>
			<point x="93" y="405.134"/>
			<point x="93" y="476" type="curve" smooth="yes"/>
			<point x="93" y="546.073"/>
			<point x="114.4" y="631"/>
			<point x="178" y="631" type="curve" smooth="yes"/>
			<point x="242.165" y="631"/>
			<point x="265" y="547.438"/>
		</contour>
		<contour>
			<point x="321" y="476" type="curve" smooth="yes"/>
			<point x="321" y="576.554"/>
			<point x="277.296" y="670"/>
			<point x="178" y="670" type="curve" smooth="yes"/>
			<point x="78.297" y="670"/>
			<point x="37" y="575.899"/>
			<point x="37" y="476" type="curve" smooth="yes"/>
			<point x="37" y="375.203"/>
			<point x="78.5568" y="284"/>
			<point x="178" y="284" type="curve" smooth="yes"/>
			<point x="277.021" y="284"/>
			<point x="321" y="374.552"/>
		</contour>
		<contour>
			<point x="674" y="220" type="curve" smooth="yes"/>
			<point x="674" y="147.6"/>
			<point x="650.524" y="67"/>
			<point x="587" y="67" type="curve" smooth="yes"/>
			<point x="524.112" y="67"/>
			<point x="502" y="149.134"/>
			<point x="502" y="220" type="curve" smooth="yes"/>
			<point x="502" y="290.073"/>
			<point x="523.4" y="375"/>
			<point x="587" y="375" type="curve" smooth="yes"/>
			<point x="651.165" y="375"/>
			<point x="674" y="291.438"/>
		</contour>
		<contour>
			<point x="730" y="220" type="curve" smooth="yes"/>
			<point x="730" y="320.554"/>
			<point x="686.296" y="414"/>
			<point x="587" y="414" type="curve" smooth="yes"/>
			<point x="487.297" y="414"/>
			<point x="446" y="319.899"/>
			<point x="446" y="220" type="curve" smooth="yes"/>
			<point x="446" y="119.203"/>
			<point x="487.557" y="28"/>
			<point x="587" y="28" type="curve" smooth="yes"/>
			<point x="686.021" y="28"/>
			<point x="730" y="118.552"/>
		</contour>
	</outline>
</glyph>
<glyph name="ampersand" format="2">
  <advance width="688"/>
  <unicode hex="0026"/>
  <outline>
    <contour>
      <point x="643" y="15" type="line"/>
      <point x="531" y="162" type="line"/>
      <point x="615" y="256" type="line"/>
      <point x="574" y="293" type="line"/>
      <point x="499" y="202" type="line"/>
      <point x="337" y="414" type="line"/>
      <point x="347" y="422"/>
      <point x="356" y="429"/>
      <point x="365" y="436" type="curve" smooth="yes"/>
      <point x="373" y="442"/>
      <point x="383" y="449"/>
      <point x="395" y="459" type="curve" smooth="yes"/>
      <point x="417" y="477"/>
      <point x="435" y="497"/>
      <point x="449" y="521" type="curve" smooth="yes"/>
      <point x="463" y="543"/>
      <point x="469" y="565"/>
      <point x="469" y="586" type="curve" smooth="yes"/>
      <point x="468" y="608"/>
      <point x="463" y="627"/>
      <point x="455" y="644" type="curve" smooth="yes"/>
      <point x="445" y="660"/>
      <point x="434" y="673"/>
      <point x="420" y="683" type="curve" smooth="yes"/>
      <point x="406" y="693"/>
      <point x="390" y="700"/>
      <point x="373" y="706" type="curve" smooth="yes"/>
      <point x="355" y="710"/>
      <point x="337" y="713"/>
      <point x="320" y="713" type="curve" smooth="yes"/>
      <point x="298" y="713"/>
      <point x="278" y="709"/>
      <point x="260" y="701" type="curve" smooth="yes"/>
      <point x="241" y="693"/>
      <point x="225" y="682"/>
      <point x="213" y="670" type="curve" smooth="yes"/>
      <point x="201" y="658"/>
      <point x="191" y="643"/>
      <point x="185" y="627" type="curve" smooth="yes"/>
      <point x="178" y="609"/>
      <point x="176" y="591"/>
      <point x="178" y="573" type="curve" smooth="yes"/>
      <point x="180" y="552"/>
      <point x="186" y="531"/>
      <point x="198" y="510" type="curve" smooth="yes"/>
      <point x="209" y="488"/>
      <point x="229" y="460"/>
      <point x="258" y="424" type="curve"/>
      <point x="244" y="412"/>
      <point x="225" y="399"/>
      <point x="202" y="383" type="curve" smooth="yes"/>
      <point x="178" y="366"/>
      <point x="153" y="343"/>
      <point x="125" y="313" type="curve" smooth="yes"/>
      <point x="99" y="285"/>
      <point x="84" y="253"/>
      <point x="78" y="215" type="curve" smooth="yes"/>
      <point x="71" y="177"/>
      <point x="75" y="142"/>
      <point x="90" y="110" type="curve" smooth="yes"/>
      <point x="106" y="74"/>
      <point x="132" y="47"/>
      <point x="166" y="29" type="curve" smooth="yes"/>
      <point x="199" y="10"/>
      <point x="234" y="2"/>
      <point x="270" y="4" type="curve" smooth="yes"/>
      <point x="292" y="4"/>
      <point x="314" y="8"/>
      <point x="335" y="15" type="curve" smooth="yes"/>
      <point x="355" y="21"/>
      <point x="375" y="30"/>
      <point x="393" y="41" type="curve" smooth="yes"/>
      <point x="427" y="61"/>
      <point x="460" y="88"/>
      <point x="492" y="120" type="curve"/>
      <point x="571" y="15" type="line"/>
    </contour>
    <contour>
      <point x="410" y="592" type="curve" smooth="yes"/>
      <point x="410" y="570"/>
      <point x="403" y="550"/>
      <point x="390" y="533" type="curve" smooth="yes"/>
      <point x="376" y="515"/>
      <point x="363" y="500"/>
      <point x="351" y="489" type="curve" smooth="yes"/>
      <point x="333" y="472"/>
      <point x="317" y="460"/>
      <point x="303" y="453" type="curve"/>
      <point x="289" y="471"/>
      <point x="275" y="492"/>
      <point x="261" y="516" type="curve" smooth="yes"/>
      <point x="246" y="540"/>
      <point x="239" y="563"/>
      <point x="239" y="586" type="curve" smooth="yes"/>
      <point x="239" y="610"/>
      <point x="247" y="630"/>
      <point x="264" y="647" type="curve" smooth="yes"/>
      <point x="280" y="663"/>
      <point x="299" y="672"/>
      <point x="321" y="672" type="curve" smooth="yes"/>
      <point x="343" y="672"/>
      <point x="364" y="664"/>
      <point x="383" y="649" type="curve" smooth="yes"/>
      <point x="401" y="633"/>
      <point x="410" y="614"/>
    </contour>
    <contour>
      <point x="461" y="160" type="line"/>
      <point x="432" y="126"/>
      <point x="400" y="99"/>
      <point x="364" y="79" type="curve" smooth="yes"/>
      <point x="328" y="57"/>
      <point x="295" y="47"/>
      <point x="267" y="48" type="curve" smooth="yes"/>
      <point x="241" y="48"/>
      <point x="217" y="57"/>
      <point x="195" y="73" type="curve" smooth="yes"/>
      <point x="171" y="89"/>
      <point x="156" y="107"/>
      <point x="148" y="129" type="curve" smooth="yes"/>
      <point x="136" y="157"/>
      <point x="134" y="186"/>
      <point x="141" y="215" type="curve" smooth="yes"/>
      <point x="147" y="243"/>
      <point x="159" y="267"/>
      <point x="175" y="285" type="curve" smooth="yes"/>
      <point x="208" y="322"/>
      <point x="246" y="355"/>
      <point x="290" y="383" type="curve"/>
    </contour>
  </outline>
</glyph>
<glyph name="quotesingle" format="2">
	<unicode hex="0027"/>
	<advance width="298"/>
	<outline>
		<contour>
			<point x="153" y="763" type="line"/>
			<point x="83" y="763" type="line"/>
			<point x="96" y="556" type="line"/>
			<point x="140" y="556" type="line"/>
		</contour>
	</outline>
</glyph>
<glyph name="parenleft" format="2">
  <advance width="340"/>
  <unicode hex="0028"/>
  <outline>
    <contour>
      <point x="196" y="234" type="curve" smooth="yes"/>
      <point x="196" y="424" type="line" smooth="yes"/>
      <point x="196" y="462"/>
      <point x="198" y="499"/>
      <point x="202" y="535" type="curve" smooth="yes"/>
      <point x="206" y="570"/>
      <point x="211" y="603"/>
      <point x="219" y="633" type="curve" smooth="yes"/>
      <point x="226" y="663"/>
      <point x="236" y="689"/>
      <point x="248" y="712" type="curve" smooth="yes"/>
      <point x="260" y="734"/>
      <point x="273" y="749"/>
      <point x="289" y="757" type="curve"/>
      <point x="289" y="790" type="line"/>
      <point x="256" y="780"/>
      <point x="229" y="761"/>
      <point x="208" y="731" type="curve" smooth="yes"/>
      <point x="186" y="701"/>
      <point x="171" y="666"/>
      <point x="161" y="627" type="curve" smooth="yes"/>
      <point x="150" y="588"/>
      <point x="143" y="548"/>
      <point x="140" y="507" type="curve" smooth="yes"/>
      <point x="136" y="465"/>
      <point x="135" y="426"/>
      <point x="135" y="392" type="curve" smooth="yes"/>
      <point x="135" y="266" type="line" smooth="yes"/>
      <point x="135" y="232"/>
      <point x="136" y="194"/>
      <point x="140" y="153" type="curve" smooth="yes"/>
      <point x="143" y="111"/>
      <point x="150" y="70"/>
      <point x="161" y="32" type="curve" smooth="yes"/>
      <point x="171" y="-7"/>
      <point x="186" y="-42"/>
      <point x="208" y="-72" type="curve" smooth="yes"/>
      <point x="229" y="-102"/>
      <point x="256" y="-121"/>
      <point x="289" y="-131" type="curve"/>
      <point x="289" y="-98" type="line"/>
      <point x="273" y="-90"/>
      <point x="260" y="-75"/>
      <point x="248" y="-53" type="curve" smooth="yes"/>
      <point x="236" y="-30"/>
      <point x="226" y="-4"/>
      <point x="219" y="26" type="curve" smooth="yes"/>
      <point x="211" y="56"/>
      <point x="206" y="89"/>
      <point x="202" y="125" type="curve" smooth="yes"/>
      <point x="198" y="160"/>
      <point x="196" y="196"/>
    </contour>
  </outline>
</glyph>
<glyph name="parenright" format="2">
	<unicode hex="0029"/>
	<advance width="340"/>
	<outline>
		<contour>
			<point x="144" y="234" type="line" smooth="yes"/>
			<point x="144" y="196"/>
			<point x="142" y="160"/>
			<point x="138" y="125" type="curve" smooth="yes"/>
			<point x="134" y="89"/>
			<point x="128" y="56"/>
			<point x="121" y="26" type="curve" smooth="yes"/>
			<point x="113" y="-4"/>
			<point x="104" y="-30"/>
			<point x="92" y="-53" type="curve" smooth="yes"/>
			<point x="80" y="-75"/>
			<point x="66" y="-90"/>
			<point x="51" y="-98" type="curve"/>
			<point x="51" y="-131" type="line"/>
			<point x="83" y="-121"/>
			<point x="110" y="-102"/>
			<point x="132" y="-72" type="curve" smooth="yes"/>
			<point x="153" y="-42"/>
			<point x="169" y="-7"/>
			<point x="179" y="32" type="curve" smooth="yes"/>
			<point x="189" y="70"/>
			<point x="196" y="111"/>
			<point x="200" y="153" type="curve" smooth="yes"/>
			<point x="203" y="194"/>
			<point x="205" y="232"/>
			<point x="205" y="266" type="curve" smooth="yes"/>
			<point x="205" y="392" type="line" smooth="yes"/>
			<point x="205" y="426"/>
			<point x="203" y="465"/>
			<point x="200" y="507" type="curve" smooth="yes"/>
			<point x="196" y="548"/>
			<point x="189" y="588"/>
			<point x="179" y="627" type="curve" smooth="yes"/>
			<point x="169" y="666"/>
			<point x="153" y="701"/>
			<point x="132" y="731" type="curve" smooth="yes"/>
			<point x="110" y="761"/>
			<point x="83" y="780"/>
			<point x="51" y="790" type="curve"/>
			<point x="51" y="757" type="line"/>
			<point x="66" y="749"/>
			<point x="80" y="734"/>
			<point x="92" y="712" type="curve" smooth="yes"/>
			<point x="104" y="689"/>
			<point x="113" y="663"/>
			<point x="121" y="633" type="curve" smooth="yes"/>
			<point x="128" y="603"/>
			<point x="134" y="570"/>
			<point x="138" y="535" type="curve" smooth="yes"/>
			<point x="142" y="499"/>
			<point x="144" y="462"/>
			<point x="144" y="424" type="curve" smooth="yes"/>
		</contour>
	</outline>
</glyph>
<glyph name="asterisk" format="2">
	<unicode hex="002A"/>
	<advance width="370"/>
	<outline>
		<contour>
			<point x="226" y="581" type="line"/>
			<point x="207" y="581" type="line"/>
			<point x="217" y="598" type="line"/>
			<point x="237" y="625" type="line"/>
			<point x="270" y="678" type="line"/>
			<point x="237" y="697" type="line"/>
			<point x="205" y="645" type="line"/>
			<point x="192" y="613" type="line"/>
			<point x="181" y="593" type="line"/>
			<point x="169" y="613" type="line"/>
			<point x="156" y="645" type="line"/>
			<point x="124" y="697" type="line"/>
			<point x="91" y="678" type="line"/>
			<point x="124" y="625" type="line"/>
			<point x="144" y="598" type="line"/>
			<point x="154" y="581" type="line"/>
			<point x="134" y="581" type="line"/>
			<point x="99" y="586" type="line"/>
			<point x="38" y="586" type="line"/>
			<point x="38" y="548" type="line"/>
			<point x="100" y="548" type="line"/>
			<point x="135" y="552" type="line"/>
			<point x="157" y="552" type="line"/>
			<point x="147" y="535" type="line"/>
			<point x="123" y="509" type="line"/>
			<point x="91" y="456" type="line"/>
			<point x="123" y="436" type="line"/>
			<point x="157" y="491" type="line"/>
			<point x="171" y="522" type="line"/>
			<point x="181" y="538" type="line"/>
			<point x="190" y="522" type="line"/>
			<point x="204" y="491" type="line"/>
			<point x="238" y="436" type="line"/>
			<point x="270" y="456" type="line"/>
			<point x="238" y="509" type="line"/>
			<point x="214" y="535" type="line"/>
			<point x="204" y="552" type="line"/>
			<point x="225" y="552" type="line"/>
			<point x="259" y="548" type="line"/>
			<point x="323" y="548" type="line"/>
			<point x="323" y="586" type="line"/>
			<point x="260" y="586" type="line"/>
		</contour>
	</outline>
</glyph>
<glyph name="comma" format="2">
	<unicode hex="002C"/>
	<advance width="232"/>
	<outline>
		<contour>
			<point x="157" y="105" type="line"/>
			<point x="79" y="105" type="line"/>
			<point x="60" y="-103" type="line"/>
			<point x="111" y="-103" type="line"/>
		</contour>
	</outline>
</glyph>
<glyph name="hyphen" format="2">
	<unicode hex="002D"/>
	<advance width="379"/>
	<outline>
		<contour>
			<point x="326" y="333" type="line"/>
			<point x="326" y="389" type="line"/>
			<point x="51" y="389" type="line"/>
			<point x="51" y="333" type="line"/>
		</contour>
	</outline>
</glyph>
<glyph name="period" format="2">
	<unicode hex="002E"/>
	<advance width="224"/>
	<outline>
		<contour>
			<point x="154" y="-26" type="line"/>
			<point x="154" y="65" type="line"/>
			<point x="70" y="65" type="line"/>
			<point x="70" y="-26" type="line"/>
		</contour>
	</outline>
</glyph>
<glyph name="slash" format="2">
  <advance width="344"/>
  <unicode hex="002F"/>
  <outline>
    <contour>
      <point x="306" y="784" type="line"/>
      <point x="251" y="784" type="line"/>
      <point x="38" y="-125" type="line"/>
      <point x="92" y="-125" type="line"/>
    </contour>
  </outline>
</glyph>
<glyph name="zero" format="2">
  <advance width="490"/>
  <unicode hex="0030"/>
  <outline>
    <contour>
      <point x="245" y="46" type="curve" smooth="yes"/>
      <point x="226" y="46"/>
      <point x="208" y="53"/>
      <point x="191" y="67" type="curve" smooth="yes"/>
      <point x="173" y="80"/>
      <point x="158" y="101"/>
      <point x="148" y="129" type="curve" smooth="yes"/>
      <point x="136" y="157"/>
      <point x="128" y="191"/>
      <point x="124" y="230" type="curve" smooth="yes"/>
      <point x="118" y="268"/>
      <point x="116" y="309"/>
      <point x="116" y="351" type="curve" smooth="yes"/>
      <point x="116" y="393"/>
      <point x="118" y="433"/>
      <point x="124" y="472" type="curve" smooth="yes"/>
      <point x="129" y="510"/>
      <point x="137" y="543"/>
      <point x="147" y="572" type="curve" smooth="yes"/>
      <point x="157" y="600"/>
      <point x="172" y="622"/>
      <point x="190" y="636" type="curve" smooth="yes"/>
      <point x="208" y="649"/>
      <point x="226" y="656"/>
      <point x="245" y="656" type="curve" smooth="yes"/>
      <point x="263" y="656"/>
      <point x="282" y="649"/>
      <point x="300" y="636" type="curve" smooth="yes"/>
      <point x="318" y="622"/>
      <point x="332" y="600"/>
      <point x="343" y="572" type="curve" smooth="yes"/>
      <point x="353" y="543"/>
      <point x="360" y="510"/>
      <point x="366" y="472" type="curve" smooth="yes"/>
      <point x="371" y="433"/>
      <point x="374" y="393"/>
      <point x="374" y="351" type="curve" smooth="yes"/>
      <point x="374" y="309"/>
      <point x="371" y="268"/>
      <point x="367" y="230" type="curve" smooth="yes"/>
      <point x="361" y="191"/>
      <point x="353" y="157"/>
      <point x="342" y="129" type="curve" smooth="yes"/>
      <point x="331" y="101"/>
      <point x="317" y="80"/>
      <point x="300" y="67" type="curve" smooth="yes"/>
      <point x="282" y="53"/>
      <point x="263" y="46"/>
    </contour>
    <contour>
      <point x="245" y="-3" type="curve" smooth="yes"/>
      <point x="270" y="-3"/>
      <point x="295" y="4"/>
      <point x="321" y="19" type="curve" smooth="yes"/>
      <point x="346" y="33"/>
      <point x="367" y="57"/>
      <point x="384" y="89" type="curve" smooth="yes"/>
      <point x="400" y="121"/>
      <point x="413" y="161"/>
      <point x="422" y="207" type="curve" smooth="yes"/>
      <point x="430" y="253"/>
      <point x="435" y="301"/>
      <point x="435" y="351" type="curve" smooth="yes"/>
      <point x="435" y="401"/>
      <point x="430" y="449"/>
      <point x="422" y="495" type="curve" smooth="yes"/>
      <point x="413" y="541"/>
      <point x="400" y="580"/>
      <point x="384" y="613" type="curve" smooth="yes"/>
      <point x="367" y="645"/>
      <point x="346" y="668"/>
      <point x="321" y="683" type="curve" smooth="yes"/>
      <point x="295" y="697"/>
      <point x="270" y="705"/>
      <point x="245" y="705" type="curve" smooth="yes"/>
      <point x="219" y="705"/>
      <point x="194" y="697"/>
      <point x="169" y="683" type="curve" smooth="yes"/>
      <point x="143" y="668"/>
      <point x="122" y="645"/>
      <point x="106" y="613" type="curve" smooth="yes"/>
      <point x="89" y="580"/>
      <point x="76" y="541"/>
      <point x="68" y="495" type="curve" smooth="yes"/>
      <point x="59" y="449"/>
      <point x="55" y="401"/>
      <point x="55" y="351" type="curve" smooth="yes"/>
      <point x="55" y="301"/>
      <point x="59" y="253"/>
      <point x="68" y="207" type="curve" smooth="yes"/>
      <point x="76" y="161"/>
      <point x="89" y="121"/>
      <point x="106" y="89" type="curve" smooth="yes"/>
      <point x="122" y="57"/>
      <point x="143" y="33"/>
      <point x="169" y="19" type="curve" smooth="yes"/>
      <point x="194" y="4"/>
      <point x="219" y="-3"/>
    </contour>
  </outline>
</glyph>
<glyph name="one" format="2">
	<unicode hex="0031"/>
	<advance width="509"/>
	<outline>
		<contour>
			<point x="295" y="6" type="line"/>
			<point x="295" y="697" type="line"/>
			<point x="239" y="697" type="line"/>
			<point x="113" y="616" type="line"/>
			<point x="113" y="561" type="line"/>
			<point x="237" y="636" type="line"/>
			<point x="237" y="6" type="line"/>
		</contour>
	</outline>
</glyph>
<glyph name="two" format="2">
  <advance width="490"/>
  <unicode hex="0032"/>
  <outline>
    <contour>
      <point x="430" y="14" type="line"/>
      <point x="430" y="68" type="line"/>
      <point x="133" y="68" type="line"/>
      <point x="198" y="136"/>
      <point x="253" y="197"/>
      <point x="298" y="252" type="curve" smooth="yes"/>
      <point x="342" y="306"/>
      <point x="375" y="360"/>
      <point x="398" y="413" type="curve" smooth="yes"/>
      <point x="403" y="426"/>
      <point x="408" y="442"/>
      <point x="412" y="461" type="curve" smooth="yes"/>
      <point x="415" y="479"/>
      <point x="417" y="498"/>
      <point x="417" y="518" type="curve" smooth="yes"/>
      <point x="417" y="547"/>
      <point x="413" y="573"/>
      <point x="405" y="596" type="curve" smooth="yes"/>
      <point x="396" y="618"/>
      <point x="384" y="637"/>
      <point x="369" y="654" type="curve" smooth="yes"/>
      <point x="354" y="669"/>
      <point x="336" y="681"/>
      <point x="314" y="690" type="curve" smooth="yes"/>
      <point x="292" y="698"/>
      <point x="270" y="702"/>
      <point x="248" y="702" type="curve" smooth="yes"/>
      <point x="212" y="702"/>
      <point x="182" y="695"/>
      <point x="157" y="683" type="curve" smooth="yes"/>
      <point x="131" y="670"/>
      <point x="113" y="655"/>
      <point x="101" y="637" type="curve" smooth="yes"/>
      <point x="79" y="603"/>
      <point x="68" y="566"/>
      <point x="68" y="524" type="curve"/>
      <point x="130" y="524" type="line"/>
      <point x="130" y="562"/>
      <point x="139" y="594"/>
      <point x="158" y="618" type="curve" smooth="yes"/>
      <point x="177" y="644"/>
      <point x="206" y="657"/>
      <point x="246" y="657" type="curve" smooth="yes"/>
      <point x="266" y="657"/>
      <point x="283" y="652"/>
      <point x="298" y="643" type="curve" smooth="yes"/>
      <point x="312" y="633"/>
      <point x="323" y="620"/>
      <point x="333" y="606" type="curve" smooth="yes"/>
      <point x="341" y="592"/>
      <point x="348" y="577"/>
      <point x="352" y="561" type="curve" smooth="yes"/>
      <point x="355" y="543"/>
      <point x="357" y="529"/>
      <point x="357" y="518" type="curve" smooth="yes"/>
      <point x="357" y="488"/>
      <point x="352" y="457"/>
      <point x="342" y="427" type="curve" smooth="yes"/>
      <point x="327" y="386"/>
      <point x="287" y="324"/>
      <point x="221" y="242" type="curve" smooth="yes"/>
      <point x="155" y="159"/>
      <point x="104" y="102"/>
      <point x="69" y="72" type="curve"/>
      <point x="69" y="14" type="line"/>
    </contour>
  </outline>
</glyph>
<glyph name="three" format="2">
	<unicode hex="0033"/>
	<advance width="490"/>
	<outline>
		<contour>
			<point x="432" y="198" type="curve" smooth="yes"/>
			<point x="432" y="298.187"/>
			<point x="379.7" y="339.742"/>
			<point x="303" y="368" type="curve"/>
			<point x="366.151" y="395.628"/>
			<point x="422" y="440.995"/>
			<point x="422" y="527" type="curve" smooth="yes"/>
			<point x="422" y="637.877"/>
			<point x="352.008" y="700"/>
			<point x="242" y="700" type="curve" smooth="yes"/>
			<point x="147.97" y="700"/>
			<point x="68" y="650.324"/>
			<point x="68" y="562" type="curve"/>
			<point x="129" y="562" type="line"/>
			<point x="131.325" y="615.482"/>
			<point x="184.433" y="656"/>
			<point x="247" y="656" type="curve" smooth="yes"/>
			<point x="314.861" y="656"/>
			<point x="362" y="601.247"/>
			<point x="362" y="527" type="curve" smooth="yes"/>
			<point x="362" y="442.388"/>
			<point x="296.763" y="390"/>
			<point x="209" y="390" type="curve"/>
			<point x="209" y="347" type="line"/>
			<point x="300.189" y="347"/>
			<point x="372" y="292.863"/>
			<point x="372" y="198" type="curve" smooth="yes"/>
			<point x="372" y="113.19"/>
			<point x="319.58" y="43"/>
			<point x="239" y="43" type="curve" smooth="yes"/>
			<point x="178.832" y="43"/>
			<point x="125" y="84.049"/>
			<point x="125" y="140" type="curve"/>
			<point x="57" y="140" type="line"/>
			<point x="63.3035" y="45.4477"/>
			<point x="137.076" y="-1"/>
			<point x="242" y="-1" type="curve" smooth="yes"/>
			<point x="362.171" y="-1"/>
			<point x="432" y="78.0165"/>
		</contour>
	</outline>
</glyph>
<glyph name="four" format="2">
	<unicode hex="0034"/>
	<advance width="503"/>
	<outline>
		<contour>
			<point x="454" y="199" type="line"/>
			<point x="454" y="253" type="line"/>
			<point x="354" y="253" type="line"/>
			<point x="354" y="702" type="line"/>
			<point x="297" y="702" type="line"/>
			<point x="37" y="253" type="line"/>
			<point x="37" y="199" type="line"/>
			<point x="298" y="199" type="line"/>
			<point x="298" y="11" type="line"/>
			<point x="354" y="11" type="line"/>
			<point x="354" y="199" type="line"/>
		</contour>
		<contour>
			<point x="298" y="253" type="line"/>
			<point x="91" y="253" type="line"/>
			<point x="298" y="609" type="line"/>
		</contour>
	</outline>
</glyph>
<glyph name="five" format="2">
	<unicode hex="0035"/>
	<advance width="490"/>
	<outline>
		<contour>
			<point x="433" y="211" type="curve" smooth="yes"/>
			<point x="433" y="333.896"/>
			<point x="372.96" y="418"/>
			<point x="251" y="418" type="curve" smooth="yes"/>
			<point x="201" y="418"/>
			<point x="163" y="402"/>
			<point x="135" y="370" type="curve"/>
			<point x="149" y="637" type="line"/>
			<point x="396" y="637" type="line"/>
			<point x="396" y="691" type="line"/>
			<point x="97" y="691" type="line"/>
			<point x="78" y="314" type="line"/>
			<point x="139" y="314" type="line"/>
			<point x="152.472" y="344.793"/>
			<point x="195.896" y="373"/>
			<point x="241" y="373" type="curve" smooth="yes"/>
			<point x="325.323" y="373"/>
			<point x="372" y="301.803"/>
			<point x="372" y="211" type="curve" smooth="yes"/>
			<point x="368.569" y="121.801"/>
			<point x="317.949" y="44"/>
			<point x="233" y="44" type="curve" smooth="yes"/>
			<point x="174.131" y="44"/>
			<point x="128" y="77.9316"/>
			<point x="128" y="134" type="curve"/>
			<point x="61" y="134" type="line"/>
			<point x="61" y="45.0691"/>
			<point x="138.829" y="-1"/>
			<point x="233" y="-1" type="curve" smooth="yes"/>
			<point x="358.112" y="-1"/>
			<point x="433" y="85.8107"/>
		</contour>
	</outline>
</glyph>
<glyph name="six" format="2">
	<unicode hex="0036"/>
	<advance width="503"/>
	<outline>
		<contour>
			<point x="250" y="-1" type="curve" smooth="yes"/>
			<point x="373.167" y="-1"/>
			<point x="434" y="86.428"/>
			<point x="434" y="212" type="curve" smooth="yes"/>
			<point x="434" y="338.767"/>
			<point x="376.762" y="427"/>
			<point x="250" y="427" type="curve" smooth="yes"/>
			<point x="188.25" y="427"/>
			<point x="141.912" y="386.487"/>
			<point x="116" y="346" type="curve"/>
			<point x="116" y="391" type="line" smooth="yes"/>
			<point x="116" y="505.157"/>
			<point x="138.489" y="657"/>
			<point x="250" y="657" type="curve" smooth="yes"/>
			<point x="309.266" y="657"/>
			<point x="352" y="615.473"/>
			<point x="352" y="559" type="curve"/>
			<point x="422" y="559" type="line"/>
			<point x="422" y="645.722"/>
			<point x="343.047" y="701"/>
			<point x="252" y="701" type="curve" smooth="yes"/>
			<point x="87.7651" y="701"/>
			<point x="57" y="527.91"/>
			<point x="57" y="364" type="curve" smooth="yes"/>
			<point x="57" y="174.974"/>
			<point x="68.6615" y="-1"/>
		</contour>
		<contour>
			<point x="375" y="213" type="curve" smooth="yes"/>
			<point x="375" y="124.83"/>
			<point x="336.168" y="44"/>
			<point x="251" y="44" type="curve" smooth="yes"/>
			<point x="165.901" y="44"/>
			<point x="127" y="125.777"/>
			<point x="127" y="213" type="curve" smooth="yes"/>
			<point x="127" y="298.797"/>
			<point x="165.823" y="382"/>
			<point x="251" y="382" type="curve" smooth="yes"/>
			<point x="335.998" y="382"/>
			<point x="375" y="299.593"/>
		</contour>
	</outline>
</glyph>
<glyph name="seven" format="2">
	<unicode hex="0037"/>
	<advance width="490"/>
	<outline>
		<contour>
			<point x="428" y="628" type="line"/>
			<point x="428" y="687" type="line"/>
			<point x="60" y="687" type="line"/>
			<point x="60" y="631" type="line"/>
			<point x="369" y="631" type="line"/>
			<point x="137" y="6" type="line"/>
			<point x="197" y="6" type="line"/>
		</contour>
	</outline>
</glyph>
<glyph name="eight" format="2">
	<unicode hex="0038"/>
	<advance width="490"/>
	<outline>
		<contour>
			<point x="365" y="523" type="curve" smooth="yes"/>
			<point x="365" y="483"/>
			<point x="353" y="451"/>
			<point x="330" y="427" type="curve" smooth="yes"/>
			<point x="306" y="401"/>
			<point x="278" y="389"/>
			<point x="244" y="389" type="curve" smooth="yes"/>
			<point x="210" y="389"/>
			<point x="181" y="401"/>
			<point x="159" y="427" type="curve" smooth="yes"/>
			<point x="136" y="451"/>
			<point x="125" y="483"/>
			<point x="125" y="523" type="curve" smooth="yes"/>
			<point x="125" y="563"/>
			<point x="136" y="595"/>
			<point x="160" y="621" type="curve" smooth="yes"/>
			<point x="183" y="645"/>
			<point x="211" y="658"/>
			<point x="244" y="658" type="curve" smooth="yes"/>
			<point x="277" y="658"/>
			<point x="306" y="645"/>
			<point x="330" y="621" type="curve" smooth="yes"/>
			<point x="353" y="595"/>
			<point x="365" y="563"/>
		</contour>
		<contour>
			<point x="424" y="523" type="curve" smooth="yes"/>
			<point x="424" y="547"/>
			<point x="419" y="571"/>
			<point x="411" y="593" type="curve" smooth="yes"/>
			<point x="402" y="615"/>
			<point x="390" y="633"/>
			<point x="374" y="649" type="curve" smooth="yes"/>
			<point x="358" y="665"/>
			<point x="338" y="678"/>
			<point x="315" y="688" type="curve" smooth="yes"/>
			<point x="291" y="696"/>
			<point x="268" y="701"/>
			<point x="244" y="701" type="curve" smooth="yes"/>
			<point x="220" y="701"/>
			<point x="197" y="696"/>
			<point x="174" y="688" type="curve" smooth="yes"/>
			<point x="150" y="678"/>
			<point x="131" y="665"/>
			<point x="115" y="649" type="curve" smooth="yes"/>
			<point x="99" y="633"/>
			<point x="87" y="615"/>
			<point x="79" y="594" type="curve" smooth="yes"/>
			<point x="70" y="572"/>
			<point x="66" y="548"/>
			<point x="66" y="523" type="curve" smooth="yes"/>
			<point x="66" y="498"/>
			<point x="70" y="475"/>
			<point x="78" y="454" type="curve" smooth="yes"/>
			<point x="86" y="432"/>
			<point x="98" y="413"/>
			<point x="115" y="398" type="curve" smooth="yes"/>
			<point x="129" y="383"/>
			<point x="146" y="372"/>
			<point x="168" y="364" type="curve"/>
			<point x="145" y="358"/>
			<point x="125" y="346"/>
			<point x="108" y="329" type="curve" smooth="yes"/>
			<point x="90" y="312"/>
			<point x="77" y="292"/>
			<point x="68" y="269" type="curve" smooth="yes"/>
			<point x="58" y="245"/>
			<point x="54" y="219"/>
			<point x="54" y="192" type="curve" smooth="yes"/>
			<point x="54" y="165"/>
			<point x="58" y="140"/>
			<point x="66" y="116" type="curve" smooth="yes"/>
			<point x="73" y="91"/>
			<point x="85" y="70"/>
			<point x="103" y="52" type="curve" smooth="yes"/>
			<point x="119" y="33"/>
			<point x="141" y="19"/>
			<point x="167" y="11" type="curve" smooth="yes"/>
			<point x="193" y="2"/>
			<point x="218" y="-2"/>
			<point x="244" y="-2" type="curve" smooth="yes"/>
			<point x="269" y="-2"/>
			<point x="295" y="2"/>
			<point x="321" y="11" type="curve" smooth="yes"/>
			<point x="347" y="19"/>
			<point x="368" y="33"/>
			<point x="385" y="52" type="curve" smooth="yes"/>
			<point x="402" y="70"/>
			<point x="415" y="91"/>
			<point x="423" y="116" type="curve" smooth="yes"/>
			<point x="430" y="140"/>
			<point x="434" y="165"/>
			<point x="434" y="192" type="curve" smooth="yes"/>
			<point x="434" y="219"/>
			<point x="429" y="245"/>
			<point x="420" y="269" type="curve" smooth="yes"/>
			<point x="410" y="292"/>
			<point x="397" y="312"/>
			<point x="380" y="329" type="curve" smooth="yes"/>
			<point x="362" y="346"/>
			<point x="342" y="358"/>
			<point x="320" y="364" type="curve"/>
			<point x="341" y="372"/>
			<point x="359" y="383"/>
			<point x="375" y="398" type="curve" smooth="yes"/>
			<point x="391" y="414"/>
			<point x="403" y="432"/>
			<point x="412" y="454" type="curve" smooth="yes"/>
			<point x="420" y="475"/>
			<point x="424" y="498"/>
		</contour>
		<contour>
			<point x="244" y="45" type="curve" smooth="yes"/>
			<point x="206" y="45"/>
			<point x="175" y="59"/>
			<point x="151" y="87" type="curve" smooth="yes"/>
			<point x="126" y="114"/>
			<point x="114" y="149"/>
			<point x="114" y="192" type="curve" smooth="yes"/>
			<point x="114" y="236"/>
			<point x="126" y="272"/>
			<point x="152" y="300" type="curve" smooth="yes"/>
			<point x="176" y="328"/>
			<point x="207" y="342"/>
			<point x="244" y="342" type="curve" smooth="yes"/>
			<point x="280" y="342"/>
			<point x="311" y="328"/>
			<point x="337" y="300" type="curve" smooth="yes"/>
			<point x="361" y="272"/>
			<point x="374" y="236"/>
			<point x="374" y="192" type="curve" smooth="yes"/>
			<point x="374" y="149"/>
			<point x="361" y="114"/>
			<point x="337" y="87" type="curve" smooth="yes"/>
			<point x="312" y="59"/>
			<point x="281" y="45"/>
		</contour>
	</outline>
</glyph>
<glyph name="nine" format="2">
	<unicode hex="0039"/>
	<advance width="490"/>
	<outline>
		<contour>
			<point x="240" y="701" type="curve" smooth="yes"/>
			<point x="114.41" y="701"/>
			<point x="56" y="612.271"/>
			<point x="56" y="488" type="curve" smooth="yes"/>
			<point x="56" y="360.087"/>
			<point x="112.413" y="273"/>
			<point x="240" y="273" type="curve" smooth="yes"/>
			<point x="300.31" y="273"/>
			<point x="348.296" y="312.231"/>
			<point x="374" y="354" type="curve"/>
			<point x="374" y="309" type="line" smooth="yes"/>
			<point x="374" y="194.409"/>
			<point x="350.5" y="43"/>
			<point x="240" y="43" type="curve" smooth="yes"/>
			<point x="181.377" y="43"/>
			<point x="138" y="84.2646"/>
			<point x="138" y="141" type="curve"/>
			<point x="68" y="141" type="line"/>
			<point x="68" y="53.8509"/>
			<point x="147.596" y="-1"/>
			<point x="238" y="-1" type="curve" smooth="yes"/>
			<point x="401.4" y="-1"/>
			<point x="433" y="170.14"/>
			<point x="433" y="336" type="curve" smooth="yes"/>
			<point x="433" y="524.696"/>
			<point x="421.011" y="701"/>
		</contour>
		<contour>
			<point x="363" y="487" type="curve" smooth="yes"/>
			<point x="363" y="398.847"/>
			<point x="324.574" y="318"/>
			<point x="239" y="318" type="curve" smooth="yes"/>
			<point x="153.054" y="318"/>
			<point x="115" y="399.402"/>
			<point x="115" y="487" type="curve" smooth="yes"/>
			<point x="115" y="573.604"/>
			<point x="152.919" y="656"/>
			<point x="239" y="656" type="curve" smooth="yes"/>
			<point x="324.497" y="656"/>
			<point x="363" y="574.553"/>
		</contour>
	</outline>
</glyph>
<glyph name="colon" format="2">
  <advance width="362"/>
  <unicode hex="003A"/>
  <outline>
    <contour>
      <point x="223" y="80" type="line"/>
      <point x="223" y="171" type="line"/>
      <point x="139" y="171" type="line"/>
      <point x="139" y="80" type="line"/>
    </contour>
    <contour>
      <point x="223" y="475" type="line"/>
      <point x="223" y="566" type="line"/>
      <point x="139" y="566" type="line"/>
      <point x="139" y="475" type="line"/>
    </contour>
  </outline>
</glyph>
<glyph name="semicolon" format="2">
	<unicode hex="003B"/>
	<advance width="376"/>
	<outline>
		<contour>
			<point x="222" y="105" type="line"/>
			<point x="144" y="105" type="line"/>
			<point x="125" y="-103" type="line"/>
			<point x="176" y="-103" type="line"/>
		</contour>
		<contour>
			<point x="223" y="399" type="line"/>
			<point x="223" y="490" type="line"/>
			<point x="139" y="490" type="line"/>
			<point x="139" y="399" type="line"/>
		</contour>
	</outline>
</glyph>
<glyph name="less" format="2">
	<unicode hex="003C"/>
	<advance width="524"/>
	<outline>
		<contour>
			<point x="89" y="341" type="line"/>
			<point x="460" y="5" type="line"/>
			<point x="460" y="62" type="line"/>
			<point x="130" y="362" type="line"/>
			<point x="460" y="663" type="line"/>
			<point x="460" y="720" type="line"/>
			<point x="89" y="384" type="line"/>
		</contour>
	</outline>
</glyph>
<glyph name="equal" format="2">
	<unicode hex="003D"/>
	<advance width="524"/>
	<outline>
		<contour>
			<point x="462" y="444" type="line"/>
			<point x="462" y="493" type="line"/>
			<point x="61" y="493" type="line"/>
			<point x="61" y="444" type="line"/>
		</contour>
		<contour>
			<point x="462" y="232" type="line"/>
			<point x="462" y="281" type="line"/>
			<point x="61" y="281" type="line"/>
			<point x="61" y="232" type="line"/>
		</contour>
	</outline>
</glyph>
<glyph name="question" format="2">
	<unicode hex="003F"/>
	<advance width="431"/>
	<outline>
		<contour>
			<point x="374" y="570" type="curve" smooth="yes"/>
			<point x="374" y="675.796"/>
			<point x="291.637" y="734"/>
			<point x="187" y="734" type="curve" smooth="yes"/>
			<point x="134.187" y="734"/>
			<point x="84.2528" y="719.084"/>
			<point x="45" y="706" type="curve"/>
			<point x="45" y="647" type="line"/>
			<point x="86.521" y="658.864"/>
			<point x="127.202" y="682"/>
			<point x="185" y="682" type="curve" smooth="yes"/>
			<point x="253.305" y="682"/>
			<point x="312" y="635.36"/>
			<point x="312" y="567" type="curve" smooth="yes"/>
			<point x="312" y="422.354"/>
			<point x="142" y="398.451"/>
			<point x="142" y="243" type="curve" smooth="yes"/>
			<point x="142" y="186" type="line"/>
			<point x="197" y="186" type="line"/>
			<point x="197" y="223" type="line" smooth="yes"/>
			<point x="197" y="387.545"/>
			<point x="374" y="406.359"/>
		</contour>
		<contour>
			<point x="213" y="-26" type="line"/>
			<point x="213" y="65" type="line"/>
			<point x="129" y="65" type="line"/>
			<point x="129" y="-26" type="line"/>
		</contour>
	</outline>
</glyph>
<glyph name="at" format="2">
	<unicode hex="0040"/>
	<advance width="890"/>
	<outline>
		<contour>
			<point x="809" y="332" type="curve" smooth="yes"/>
			<point x="813" y="414"/>
			<point x="796" y="486"/>
			<point x="760" y="549" type="curve" smooth="yes"/>
			<point x="722" y="611"/>
			<point x="674" y="654"/>
			<point x="614" y="677" type="curve" smooth="yes"/>
			<point x="574" y="691"/>
			<point x="535" y="700"/>
			<point x="496" y="702" type="curve" smooth="yes"/>
			<point x="456" y="703"/>
			<point x="419" y="698"/>
			<point x="384" y="686" type="curve" smooth="yes"/>
			<point x="348" y="674"/>
			<point x="315" y="658"/>
			<point x="284" y="636" type="curve" smooth="yes"/>
			<point x="252" y="613"/>
			<point x="223" y="584"/>
			<point x="197" y="550" type="curve" smooth="yes"/>
			<point x="169" y="512"/>
			<point x="146" y="472"/>
			<point x="130" y="430" type="curve" smooth="yes"/>
			<point x="112" y="387"/>
			<point x="100" y="346"/>
			<point x="92" y="306" type="curve" smooth="yes"/>
			<point x="84" y="265"/>
			<point x="82" y="222"/>
			<point x="86" y="178" type="curve" smooth="yes"/>
			<point x="89" y="132"/>
			<point x="97" y="94"/>
			<point x="109" y="64" type="curve" smooth="yes"/>
			<point x="136" y="-6"/>
			<point x="180" y="-58"/>
			<point x="241" y="-94" type="curve" smooth="yes"/>
			<point x="301" y="-129"/>
			<point x="370" y="-147"/>
			<point x="449" y="-147" type="curve" smooth="yes"/>
			<point x="495" y="-147"/>
			<point x="536" y="-141"/>
			<point x="572" y="-131" type="curve" smooth="yes"/>
			<point x="606" y="-119"/>
			<point x="635" y="-106"/>
			<point x="658" y="-91" type="curve" smooth="yes"/>
			<point x="680" y="-76"/>
			<point x="698" y="-63"/>
			<point x="712" y="-51" type="curve" smooth="yes"/>
			<point x="725" y="-38"/>
			<point x="732" y="-30"/>
			<point x="734" y="-28" type="curve" smooth="yes"/>
			<point x="714" y="-3" type="line"/>
			<point x="710" y="-6"/>
			<point x="701" y="-14"/>
			<point x="685" y="-27" type="curve" smooth="yes"/>
			<point x="669" y="-39"/>
			<point x="652" y="-50"/>
			<point x="634" y="-61" type="curve" smooth="yes"/>
			<point x="610" y="-74"/>
			<point x="583" y="-85"/>
			<point x="553" y="-94" type="curve" smooth="yes"/>
			<point x="521" y="-102"/>
			<point x="488" y="-106"/>
			<point x="452" y="-106" type="curve" smooth="yes"/>
			<point x="376" y="-106"/>
			<point x="314" y="-88"/>
			<point x="265" y="-54" type="curve" smooth="yes"/>
			<point x="215" y="-19"/>
			<point x="180" y="24"/>
			<point x="160" y="78" type="curve" smooth="yes"/>
			<point x="149" y="105"/>
			<point x="142" y="138"/>
			<point x="140" y="178" type="curve" smooth="yes"/>
			<point x="137" y="217"/>
			<point x="139" y="254"/>
			<point x="146" y="289" type="curve" smooth="yes"/>
			<point x="152" y="321"/>
			<point x="161" y="357"/>
			<point x="174" y="396" type="curve" smooth="yes"/>
			<point x="186" y="434"/>
			<point x="206" y="472"/>
			<point x="233" y="510" type="curve" smooth="yes"/>
			<point x="253" y="538"/>
			<point x="277" y="564"/>
			<point x="306" y="588" type="curve" smooth="yes"/>
			<point x="334" y="610"/>
			<point x="365" y="628"/>
			<point x="398" y="640" type="curve" smooth="yes"/>
			<point x="430" y="652"/>
			<point x="463" y="658"/>
			<point x="497" y="658" type="curve" smooth="yes"/>
			<point x="531" y="658"/>
			<point x="565" y="650"/>
			<point x="600" y="636" type="curve" smooth="yes"/>
			<point x="652" y="613"/>
			<point x="694" y="573"/>
			<point x="725" y="515" type="curve" smooth="yes"/>
			<point x="755" y="456"/>
			<point x="768" y="395"/>
			<point x="766" y="333" type="curve" smooth="yes"/>
			<point x="765" y="311"/>
			<point x="761" y="283"/>
			<point x="753" y="250" type="curve" smooth="yes"/>
			<point x="744" y="216"/>
			<point x="734" y="189"/>
			<point x="722" y="168" type="curve" smooth="yes"/>
			<point x="712" y="150"/>
			<point x="700" y="133"/>
			<point x="685" y="117" type="curve" smooth="yes"/>
			<point x="669" y="100"/>
			<point x="654" y="87"/>
			<point x="640" y="77" type="curve" smooth="yes"/>
			<point x="608" y="56"/>
			<point x="582" y="50"/>
			<point x="563" y="58" type="curve" smooth="yes"/>
			<point x="543" y="65"/>
			<point x="538" y="88"/>
			<point x="550" y="127" type="curve" smooth="yes"/>
			<point x="566" y="175"/>
			<point x="587" y="238"/>
			<point x="615" y="316" type="curve" smooth="yes"/>
			<point x="642" y="393"/>
			<point x="660" y="442"/>
			<point x="668" y="463" type="curve"/>
			<point x="614" y="463" type="line"/>
			<point x="591" y="399" type="line"/>
			<point x="584" y="426"/>
			<point x="572" y="447"/>
			<point x="555" y="463" type="curve" smooth="yes"/>
			<point x="537" y="477"/>
			<point x="514" y="484"/>
			<point x="486" y="484" type="curve" smooth="yes"/>
			<point x="456" y="483"/>
			<point x="427" y="472"/>
			<point x="399" y="450" type="curve" smooth="yes"/>
			<point x="370" y="427"/>
			<point x="345" y="400"/>
			<point x="325" y="368" type="curve" smooth="yes"/>
			<point x="300" y="330"/>
			<point x="283" y="294"/>
			<point x="274" y="260" type="curve" smooth="yes"/>
			<point x="264" y="224"/>
			<point x="259" y="195"/>
			<point x="258" y="172" type="curve" smooth="yes"/>
			<point x="256" y="144"/>
			<point x="259" y="121"/>
			<point x="265" y="102" type="curve" smooth="yes"/>
			<point x="271" y="82"/>
			<point x="279" y="65"/>
			<point x="291" y="51" type="curve" smooth="yes"/>
			<point x="301" y="39"/>
			<point x="313" y="31"/>
			<point x="328" y="26" type="curve" smooth="yes"/>
			<point x="342" y="20"/>
			<point x="357" y="17"/>
			<point x="373" y="17" type="curve" smooth="yes"/>
			<point x="389" y="17"/>
			<point x="403" y="19"/>
			<point x="415" y="24" type="curve" smooth="yes"/>
			<point x="426" y="28"/>
			<point x="435" y="33"/>
			<point x="443" y="38" type="curve" smooth="yes"/>
			<point x="463" y="52"/>
			<point x="480" y="68"/>
			<point x="494" y="86" type="curve"/>
			<point x="494" y="82"/>
			<point x="494" y="78"/>
			<point x="494" y="72" type="curve" smooth="yes"/>
			<point x="494" y="66"/>
			<point x="494" y="59"/>
			<point x="495" y="53" type="curve" smooth="yes"/>
			<point x="497" y="38"/>
			<point x="503" y="26"/>
			<point x="513" y="17" type="curve" smooth="yes"/>
			<point x="523" y="7"/>
			<point x="539" y="4"/>
			<point x="561" y="6" type="curve" smooth="yes"/>
			<point x="588" y="8"/>
			<point x="616" y="17"/>
			<point x="645" y="35" type="curve" smooth="yes"/>
			<point x="693" y="63"/>
			<point x="732" y="104"/>
			<point x="761" y="156" type="curve" smooth="yes"/>
			<point x="789" y="208"/>
			<point x="805" y="266"/>
		</contour>
		<contour>
			<point x="561" y="363" type="curve" smooth="yes"/>
			<point x="561" y="351"/>
			<point x="558" y="330"/>
			<point x="552" y="301" type="curve" smooth="yes"/>
			<point x="546" y="271"/>
			<point x="534" y="236"/>
			<point x="518" y="196" type="curve" smooth="yes"/>
			<point x="501" y="152"/>
			<point x="481" y="118"/>
			<point x="457" y="95" type="curve" smooth="yes"/>
			<point x="433" y="71"/>
			<point x="408" y="60"/>
			<point x="382" y="60" type="curve" smooth="yes"/>
			<point x="373" y="60"/>
			<point x="366" y="61"/>
			<point x="360" y="64" type="curve" smooth="yes"/>
			<point x="353" y="66"/>
			<point x="346" y="70"/>
			<point x="340" y="76" type="curve" smooth="yes"/>
			<point x="330" y="84"/>
			<point x="322" y="95"/>
			<point x="318" y="111" type="curve" smooth="yes"/>
			<point x="313" y="125"/>
			<point x="312" y="145"/>
			<point x="315" y="169" type="curve" smooth="yes"/>
			<point x="317" y="193"/>
			<point x="323" y="218"/>
			<point x="331" y="243" type="curve" smooth="yes"/>
			<point x="339" y="267"/>
			<point x="349" y="292"/>
			<point x="363" y="318" type="curve" smooth="yes"/>
			<point x="383" y="355"/>
			<point x="406" y="386"/>
			<point x="432" y="410" type="curve" smooth="yes"/>
			<point x="457" y="433"/>
			<point x="480" y="445"/>
			<point x="501" y="445" type="curve" smooth="yes"/>
			<point x="520" y="445"/>
			<point x="535" y="436"/>
			<point x="546" y="419" type="curve" smooth="yes"/>
			<point x="556" y="401"/>
			<point x="561" y="382"/>
		</contour>
	</outline>
</glyph>
<glyph name="A" format="2">
	<unicode hex="0041"/>
	<advance width="570"/>
	<outline>
		<contour>
			<point x="284" y="645" type="line"/>
			<point x="176" y="286" type="line"/>
			<point x="393" y="286" type="line"/>
		</contour>
		<contour>
			<point x="320" y="699" type="line"/>
			<point x="538" y="14" type="line"/>
			<point x="475" y="14" type="line"/>
			<point x="409" y="233" type="line"/>
			<point x="160" y="233" type="line"/>
			<point x="94" y="14" type="line"/>
			<point x="31" y="14" type="line"/>
			<point x="249" y="699" type="line"/>
		</contour>
	</outline>
</glyph>
<glyph name="B" format="2">
	<unicode hex="0042"/>
	<advance width="544"/>
	<outline>
		<contour>
			<point x="477" y="205" type="curve" smooth="yes"/>
			<point x="477" y="308.722"/>
			<point x="410.788" y="357.781"/>
			<point x="329" y="375" type="curve"/>
			<point x="394.686" y="396.895"/>
			<point x="451" y="441.459"/>
			<point x="451" y="523" type="curve" smooth="yes"/>
			<point x="451" y="640.784"/>
			<point x="370.811" y="699"/>
			<point x="252" y="699" type="curve" smooth="yes"/>
			<point x="77" y="699" type="line"/>
			<point x="77" y="14" type="line"/>
			<point x="261" y="14" type="line" smooth="yes"/>
			<point x="390.465" y="14"/>
			<point x="477" y="73.1571"/>
		</contour>
		<contour>
			<point x="136" y="65" type="line"/>
			<point x="136" y="348" type="line"/>
			<point x="246" y="348" type="line" smooth="yes"/>
			<point x="347.657" y="348"/>
			<point x="417" y="302.287"/>
			<point x="417" y="205" type="curve" smooth="yes"/>
			<point x="417" y="106.273"/>
			<point x="349.825" y="65"/>
			<point x="246" y="65" type="curve" smooth="yes"/>
		</contour>
		<contour>
			<point x="391" y="523" type="curve" smooth="yes"/>
			<point x="391" y="428.938"/>
			<point x="319.62" y="399"/>
			<point x="225" y="399" type="curve" smooth="yes"/>
			<point x="136" y="399" type="line"/>
			<point x="136" y="648" type="line"/>
			<point x="226" y="648" type="line" smooth="yes"/>
			<point x="323.152" y="648"/>
			<point x="391" y="619.365"/>
		</contour>
	</outline>
</glyph>
<glyph name="C" format="2">
	<unicode hex="0043"/>
	<advance width="573"/>
	<outline>
		<contour>
			<point x="529" y="523" type="line"/>
			<point x="529" y="548"/>
			<point x="523" y="573"/>
			<point x="512" y="597" type="curve" smooth="yes"/>
			<point x="500" y="620"/>
			<point x="485" y="640"/>
			<point x="467" y="658" type="curve" smooth="yes"/>
			<point x="448" y="674"/>
			<point x="426" y="688"/>
			<point x="402" y="698" type="curve" smooth="yes"/>
			<point x="376" y="707"/>
			<point x="349" y="712"/>
			<point x="321" y="712" type="curve" smooth="yes"/>
			<point x="274" y="712"/>
			<point x="233" y="702"/>
			<point x="199" y="683" type="curve" smooth="yes"/>
			<point x="164" y="663"/>
			<point x="135" y="637"/>
			<point x="113" y="607" type="curve" smooth="yes"/>
			<point x="89" y="575"/>
			<point x="72" y="539"/>
			<point x="62" y="498" type="curve" smooth="yes"/>
			<point x="51" y="456"/>
			<point x="46" y="413"/>
			<point x="46" y="368" type="curve" smooth="yes"/>
			<point x="46" y="322"/>
			<point x="51" y="278"/>
			<point x="61" y="235" type="curve" smooth="yes"/>
			<point x="70" y="191"/>
			<point x="87" y="152"/>
			<point x="112" y="118" type="curve" smooth="yes"/>
			<point x="136" y="82"/>
			<point x="167" y="54"/>
			<point x="205" y="34" type="curve" smooth="yes"/>
			<point x="242" y="12"/>
			<point x="282" y="2"/>
			<point x="325" y="2" type="curve" smooth="yes"/>
			<point x="371" y="2"/>
			<point x="413" y="7"/>
			<point x="451" y="19" type="curve" smooth="yes"/>
			<point x="465" y="23"/>
			<point x="477" y="27"/>
			<point x="487" y="32" type="curve" smooth="yes"/>
			<point x="496" y="36"/>
			<point x="502" y="40"/>
			<point x="506" y="42" type="curve"/>
			<point x="506" y="103" type="line"/>
			<point x="493" y="93"/>
			<point x="471" y="83"/>
			<point x="441" y="71" type="curve" smooth="yes"/>
			<point x="410" y="59"/>
			<point x="377" y="53"/>
			<point x="343" y="53" type="curve" smooth="yes"/>
			<point x="299" y="53"/>
			<point x="261" y="64"/>
			<point x="228" y="88" type="curve" smooth="yes"/>
			<point x="194" y="111"/>
			<point x="169" y="139"/>
			<point x="152" y="172" type="curve" smooth="yes"/>
			<point x="134" y="206"/>
			<point x="122" y="241"/>
			<point x="117" y="277" type="curve" smooth="yes"/>
			<point x="111" y="312"/>
			<point x="108" y="342"/>
			<point x="108" y="368" type="curve" smooth="yes"/>
			<point x="108" y="407"/>
			<point x="113" y="447"/>
			<point x="125" y="487" type="curve" smooth="yes"/>
			<point x="135" y="527"/>
			<point x="151" y="559"/>
			<point x="171" y="585" type="curve" smooth="yes"/>
			<point x="191" y="611"/>
			<point x="214" y="630"/>
			<point x="240" y="643" type="curve" smooth="yes"/>
			<point x="265" y="655"/>
			<point x="292" y="661"/>
			<point x="321" y="661" type="curve" smooth="yes"/>
			<point x="339" y="660"/>
			<point x="356" y="657"/>
			<point x="373" y="651" type="curve" smooth="yes"/>
			<point x="389" y="645"/>
			<point x="404" y="636"/>
			<point x="418" y="625" type="curve" smooth="yes"/>
			<point x="432" y="613"/>
			<point x="443" y="598"/>
			<point x="452" y="580" type="curve" smooth="yes"/>
			<point x="460" y="562"/>
			<point x="464" y="543"/>
			<point x="464" y="523" type="curve"/>
		</contour>
	</outline>
</glyph>
<glyph name="D" format="2">
	<unicode hex="0044"/>
	<advance width="601"/>
	<outline>
		<contour>
			<point x="136" y="646" type="line"/>
			<point x="213" y="646" type="line" smooth="yes"/>
			<point x="393.469" y="646"/>
			<point x="466" y="537.504"/>
			<point x="466" y="356" type="curve" smooth="yes"/>
			<point x="466" y="174.584"/>
			<point x="392.376" y="67"/>
			<point x="213" y="67" type="curve" smooth="yes"/>
			<point x="136" y="67" type="line"/>
		</contour>
		<contour>
			<point x="77" y="699" type="line"/>
			<point x="77" y="14" type="line"/>
			<point x="216" y="14" type="line" smooth="yes"/>
			<point x="427.909" y="14"/>
			<point x="526" y="141.593"/>
			<point x="526" y="356" type="curve" smooth="yes"/>
			<point x="526" y="570.463"/>
			<point x="428.76" y="699"/>
			<point x="216" y="699" type="curve" smooth="yes"/>
		</contour>
	</outline>
</glyph>
<glyph name="E" format="2">
	<unicode hex="0045"/>
	<advance width="494"/>
	<outline>
		<contour>
			<point x="423" y="14" type="line"/>
			<point x="423" y="67" type="line"/>
			<point x="137" y="67" type="line"/>
			<point x="137" y="346" type="line"/>
			<point x="403" y="346" type="line"/>
			<point x="403" y="399" type="line"/>
			<point x="137" y="399" type="line"/>
			<point x="137" y="646" type="line"/>
			<point x="415" y="646" type="line"/>
			<point x="415" y="699" type="line"/>
			<point x="77" y="699" type="line"/>
			<point x="77" y="14" type="line"/>
		</contour>
	</outline>
</glyph>
<glyph name="F" format="2">
	<unicode hex="0046"/>
	<advance width="457"/>
	<outline>
		<contour>
			<point x="415" y="646" type="line"/>
			<point x="415" y="699" type="line"/>
			<point x="77" y="699" type="line"/>
			<point x="77" y="14" type="line"/>
			<point x="137" y="14" type="line"/>
			<point x="137" y="346" type="line"/>
			<point x="405" y="346" type="line"/>
			<point x="405" y="399" type="line"/>
			<point x="137" y="399" type="line"/>
			<point x="137" y="646" type="line"/>
		</contour>
	</outline>
</glyph>
<glyph name="G" format="2">
  <advance width="599"/>
  <unicode hex="0047"/>
  <outline>
    <contour>
      <point x="529" y="523" type="line"/>
      <point x="529" y="548"/>
      <point x="523" y="573"/>
      <point x="512" y="597" type="curve" smooth="yes"/>
      <point x="500" y="620"/>
      <point x="485" y="640"/>
      <point x="467" y="658" type="curve" smooth="yes"/>
      <point x="448" y="674"/>
      <point x="426" y="688"/>
      <point x="402" y="698" type="curve" smooth="yes"/>
      <point x="376" y="707"/>
      <point x="349" y="712"/>
      <point x="321" y="712" type="curve" smooth="yes"/>
      <point x="274" y="712"/>
      <point x="233" y="702"/>
      <point x="199" y="683" type="curve" smooth="yes"/>
      <point x="164" y="663"/>
      <point x="135" y="637"/>
      <point x="113" y="607" type="curve" smooth="yes"/>
      <point x="89" y="575"/>
      <point x="72" y="539"/>
      <point x="62" y="499" type="curve" smooth="yes"/>
      <point x="51" y="457"/>
      <point x="46" y="414"/>
      <point x="46" y="369" type="curve" smooth="yes"/>
      <point x="46" y="323"/>
      <point x="51" y="279"/>
      <point x="61" y="236" type="curve" smooth="yes"/>
      <point x="71" y="192"/>
      <point x="88" y="153"/>
      <point x="112" y="118" type="curve" smooth="yes"/>
      <point x="135" y="84"/>
      <point x="165" y="56"/>
      <point x="202" y="35" type="curve" smooth="yes"/>
      <point x="238" y="13"/>
      <point x="279" y="3"/>
      <point x="325" y="3" type="curve" smooth="yes"/>
      <point x="367" y="3"/>
      <point x="403" y="7"/>
      <point x="435" y="15" type="curve" smooth="yes"/>
      <point x="466" y="23"/>
      <point x="495" y="34"/>
      <point x="523" y="50" type="curve"/>
      <point x="523" y="372" type="line"/>
      <point x="310" y="372" type="line"/>
      <point x="310" y="318" type="line"/>
      <point x="463" y="318" type="line"/>
      <point x="463" y="81" type="line"/>
      <point x="455" y="75"/>
      <point x="439" y="70"/>
      <point x="416" y="64" type="curve" smooth="yes"/>
      <point x="392" y="57"/>
      <point x="368" y="54"/>
      <point x="343" y="54" type="curve" smooth="yes"/>
      <point x="297" y="54"/>
      <point x="258" y="66"/>
      <point x="226" y="90" type="curve" smooth="yes"/>
      <point x="192" y="113"/>
      <point x="168" y="141"/>
      <point x="152" y="173" type="curve" smooth="yes"/>
      <point x="134" y="207"/>
      <point x="123" y="242"/>
      <point x="117" y="278" type="curve" smooth="yes"/>
      <point x="111" y="313"/>
      <point x="108" y="343"/>
      <point x="108" y="369" type="curve" smooth="yes"/>
      <point x="108" y="408"/>
      <point x="113" y="448"/>
      <point x="125" y="488" type="curve" smooth="yes"/>
      <point x="135" y="527"/>
      <point x="151" y="559"/>
      <point x="171" y="585" type="curve" smooth="yes"/>
      <point x="191" y="611"/>
      <point x="214" y="630"/>
      <point x="240" y="643" type="curve" smooth="yes"/>
      <point x="265" y="655"/>
      <point x="292" y="661"/>
      <point x="321" y="661" type="curve" smooth="yes"/>
      <point x="339" y="660"/>
      <point x="356" y="657"/>
      <point x="373" y="651" type="curve" smooth="yes"/>
      <point x="389" y="645"/>
      <point x="404" y="636"/>
      <point x="418" y="625" type="curve" smooth="yes"/>
      <point x="432" y="613"/>
      <point x="443" y="598"/>
      <point x="452" y="580" type="curve" smooth="yes"/>
      <point x="460" y="562"/>
      <point x="464" y="543"/>
      <point x="464" y="523" type="curve"/>
    </contour>
  </outline>
</glyph>
<glyph name="H" format="2">
	<unicode hex="0048"/>
	<advance width="579"/>
	<outline>
		<contour>
			<point x="502" y="14" type="line"/>
			<point x="502" y="699" type="line"/>
			<point x="442" y="699" type="line"/>
			<point x="442" y="397" type="line"/>
			<point x="137" y="397" type="line"/>
			<point x="137" y="699" type="line"/>
			<point x="77" y="699" type="line"/>
			<point x="77" y="14" type="line"/>
			<point x="137" y="14" type="line"/>
			<point x="137" y="344" type="line"/>
			<point x="442" y="344" type="line"/>
			<point x="442" y="14" type="line"/>
		</contour>
	</outline>
</glyph>
<glyph name="I" format="2">
	<unicode hex="0049"/>
	<advance width="222"/>
	<outline>
		<contour>
			<point x="141" y="14" type="line"/>
			<point x="141" y="699" type="line"/>
			<point x="81" y="699" type="line"/>
			<point x="81" y="14" type="line"/>
		</contour>
	</outline>
</glyph>
<glyph name="J" format="2">
	<unicode hex="004A"/>
	<advance width="356"/>
	<outline>
		<contour>
			<point x="266" y="162" type="curve" smooth="yes"/>
			<point x="266" y="699" type="line"/>
			<point x="206" y="699" type="line"/>
			<point x="206" y="169" type="line" smooth="yes"/>
			<point x="206" y="99.3147"/>
			<point x="165.798" y="54.9318"/>
			<point x="102.327" y="54.9318" type="curve" smooth="yes"/>
			<point x="78.1495" y="54.9318"/>
			<point x="32.8564" y="61.5718"/>
			<point x="18" y="69" type="curve"/>
			<point x="18" y="13" type="line"/>
			<point x="36.6823" y="5.99414"/>
			<point x="64.1431" y="3"/>
			<point x="92" y="3" type="curve" smooth="yes"/>
			<point x="201.444" y="3"/>
			<point x="266" y="55.2751"/>
		</contour>
	</outline>
</glyph>
<glyph name="K" format="2">
	<unicode hex="004B"/>
	<advance width="534"/>
	<outline>
		<contour>
			<point x="493" y="14" type="line"/>
			<point x="192" y="378" type="line"/>
			<point x="469" y="699" type="line"/>
			<point x="400" y="699" type="line"/>
			<point x="135" y="392" type="line"/>
			<point x="135" y="699" type="line"/>
			<point x="77" y="699" type="line"/>
			<point x="77" y="14" type="line"/>
			<point x="135" y="14" type="line"/>
			<point x="135" y="350" type="line"/>
			<point x="418" y="14" type="line"/>
		</contour>
	</outline>
</glyph>
<glyph name="L" format="2">
	<unicode hex="004C"/>
	<advance width="463"/>
	<outline>
		<contour>
			<point x="424" y="14" type="line"/>
			<point x="424" y="67" type="line"/>
			<point x="137" y="67" type="line"/>
			<point x="137" y="699" type="line"/>
			<point x="77" y="699" type="line"/>
			<point x="77" y="14" type="line"/>
		</contour>
	</outline>
</glyph>
<glyph name="M" format="2">
	<unicode hex="004D"/>
	<advance width="752"/>
	<outline>
		<contour>
			<point x="654" y="14" type="line"/>
			<point x="654" y="699" type="line"/>
			<point x="563" y="699" type="line"/>
			<point x="366" y="89" type="line"/>
			<point x="167" y="699" type="line"/>
			<point x="77" y="699" type="line"/>
			<point x="77" y="14" type="line"/>
			<point x="131" y="14" type="line"/>
			<point x="131" y="651" type="line"/>
			<point x="340" y="14" type="line"/>
			<point x="390" y="14" type="line"/>
			<point x="600" y="651" type="line"/>
			<point x="600" y="14" type="line"/>
		</contour>
	</outline>
</glyph>
<glyph name="N" format="2">
	<unicode hex="004E"/>
	<advance width="595"/>
	<outline>
		<contour>
			<point x="502" y="14" type="line"/>
			<point x="502" y="699" type="line"/>
			<point x="446" y="699" type="line"/>
			<point x="446" y="77" type="line"/>
			<point x="152" y="699" type="line"/>
			<point x="77" y="699" type="line"/>
			<point x="77" y="14" type="line"/>
			<point x="133" y="14" type="line"/>
			<point x="133" y="631" type="line"/>
			<point x="426" y="14" type="line"/>
		</contour>
	</outline>
</glyph>
<glyph name="O" format="2">
	<unicode hex="004F"/>
	<advance width="652"/>
	<outline>
		<contour>
			<point x="540" y="357" type="curve" smooth="yes"/>
			<point x="540" y="315"/>
			<point x="535" y="275"/>
			<point x="525" y="237" type="curve" smooth="yes"/>
			<point x="515" y="198"/>
			<point x="500" y="165"/>
			<point x="481" y="138" type="curve" smooth="yes"/>
			<point x="461" y="110"/>
			<point x="437" y="89"/>
			<point x="410" y="75" type="curve" smooth="yes"/>
			<point x="382" y="59"/>
			<point x="354" y="52"/>
			<point x="325" y="52" type="curve" smooth="yes"/>
			<point x="295" y="52"/>
			<point x="267" y="59"/>
			<point x="240" y="75" type="curve" smooth="yes"/>
			<point x="212" y="89"/>
			<point x="189" y="110"/>
			<point x="169" y="138" type="curve" smooth="yes"/>
			<point x="149" y="165"/>
			<point x="135" y="198"/>
			<point x="125" y="237" type="curve" smooth="yes"/>
			<point x="115" y="275"/>
			<point x="110" y="315"/>
			<point x="110" y="357" type="curve" smooth="yes"/>
			<point x="110" y="399"/>
			<point x="115" y="439"/>
			<point x="125" y="478" type="curve" smooth="yes"/>
			<point x="135" y="516"/>
			<point x="149" y="548"/>
			<point x="169" y="576" type="curve" smooth="yes"/>
			<point x="189" y="603"/>
			<point x="212" y="624"/>
			<point x="240" y="640" type="curve" smooth="yes"/>
			<point x="267" y="654"/>
			<point x="295" y="662"/>
			<point x="325" y="662" type="curve" smooth="yes"/>
			<point x="354" y="662"/>
			<point x="382" y="654"/>
			<point x="410" y="640" type="curve" smooth="yes"/>
			<point x="437" y="624"/>
			<point x="461" y="603"/>
			<point x="481" y="576" type="curve" smooth="yes"/>
			<point x="500" y="548"/>
			<point x="515" y="516"/>
			<point x="525" y="478" type="curve" smooth="yes"/>
			<point x="535" y="439"/>
			<point x="540" y="399"/>
		</contour>
		<contour>
			<point x="601" y="357" type="curve" smooth="yes"/>
			<point x="601" y="405"/>
			<point x="594" y="452"/>
			<point x="581" y="497" type="curve" smooth="yes"/>
			<point x="567" y="541"/>
			<point x="548" y="579"/>
			<point x="524" y="611" type="curve" smooth="yes"/>
			<point x="498" y="643"/>
			<point x="468" y="667"/>
			<point x="434" y="685" type="curve" smooth="yes"/>
			<point x="399" y="702"/>
			<point x="363" y="711"/>
			<point x="325" y="711" type="curve" smooth="yes"/>
			<point x="287" y="711"/>
			<point x="250" y="702"/>
			<point x="216" y="685" type="curve" smooth="yes"/>
			<point x="181" y="667"/>
			<point x="151" y="643"/>
			<point x="126" y="611" type="curve" smooth="yes"/>
			<point x="101" y="579"/>
			<point x="82" y="541"/>
			<point x="69" y="497" type="curve" smooth="yes"/>
			<point x="55" y="452"/>
			<point x="49" y="405"/>
			<point x="49" y="357" type="curve" smooth="yes"/>
			<point x="49" y="308"/>
			<point x="55" y="262"/>
			<point x="69" y="218" type="curve" smooth="yes"/>
			<point x="82" y="173"/>
			<point x="101" y="135"/>
			<point x="126" y="103" type="curve" smooth="yes"/>
			<point x="151" y="71"/>
			<point x="181" y="46"/>
			<point x="216" y="29" type="curve" smooth="yes"/>
			<point x="250" y="11"/>
			<point x="287" y="3"/>
			<point x="325" y="3" type="curve" smooth="yes"/>
			<point x="363" y="3"/>
			<point x="399" y="11"/>
			<point x="434" y="29" type="curve" smooth="yes"/>
			<point x="468" y="46"/>
			<point x="498" y="71"/>
			<point x="524" y="103" type="curve" smooth="yes"/>
			<point x="548" y="135"/>
			<point x="567" y="173"/>
			<point x="581" y="218" type="curve" smooth="yes"/>
			<point x="594" y="262"/>
			<point x="601" y="308"/>
		</contour>
	</outline>
</glyph>
<glyph name="P" format="2">
	<unicode hex="0050"/>
	<advance width="512"/>
	<outline>
		<contour>
			<point x="470" y="501" type="curve" smooth="yes"/>
			<point x="470" y="538"/>
			<point x="463" y="570"/>
			<point x="450" y="596" type="curve" smooth="yes"/>
			<point x="436" y="622"/>
			<point x="419" y="642"/>
			<point x="398" y="656" type="curve" smooth="yes"/>
			<point x="376" y="670"/>
			<point x="353" y="681"/>
			<point x="327" y="689" type="curve" smooth="yes"/>
			<point x="300" y="695"/>
			<point x="273" y="699"/>
			<point x="246" y="699" type="curve" smooth="yes"/>
			<point x="77" y="699" type="line"/>
			<point x="77" y="14" type="line"/>
			<point x="137" y="14" type="line"/>
			<point x="137" y="303" type="line"/>
			<point x="190" y="303" type="line"/>
			<point x="248" y="303" type="line" smooth="yes"/>
			<point x="274" y="303"/>
			<point x="300" y="306"/>
			<point x="327" y="313" type="curve" smooth="yes"/>
			<point x="353" y="319"/>
			<point x="377" y="330"/>
			<point x="398" y="346" type="curve" smooth="yes"/>
			<point x="419" y="361"/>
			<point x="436" y="382"/>
			<point x="450" y="409" type="curve" smooth="yes"/>
			<point x="463" y="435"/>
			<point x="470" y="466"/>
		</contour>
		<contour>
			<point x="137" y="359" type="line"/>
			<point x="137" y="647" type="line"/>
			<point x="242" y="647" type="line" smooth="yes"/>
			<point x="262" y="647"/>
			<point x="281" y="644"/>
			<point x="301" y="640" type="curve" smooth="yes"/>
			<point x="319" y="634"/>
			<point x="337" y="626"/>
			<point x="354" y="616" type="curve" smooth="yes"/>
			<point x="369" y="605"/>
			<point x="382" y="591"/>
			<point x="394" y="573" type="curve" smooth="yes"/>
			<point x="404" y="554"/>
			<point x="410" y="530"/>
			<point x="410" y="501" type="curve" smooth="yes"/>
			<point x="410" y="477"/>
			<point x="404" y="455"/>
			<point x="394" y="436" type="curve" smooth="yes"/>
			<point x="383" y="416"/>
			<point x="370" y="400"/>
			<point x="355" y="389" type="curve" smooth="yes"/>
			<point x="339" y="377"/>
			<point x="322" y="370"/>
			<point x="303" y="366" type="curve" smooth="yes"/>
			<point x="283" y="361"/>
			<point x="265" y="359"/>
			<point x="247" y="359" type="curve" smooth="yes"/>
			<point x="190" y="359" type="line"/>
		</contour>
	</outline>
</glyph>
<glyph name="Q" format="2">
	<unicode hex="0051"/>
	<advance width="670"/>
	<outline>
		<contour>
			<point x="478" y="54" type="line"/>
			<point x="555.243" y="111.932"/>
			<point x="601" y="222.525"/>
			<point x="601" y="357" type="curve" smooth="yes"/>
			<point x="601" y="546.728"/>
			<point x="511.899" y="712"/>
			<point x="325" y="712" type="curve" smooth="yes"/>
			<point x="136.791" y="712"/>
			<point x="49" y="545.798"/>
			<point x="49" y="357" type="curve" smooth="yes"/>
			<point x="49" y="167.485"/>
			<point x="137.92" y="3"/>
			<point x="325" y="3" type="curve" smooth="yes"/>
			<point x="350" y="3"/>
			<point x="375" y="6"/>
			<point x="399" y="14" type="curve"/>
			<point x="645" y="14" type="line"/>
			<point x="645" y="63" type="line"/>
			<point x="620" y="57"/>
			<point x="586" y="54"/>
			<point x="544" y="54" type="curve" smooth="yes"/>
		</contour>
		<contour>
			<point x="540" y="357" type="curve" smooth="yes"/>
			<point x="540" y="227.62"/>
			<point x="494.33" y="117.727"/>
			<point x="410" y="74" type="curve" smooth="yes"/>
			<point x="382" y="59"/>
			<point x="354" y="52"/>
			<point x="325" y="52" type="curve" smooth="yes"/>
			<point x="174.795" y="52"/>
			<point x="110" y="203.357"/>
			<point x="110" y="357" type="curve" smooth="yes"/>
			<point x="110" y="509.707"/>
			<point x="174.328" y="663"/>
			<point x="325" y="663" type="curve" smooth="yes"/>
			<point x="474.937" y="663"/>
			<point x="540" y="510.664"/>
		</contour>
	</outline>
</glyph>
<glyph name="R" format="2">
	<unicode hex="0052"/>
	<advance width="522"/>
	<outline>
		<contour>
			<point x="470" y="507" type="curve" smooth="yes"/>
			<point x="470" y="544"/>
			<point x="463" y="574"/>
			<point x="450" y="598" type="curve" smooth="yes"/>
			<point x="436" y="621"/>
			<point x="419" y="640"/>
			<point x="397" y="656" type="curve" smooth="yes"/>
			<point x="377" y="670"/>
			<point x="353" y="681"/>
			<point x="327" y="689" type="curve" smooth="yes"/>
			<point x="300" y="695"/>
			<point x="273" y="699"/>
			<point x="246" y="699" type="curve" smooth="yes"/>
			<point x="77" y="699" type="line"/>
			<point x="77" y="14" type="line"/>
			<point x="137" y="14" type="line"/>
			<point x="137" y="313" type="line"/>
			<point x="190" y="313" type="line"/>
			<point x="251" y="313" type="line" smooth="yes"/>
			<point x="287" y="313"/>
			<point x="321" y="289"/>
			<point x="355" y="242" type="curve" smooth="yes"/>
			<point x="383" y="201"/>
			<point x="405" y="125"/>
			<point x="421" y="14" type="curve"/>
			<point x="484" y="14" type="line"/>
			<point x="471" y="87"/>
			<point x="454" y="155"/>
			<point x="432" y="218" type="curve" smooth="yes"/>
			<point x="412" y="273"/>
			<point x="377" y="313"/>
			<point x="326" y="337" type="curve"/>
			<point x="357" y="345"/>
			<point x="382" y="356"/>
			<point x="400" y="369" type="curve" smooth="yes"/>
			<point x="419" y="382"/>
			<point x="436" y="401"/>
			<point x="450" y="425" type="curve" smooth="yes"/>
			<point x="463" y="449"/>
			<point x="470" y="476"/>
		</contour>
		<contour>
			<point x="137" y="369" type="line"/>
			<point x="137" y="647" type="line"/>
			<point x="242" y="647" type="line" smooth="yes"/>
			<point x="262" y="647"/>
			<point x="281" y="644"/>
			<point x="301" y="640" type="curve" smooth="yes"/>
			<point x="319" y="634"/>
			<point x="337" y="627"/>
			<point x="354" y="617" type="curve" smooth="yes"/>
			<point x="370" y="606"/>
			<point x="383" y="591"/>
			<point x="394" y="573" type="curve" smooth="yes"/>
			<point x="404" y="554"/>
			<point x="410" y="532"/>
			<point x="410" y="507" type="curve" smooth="yes"/>
			<point x="410" y="483"/>
			<point x="404" y="462"/>
			<point x="394" y="443" type="curve" smooth="yes"/>
			<point x="383" y="423"/>
			<point x="370" y="408"/>
			<point x="355" y="398" type="curve" smooth="yes"/>
			<point x="339" y="388"/>
			<point x="321" y="380"/>
			<point x="303" y="376" type="curve" smooth="yes"/>
			<point x="283" y="371"/>
			<point x="265" y="369"/>
			<point x="247" y="369" type="curve" smooth="yes"/>
			<point x="190" y="369" type="line"/>
		</contour>
	</outline>
</glyph>
<glyph name="S" format="2">
	<unicode hex="0053"/>
	<advance width="467"/>
	<outline>
		<contour>
			<point x="426" y="195" type="curve" smooth="yes"/>
			<point x="426" y="240"/>
			<point x="409" y="279"/>
			<point x="376" y="313" type="curve" smooth="yes"/>
			<point x="361" y="327"/>
			<point x="343" y="342"/>
			<point x="321" y="358" type="curve" smooth="yes"/>
			<point x="298" y="373"/>
			<point x="264" y="393"/>
			<point x="218" y="417" type="curve" smooth="yes"/>
			<point x="204" y="425"/>
			<point x="191" y="433"/>
			<point x="179" y="442" type="curve" smooth="yes"/>
			<point x="165" y="450"/>
			<point x="153" y="460"/>
			<point x="143" y="470" type="curve" smooth="yes"/>
			<point x="133" y="480"/>
			<point x="125" y="491"/>
			<point x="118" y="504" type="curve" smooth="yes"/>
			<point x="110" y="516"/>
			<point x="106" y="529"/>
			<point x="106" y="545" type="curve" smooth="yes"/>
			<point x="106" y="583"/>
			<point x="118" y="612"/>
			<point x="143" y="633" type="curve" smooth="yes"/>
			<point x="167" y="653"/>
			<point x="197" y="663"/>
			<point x="231" y="663" type="curve" smooth="yes"/>
			<point x="263" y="663"/>
			<point x="296" y="657"/>
			<point x="330" y="647" type="curve" smooth="yes"/>
			<point x="363" y="636"/>
			<point x="381" y="630"/>
			<point x="385" y="629" type="curve"/>
			<point x="385" y="683" type="line"/>
			<point x="371" y="687"/>
			<point x="351" y="693"/>
			<point x="327" y="699" type="curve" smooth="yes"/>
			<point x="313" y="702"/>
			<point x="299" y="705"/>
			<point x="285" y="708" type="curve" smooth="yes"/>
			<point x="269" y="710"/>
			<point x="254" y="712"/>
			<point x="240" y="712" type="curve" smooth="yes"/>
			<point x="182" y="712"/>
			<point x="136" y="698"/>
			<point x="100" y="671" type="curve" smooth="yes"/>
			<point x="64" y="643"/>
			<point x="46" y="599"/>
			<point x="46" y="539" type="curve" smooth="yes"/>
			<point x="46" y="513"/>
			<point x="52" y="490"/>
			<point x="64" y="470" type="curve" smooth="yes"/>
			<point x="75" y="450"/>
			<point x="90" y="432"/>
			<point x="110" y="416" type="curve" smooth="yes"/>
			<point x="130" y="400"/>
			<point x="151" y="385"/>
			<point x="174" y="373" type="curve" smooth="yes"/>
			<point x="196" y="360"/>
			<point x="216" y="348"/>
			<point x="236" y="338" type="curve" smooth="yes"/>
			<point x="264" y="324"/>
			<point x="290" y="305"/>
			<point x="316" y="283" type="curve" smooth="yes"/>
			<point x="348" y="254"/>
			<point x="364" y="221"/>
			<point x="364" y="183" type="curve" smooth="yes"/>
			<point x="364" y="159"/>
			<point x="358" y="138"/>
			<point x="348" y="122" type="curve" smooth="yes"/>
			<point x="337" y="104"/>
			<point x="324" y="91"/>
			<point x="310" y="82" type="curve" smooth="yes"/>
			<point x="295" y="72"/>
			<point x="279" y="66"/>
			<point x="262" y="62" type="curve" smooth="yes"/>
			<point x="244" y="57"/>
			<point x="226" y="55"/>
			<point x="207" y="55" type="curve" smooth="yes"/>
			<point x="189" y="55"/>
			<point x="171" y="57"/>
			<point x="153" y="61" type="curve" smooth="yes"/>
			<point x="135" y="65"/>
			<point x="118" y="69"/>
			<point x="104" y="74" type="curve" smooth="yes"/>
			<point x="78" y="82"/>
			<point x="60" y="89"/>
			<point x="52" y="93" type="curve"/>
			<point x="52" y="30" type="line"/>
			<point x="66" y="25"/>
			<point x="88" y="19"/>
			<point x="117" y="13" type="curve" smooth="yes"/>
			<point x="145" y="6"/>
			<point x="172" y="3"/>
			<point x="199" y="3" type="curve" smooth="yes"/>
			<point x="269" y="3"/>
			<point x="324" y="18"/>
			<point x="365" y="50" type="curve" smooth="yes"/>
			<point x="405" y="81"/>
			<point x="426" y="129"/>
		</contour>
	</outline>
</glyph>
<glyph name="U" format="2">
	<unicode hex="0055"/>
	<advance width="591"/>
	<outline>
		<contour>
			<point x="295" y="56" type="curve" smooth="yes"/>
			<point x="265" y="56"/>
			<point x="240" y="62"/>
			<point x="219" y="75" type="curve" smooth="yes"/>
			<point x="197" y="87"/>
			<point x="180" y="103"/>
			<point x="169" y="124" type="curve" smooth="yes"/>
			<point x="157" y="145"/>
			<point x="148" y="168"/>
			<point x="144" y="194" type="curve" smooth="yes"/>
			<point x="139" y="218"/>
			<point x="137" y="244"/>
			<point x="137" y="270" type="curve" smooth="yes"/>
			<point x="137" y="699" type="line"/>
			<point x="77" y="699" type="line"/>
			<point x="77" y="268" type="line" smooth="yes"/>
			<point x="77" y="239"/>
			<point x="79" y="209"/>
			<point x="85" y="178" type="curve" smooth="yes"/>
			<point x="90" y="146"/>
			<point x="101" y="117"/>
			<point x="117" y="91" type="curve" smooth="yes"/>
			<point x="133" y="65"/>
			<point x="155" y="44"/>
			<point x="184" y="28" type="curve" smooth="yes"/>
			<point x="212" y="11"/>
			<point x="249" y="3"/>
			<point x="295" y="3" type="curve" smooth="yes"/>
			<point x="340" y="3"/>
			<point x="377" y="11"/>
			<point x="406" y="28" type="curve" smooth="yes"/>
			<point x="434" y="44"/>
			<point x="457" y="65"/>
			<point x="473" y="91" type="curve" smooth="yes"/>
			<point x="489" y="117"/>
			<point x="500" y="146"/>
			<point x="506" y="178" type="curve" smooth="yes"/>
			<point x="511" y="209"/>
			<point x="514" y="239"/>
			<point x="514" y="268" type="curve" smooth="yes"/>
			<point x="514" y="699" type="line"/>
			<point x="454" y="699" type="line"/>
			<point x="454" y="270" type="line" smooth="yes"/>
			<point x="454" y="244"/>
			<point x="451" y="218"/>
			<point x="447" y="194" type="curve" smooth="yes"/>
			<point x="441" y="168"/>
			<point x="433" y="145"/>
			<point x="421" y="124" type="curve" smooth="yes"/>
			<point x="409" y="103"/>
			<point x="393" y="86"/>
			<point x="371" y="74" type="curve" smooth="yes"/>
			<point x="349" y="60"/>
			<point x="323" y="54"/>
		</contour>
	</outline>
</glyph>
<glyph name="V" format="2">
	<unicode hex="0056"/>
	<advance width="581"/>
	<outline>
		<contour>
			<point x="532" y="699" type="line"/>
			<point x="471" y="699" type="line"/>
			<point x="283" y="72" type="line"/>
			<point x="92" y="699" type="line"/>
			<point x="33" y="699" type="line"/>
			<point x="246" y="14" type="line"/>
			<point x="318" y="14" type="line"/>
		</contour>
	</outline>
</glyph>
<glyph name="W" format="2">
  <advance width="767"/>
  <unicode hex="0057"/>
  <outline>
    <contour>
      <point x="730" y="699" type="line"/>
      <point x="676" y="699" type="line"/>
      <point x="569" y="72" type="line"/>
      <point x="416" y="699" type="line"/>
      <point x="351" y="699" type="line"/>
      <point x="198" y="72" type="line"/>
      <point x="91" y="699" type="line"/>
      <point x="37" y="699" type="line"/>
      <point x="159" y="14" type="line"/>
      <point x="233" y="14" type="line"/>
      <point x="384" y="634" type="line"/>
      <point x="534" y="14" type="line"/>
      <point x="608" y="14" type="line"/>
    </contour>
  </outline>
</glyph>
<glyph name="X" format="2">
  <advance width="540"/>
  <unicode hex="0058"/>
  <outline>
    <contour>
      <point x="493" y="14" type="line"/>
      <point x="292" y="373" type="line"/>
      <point x="473" y="699" type="line"/>
      <point x="409" y="699" type="line"/>
      <point x="260" y="431" type="line"/>
      <point x="110" y="699" type="line"/>
      <point x="46" y="699" type="line"/>
      <point x="228" y="373" type="line"/>
      <point x="29" y="14" type="line"/>
      <point x="90" y="14" type="line"/>
      <point x="259" y="316" type="line"/>
      <point x="429" y="14" type="line"/>
    </contour>
  </outline>
</glyph>
<glyph name="Z" format="2">
	<unicode hex="005A"/>
	<advance width="500"/>
	<outline>
		<contour>
			<point x="469" y="14" type="line"/>
			<point x="469" y="67" type="line"/>
			<point x="104" y="67" type="line"/>
			<point x="448" y="638" type="line"/>
			<point x="448" y="699" type="line"/>
			<point x="57" y="699" type="line"/>
			<point x="57" y="646" type="line"/>
			<point x="385" y="646" type="line"/>
			<point x="42" y="74" type="line"/>
			<point x="42" y="14" type="line"/>
		</contour>
	</outline>
</glyph>
<glyph name="bracketleft" format="2">
  <advance width="318"/>
  <unicode hex="005B"/>
  <outline>
    <contour>
      <point x="273" y="-125" type="line"/>
      <point x="273" y="-81" type="line"/>
      <point x="176" y="-81" type="line"/>
      <point x="176" y="740" type="line"/>
      <point x="273" y="740" type="line"/>
      <point x="273" y="784" type="line"/>
      <point x="119" y="784" type="line"/>
      <point x="119" y="-125" type="line"/>
    </contour>
  </outline>
</glyph>
<glyph name="backslash" format="2">
	<unicode hex="005C"/>
	<advance width="353"/>
	<outline>
		<contour>
			<point x="38" y="784" type="line"/>
			<point x="252" y="-125" type="line"/>
			<point x="306" y="-125" type="line"/>
			<point x="93" y="784" type="line"/>
		</contour>
	</outline>
</glyph>
<glyph name="bracketright" format="2">
	<unicode hex="005D"/>
	<advance width="318"/>
	<outline>
		<contour>
			<point x="200" y="-125" type="line"/>
			<point x="200" y="784" type="line"/>
			<point x="45" y="784" type="line"/>
			<point x="45" y="740" type="line"/>
			<point x="142" y="740" type="line"/>
			<point x="142" y="-81" type="line"/>
			<point x="45" y="-81" type="line"/>
			<point x="45" y="-125" type="line"/>
		</contour>
	</outline>
</glyph>
<glyph name="asciicircum" format="2">
  <advance width="423"/>
  <unicode hex="005E"/>
  <outline>
    <contour>
      <point x="187" y="728" type="line"/>
      <point x="60" y="506" type="line"/>
      <point x="113" y="506" type="line"/>
      <point x="213" y="683" type="line"/>
      <point x="310" y="506" type="line"/>
      <point x="364" y="506" type="line"/>
      <point x="239" y="728" type="line"/>
    </contour>
  </outline>
</glyph>
<glyph name="underscore" format="2">
  <advance width="450"/>
  <unicode hex="005F"/>
  <outline>
    <contour>
      <point x="441" y="-101" type="line"/>
      <point x="441" y="-65" type="line"/>
      <point x="10" y="-65" type="line"/>
      <point x="10" y="-101" type="line"/>
    </contour>
  </outline>
</glyph>
<glyph name="grave" format="2">
	<unicode hex="0060"/>
	<advance width="281"/>
	<outline>
		<contour>
			<point x="184" y="551" type="line"/>
			<point x="133" y="705" type="line"/>
			<point x="66" y="705" type="line"/>
			<point x="137" y="551" type="line"/>
		</contour>
	</outline>
</glyph>
<glyph name="a" format="2">
  <advance width="472"/>
  <unicode hex="0061"/>
  <outline>
    <contour>
      <point x="401" y="14" type="line"/>
      <point x="401" y="343" type="line" smooth="yes"/>
      <point x="401" y="388"/>
      <point x="387" y="426"/>
      <point x="359" y="457" type="curve" smooth="yes"/>
      <point x="330" y="487"/>
      <point x="287" y="502"/>
      <point x="231" y="502" type="curve" smooth="yes"/>
      <point x="203" y="502"/>
      <point x="177" y="498"/>
      <point x="155" y="490" type="curve" smooth="yes"/>
      <point x="131" y="481"/>
      <point x="113" y="470"/>
      <point x="99" y="458" type="curve" smooth="yes"/>
      <point x="85" y="445"/>
      <point x="75" y="431"/>
      <point x="69" y="416" type="curve" smooth="yes"/>
      <point x="62" y="400"/>
      <point x="59" y="387"/>
      <point x="59" y="377" type="curve"/>
      <point x="127" y="377" type="line"/>
      <point x="127" y="398"/>
      <point x="137" y="417"/>
      <point x="158" y="433" type="curve" smooth="yes"/>
      <point x="178" y="449"/>
      <point x="203" y="457"/>
      <point x="231" y="457" type="curve" smooth="yes"/>
      <point x="253" y="457"/>
      <point x="272" y="452"/>
      <point x="288" y="444" type="curve" smooth="yes"/>
      <point x="304" y="435"/>
      <point x="316" y="424"/>
      <point x="324" y="412" type="curve" smooth="yes"/>
      <point x="332" y="400"/>
      <point x="337" y="387"/>
      <point x="340" y="374" type="curve" smooth="yes"/>
      <point x="342" y="360"/>
      <point x="343" y="348"/>
      <point x="343" y="339" type="curve" smooth="yes"/>
      <point x="343" y="286" type="line"/>
      <point x="259" y="286" type="line" smooth="yes"/>
      <point x="241" y="286"/>
      <point x="222" y="284"/>
      <point x="202" y="281" type="curve" smooth="yes"/>
      <point x="180" y="277"/>
      <point x="161" y="273"/>
      <point x="143" y="267" type="curve" smooth="yes"/>
      <point x="116" y="257"/>
      <point x="93" y="239"/>
      <point x="75" y="214" type="curve" smooth="yes"/>
      <point x="56" y="188"/>
      <point x="47" y="158"/>
      <point x="47" y="124" type="curve" smooth="yes"/>
      <point x="47" y="105"/>
      <point x="50" y="88"/>
      <point x="57" y="74" type="curve" smooth="yes"/>
      <point x="63" y="58"/>
      <point x="71" y="45"/>
      <point x="82" y="35" type="curve" smooth="yes"/>
      <point x="92" y="25"/>
      <point x="105" y="17"/>
      <point x="121" y="12" type="curve" smooth="yes"/>
      <point x="135" y="6"/>
      <point x="149" y="3"/>
      <point x="162" y="3" type="curve" smooth="yes"/>
      <point x="186" y="3"/>
      <point x="207" y="5"/>
      <point x="226" y="10" type="curve" smooth="yes"/>
      <point x="244" y="14"/>
      <point x="261" y="21"/>
      <point x="276" y="30" type="curve" smooth="yes"/>
      <point x="301" y="44"/>
      <point x="323" y="64"/>
      <point x="343" y="90" type="curve"/>
      <point x="343" y="14" type="line"/>
    </contour>
    <contour>
      <point x="343" y="193" type="line" smooth="yes"/>
      <point x="343" y="168"/>
      <point x="339" y="149"/>
      <point x="332" y="135" type="curve" smooth="yes"/>
      <point x="318" y="109"/>
      <point x="299" y="88"/>
      <point x="273" y="72" type="curve" smooth="yes"/>
      <point x="260" y="64"/>
      <point x="246" y="59"/>
      <point x="231" y="55" type="curve" smooth="yes"/>
      <point x="215" y="50"/>
      <point x="202" y="48"/>
      <point x="193" y="48" type="curve" smooth="yes"/>
      <point x="169" y="48"/>
      <point x="148" y="55"/>
      <point x="132" y="69" type="curve" smooth="yes"/>
      <point x="115" y="82"/>
      <point x="107" y="104"/>
      <point x="107" y="134" type="curve" smooth="yes"/>
      <point x="107" y="163"/>
      <point x="119" y="188"/>
      <point x="144" y="208" type="curve" smooth="yes"/>
      <point x="165" y="224"/>
      <point x="189" y="234"/>
      <point x="215" y="238" type="curve" smooth="yes"/>
      <point x="242" y="242"/>
      <point x="265" y="245"/>
      <point x="285" y="246" type="curve" smooth="yes"/>
      <point x="303" y="246"/>
      <point x="323" y="246"/>
      <point x="343" y="246" type="curve"/>
    </contour>
  </outline>
</glyph>
<glyph name="b" format="2">
	<unicode hex="0062"/>
	<advance width="500"/>
	<outline>
		<contour>
			<point x="393" y="252" type="curve" smooth="yes"/>
			<point x="393" y="151.692"/>
			<point x="357.26" y="48"/>
			<point x="261" y="48" type="curve" smooth="yes"/>
			<point x="165.221" y="48"/>
			<point x="130" y="152.739"/>
			<point x="130" y="252" type="curve" smooth="yes"/>
			<point x="130" y="345.019"/>
			<point x="170.16" y="456"/>
			<point x="261" y="456" type="curve" smooth="yes"/>
			<point x="356.607" y="456"/>
			<point x="393" y="350.639"/>
		</contour>
		<contour>
			<point x="267" y="502" type="curve" smooth="yes"/>
			<point x="206" y="502"/>
			<point x="160" y="473"/>
			<point x="129" y="415" type="curve"/>
			<point x="129" y="699" type="line"/>
			<point x="72" y="699" type="line"/>
			<point x="72" y="257" type="line" smooth="yes"/>
			<point x="72" y="113.273"/>
			<point x="120.35" y="3"/>
			<point x="262" y="3" type="curve" smooth="yes"/>
			<point x="403.202" y="3"/>
			<point x="453" y="111.615"/>
			<point x="453" y="257" type="curve" smooth="yes"/>
			<point x="453" y="389.221"/>
			<point x="398.599" y="502"/>
		</contour>
	</outline>
</glyph>
<glyph name="c" format="2">
	<unicode hex="0063"/>
	<advance width="490"/>
	<outline>
		<contour>
			<point x="421" y="352" type="line"/>
			<point x="412.949" y="440.556"/>
			<point x="352.068" y="502"/>
			<point x="252" y="502" type="curve" smooth="yes"/>
			<point x="113.405" y="502"/>
			<point x="47" y="399.807"/>
			<point x="47" y="263" type="curve" smooth="yes"/>
			<point x="47" y="107.401"/>
			<point x="125.091" y="1.6"/>
			<point x="278.8" y="1.6" type="curve"/>
			<point x="331.63" y="7.06517"/>
			<point x="370.064" y="12.5174"/>
			<point x="407" y="35" type="curve"/>
			<point x="407" y="77" type="line"/>
			<point x="380.062" y="61.1539"/>
			<point x="328.756" y="49"/>
			<point x="291" y="49" type="curve" smooth="yes"/>
			<point x="166.139" y="49"/>
			<point x="109" y="139.853"/>
			<point x="109" y="262" type="curve" smooth="yes"/>
			<point x="109" y="364.469"/>
			<point x="154.882" y="457"/>
			<point x="250" y="457" type="curve" smooth="yes"/>
			<point x="313" y="457"/>
			<point x="349" y="422"/>
			<point x="358" y="352" type="curve"/>
		</contour>
	</outline>
</glyph>
<glyph name="d" format="2">
	<unicode hex="0064"/>
	<advance width="520"/>
	<outline>
		<contour>
			<point x="47" y="257" type="curve" smooth="yes"/>
			<point x="47" y="122.743"/>
			<point x="98.7319" y="3"/>
			<point x="229" y="3" type="curve" smooth="yes"/>
			<point x="298.278" y="3"/>
			<point x="349.313" y="42.2792"/>
			<point x="371" y="99" type="curve"/>
			<point x="371" y="14" type="line"/>
			<point x="428" y="14" type="line"/>
			<point x="428" y="699" type="line"/>
			<point x="371" y="699" type="line"/>
			<point x="371" y="415" type="line"/>
			<point x="339" y="473"/>
			<point x="293" y="502"/>
			<point x="233" y="502" type="curve" smooth="yes"/>
			<point x="104.78" y="502"/>
			<point x="47" y="385.291"/>
		</contour>
		<contour>
			<point x="369" y="252" type="curve" smooth="yes"/>
			<point x="369" y="158.071"/>
			<point x="328.766" y="48"/>
			<point x="238" y="48" type="curve" smooth="yes"/>
			<point x="147.452" y="48"/>
			<point x="107" y="157.17"/>
			<point x="107" y="252" type="curve" smooth="yes"/>
			<point x="107" y="345.58"/>
			<point x="147.452" y="456"/>
			<point x="238" y="456" type="curve" smooth="yes"/>
			<point x="328.746" y="456"/>
			<point x="369" y="344.554"/>
		</contour>
	</outline>
</glyph>
<glyph name="e" format="2">
	<unicode hex="0065"/>
	<advance width="472"/>
	<outline>
		<contour>
			<point x="421" y="352" type="curve"/>
			<point x="421" y="307" type="line"/>
			<point x="112" y="307" type="line"/>
			<point x="109.523" y="289.292"/>
			<point x="108.289" y="272.012"/>
			<point x="108.289" y="255.328" type="curve" smooth="yes"/>
			<point x="108.289" y="137.281"/>
			<point x="170.089" y="49"/>
			<point x="291" y="49" type="curve" smooth="yes"/>
			<point x="329" y="49"/>
			<point x="380" y="61"/>
			<point x="407" y="77" type="curve"/>
			<point x="407" y="35" type="line"/>
			<point x="370" y="13"/>
			<point x="332" y="7"/>
			<point x="279" y="2" type="curve"/>
			<point x="125" y="2"/>
			<point x="47" y="108"/>
			<point x="47" y="263" type="curve" smooth="yes"/>
			<point x="47" y="400"/>
			<point x="114" y="502"/>
			<point x="252" y="502" type="curve" smooth="yes"/>
			<point x="352" y="502"/>
			<point x="413" y="441"/>
		</contour>
		<contour>
			<point x="122" y="352" type="curve"/>
			<point x="358" y="352" type="line"/>
			<point x="349" y="422"/>
			<point x="313" y="457"/>
			<point x="250" y="457" type="curve" smooth="yes"/>
			<point x="187" y="457"/>
			<point x="139" y="409"/>
		</contour>
	</outline>
</glyph>
<glyph name="f" format="2">
	<unicode hex="0066"/>
	<advance width="350"/>
	<outline>
		<contour>
			<point x="338" y="656" type="curve"/>
			<point x="338" y="702" type="line"/>
			<point x="319.741" y="705.043"/>
			<point x="283.478" y="712"/>
			<point x="259" y="712" type="curve" smooth="yes"/>
			<point x="139.12" y="708.67"/>
			<point x="114" y="641.271"/>
			<point x="114" y="522" type="curve" smooth="yes"/>
			<point x="114" y="490" type="line"/>
			<point x="34" y="490" type="line"/>
			<point x="34" y="445" type="line"/>
			<point x="114" y="445" type="line"/>
			<point x="114" y="14" type="line"/>
			<point x="174" y="14" type="line"/>
			<point x="174" y="445" type="line"/>
			<point x="305" y="445" type="line"/>
			<point x="305" y="490" type="line"/>
			<point x="174" y="490" type="line"/>
			<point x="174" y="545" type="line" smooth="yes"/>
			<point x="174" y="616.613"/>
			<point x="191.198" y="667"/>
			<point x="262" y="667" type="curve" smooth="yes"/>
			<point x="287.298" y="667"/>
			<point x="321.349" y="661.55"/>
		</contour>
	</outline>
</glyph>
<glyph name="g" format="2">
	<unicode hex="0067"/>
	<advance width="500"/>
	<outline>
		<contour>
			<point x="428" y="51" type="curve"/>
			<point x="371" y="51" type="line"/>
			<point x="371" y="43"/>
			<point x="370" y="30"/>
			<point x="369" y="14" type="curve" smooth="yes"/>
			<point x="366" y="-22"/>
			<point x="352" y="-51"/>
			<point x="327" y="-74" type="curve" smooth="yes"/>
			<point x="301" y="-96"/>
			<point x="267" y="-107"/>
			<point x="224" y="-107" type="curve" smooth="yes"/>
			<point x="197" y="-107"/>
			<point x="170" y="-104"/>
			<point x="142" y="-98" type="curve" smooth="yes"/>
			<point x="113" y="-92"/>
			<point x="93" y="-85"/>
			<point x="81" y="-78" type="curve"/>
			<point x="81" y="-137" type="line"/>
			<point x="91" y="-142"/>
			<point x="111" y="-147"/>
			<point x="140" y="-152" type="curve" smooth="yes"/>
			<point x="168" y="-156"/>
			<point x="192" y="-158"/>
			<point x="214" y="-158" type="curve" smooth="yes"/>
			<point x="282" y="-158"/>
			<point x="334" y="-140"/>
			<point x="372" y="-106" type="curve" smooth="yes"/>
			<point x="409" y="-71"/>
			<point x="428" y="-19"/>
		</contour>
		<contour>
			<point x="46" y="267" type="curve" smooth="yes"/>
			<point x="46" y="225"/>
			<point x="51" y="190"/>
			<point x="61" y="162" type="curve" smooth="yes"/>
			<point x="70" y="133"/>
			<point x="82" y="108"/>
			<point x="98" y="88" type="curve" smooth="yes"/>
			<point x="113" y="66"/>
			<point x="132" y="50"/>
			<point x="156" y="40" type="curve" smooth="yes"/>
			<point x="179" y="28"/>
			<point x="203" y="23"/>
			<point x="228" y="23" type="curve" smooth="yes"/>
			<point x="260" y="23"/>
			<point x="288" y="31"/>
			<point x="314" y="49" type="curve" smooth="yes"/>
			<point x="339" y="65"/>
			<point x="358" y="90"/>
			<point x="371" y="124" type="curve"/>
			<point x="371" y="48" type="line"/>
			<point x="428" y="48" type="line"/>
			<point x="428" y="490" type="line"/>
			<point x="371" y="490" type="line"/>
			<point x="371" y="413" type="line"/>
			<point x="338" y="472"/>
			<point x="292" y="502"/>
			<point x="232" y="502" type="curve" smooth="yes"/>
			<point x="202" y="502"/>
			<point x="176" y="495"/>
			<point x="152" y="482" type="curve" smooth="yes"/>
			<point x="127" y="468"/>
			<point x="107" y="449"/>
			<point x="92" y="427" type="curve" smooth="yes"/>
			<point x="77" y="405"/>
			<point x="66" y="381"/>
			<point x="58" y="355" type="curve" smooth="yes"/>
			<point x="50" y="328"/>
			<point x="46" y="299"/>
		</contour>
		<contour>
			<point x="370" y="262" type="curve" smooth="yes"/>
			<point x="370" y="235"/>
			<point x="366" y="210"/>
			<point x="360" y="187" type="curve" smooth="yes"/>
			<point x="352" y="163"/>
			<point x="343" y="143"/>
			<point x="331" y="125" type="curve" smooth="yes"/>
			<point x="319" y="107"/>
			<point x="305" y="94"/>
			<point x="289" y="84" type="curve" smooth="yes"/>
			<point x="273" y="73"/>
			<point x="256" y="68"/>
			<point x="238" y="68" type="curve" smooth="yes"/>
			<point x="220" y="68"/>
			<point x="203" y="73"/>
			<point x="187" y="84" type="curve" smooth="yes"/>
			<point x="171" y="94"/>
			<point x="157" y="107"/>
			<point x="145" y="125" type="curve" smooth="yes"/>
			<point x="133" y="143"/>
			<point x="123" y="163"/>
			<point x="117" y="187" type="curve" smooth="yes"/>
			<point x="109" y="210"/>
			<point x="106" y="235"/>
			<point x="106" y="262" type="curve" smooth="yes"/>
			<point x="106" y="288"/>
			<point x="109" y="313"/>
			<point x="117" y="337" type="curve" smooth="yes"/>
			<point x="123" y="360"/>
			<point x="133" y="381"/>
			<point x="145" y="399" type="curve" smooth="yes"/>
			<point x="157" y="416"/>
			<point x="171" y="430"/>
			<point x="187" y="441" type="curve" smooth="yes"/>
			<point x="203" y="451"/>
			<point x="220" y="456"/>
			<point x="238" y="456" type="curve" smooth="yes"/>
			<point x="256" y="456"/>
			<point x="273" y="451"/>
			<point x="289" y="441" type="curve" smooth="yes"/>
			<point x="305" y="430"/>
			<point x="319" y="416"/>
			<point x="331" y="399" type="curve" smooth="yes"/>
			<point x="343" y="381"/>
			<point x="352" y="360"/>
			<point x="360" y="337" type="curve" smooth="yes"/>
			<point x="366" y="313"/>
			<point x="370" y="288"/>
		</contour>
	</outline>
</glyph>
<glyph name="h" format="2">
	<unicode hex="0068"/>
	<advance width="500"/>
	<outline>
		<contour>
			<point x="428" y="14" type="line"/>
			<point x="428" y="336" type="line" smooth="yes"/>
			<point x="428" y="441.136"/>
			<point x="376.959" y="502"/>
			<point x="274" y="502" type="curve" smooth="yes"/>
			<point x="198.417" y="502"/>
			<point x="151.026" y="447.996"/>
			<point x="129" y="387" type="curve"/>
			<point x="129" y="699" type="line"/>
			<point x="72" y="699" type="line"/>
			<point x="72" y="14" type="line"/>
			<point x="129" y="14" type="line"/>
			<point x="129" y="223" type="line" smooth="yes"/>
			<point x="129" y="328.897"/>
			<point x="170.19" y="452"/>
			<point x="268" y="452" type="curve" smooth="yes"/>
			<point x="339.821" y="452"/>
			<point x="370" y="397.41"/>
			<point x="370" y="328" type="curve" smooth="yes"/>
			<point x="370" y="14" type="line"/>
		</contour>
	</outline>
</glyph>
<glyph name="i" format="2">
	<unicode hex="0069"/>
	<advance width="217"/>
	<outline>
		<contour>
			<point x="142" y="617" type="line"/>
			<point x="142" y="699" type="line"/>
			<point x="68" y="699" type="line"/>
			<point x="68" y="617" type="line"/>
		</contour>
		<contour>
			<point x="136" y="14" type="line"/>
			<point x="136" y="490" type="line"/>
			<point x="76" y="490" type="line"/>
			<point x="76" y="14" type="line"/>
		</contour>
	</outline>
</glyph>
<glyph name="j" format="2">
	<unicode hex="006A"/>
	<advance width="238"/>
	<outline>
		<contour>
			<point x="174" y="617" type="line"/>
			<point x="174" y="699" type="line"/>
			<point x="100" y="699" type="line"/>
			<point x="100" y="617" type="line"/>
		</contour>
		<contour>
			<point x="166" y="17" type="curve" smooth="yes"/>
			<point x="166" y="490" type="line"/>
			<point x="108" y="490" type="line"/>
			<point x="108" y="-11" type="line" smooth="yes"/>
			<point x="108" y="-69.9571"/>
			<point x="69.068" y="-106.25"/>
			<point x="-0.49537" y="-106.25" type="curve" smooth="yes"/>
			<point x="-4.5" y="-106.25"/>
			<point x="-8.66667" y="-106.167"/>
			<point x="-13" y="-106" type="curve"/>
			<point x="-13" y="-158" type="line"/>
			<point x="111.048" y="-158"/>
			<point x="166" y="-110.96"/>
		</contour>
	</outline>
</glyph>
<glyph name="k" format="2">
	<unicode hex="006B"/>
	<advance width="478"/>
	<outline>
		<contour>
			<point x="421" y="14" type="line"/>
			<point x="184" y="278" type="line"/>
			<point x="411" y="490" type="line"/>
			<point x="338" y="490" type="line"/>
			<point x="129" y="292" type="line"/>
			<point x="129" y="699" type="line"/>
			<point x="72" y="699" type="line"/>
			<point x="72" y="14" type="line"/>
			<point x="129" y="14" type="line"/>
			<point x="129" y="256" type="line"/>
			<point x="350" y="14" type="line"/>
		</contour>
	</outline>
</glyph>
<glyph name="l" format="2">
	<unicode hex="006C"/>
	<advance width="212"/>
	<outline>
		<contour>
			<point x="136" y="14" type="line"/>
			<point x="136" y="699" type="line"/>
			<point x="76" y="699" type="line"/>
			<point x="76" y="14" type="line"/>
		</contour>
	</outline>
</glyph>
<glyph name="m" format="2">
  <advance width="716"/>
  <unicode hex="006D"/>
  <outline>
    <contour>
      <point x="644" y="14" type="line"/>
      <point x="644" y="331" type="line" smooth="yes"/>
      <point x="644" y="391"/>
      <point x="631" y="435"/>
      <point x="607" y="462" type="curve" smooth="yes"/>
      <point x="582" y="488"/>
      <point x="551" y="502"/>
      <point x="513" y="502" type="curve" smooth="yes"/>
      <point x="476" y="502"/>
      <point x="446" y="490"/>
      <point x="423" y="467" type="curve" smooth="yes"/>
      <point x="407" y="451"/>
      <point x="393" y="428"/>
      <point x="382" y="398" type="curve"/>
      <point x="370" y="432"/>
      <point x="356" y="456"/>
      <point x="340" y="472" type="curve" smooth="yes"/>
      <point x="319" y="492"/>
      <point x="290" y="502"/>
      <point x="253" y="502" type="curve" smooth="yes"/>
      <point x="222" y="502"/>
      <point x="196" y="492"/>
      <point x="174" y="472" type="curve" smooth="yes"/>
      <point x="157" y="457"/>
      <point x="141" y="432"/>
      <point x="127" y="398" type="curve"/>
      <point x="127" y="490" type="line"/>
      <point x="72" y="490" type="line"/>
      <point x="72" y="14" type="line"/>
      <point x="127" y="14" type="line"/>
      <point x="127" y="218" type="line" smooth="yes"/>
      <point x="127" y="246"/>
      <point x="130" y="273"/>
      <point x="134" y="297" type="curve" smooth="yes"/>
      <point x="137" y="321"/>
      <point x="143" y="344"/>
      <point x="153" y="368" type="curve" smooth="yes"/>
      <point x="162" y="393"/>
      <point x="174" y="412"/>
      <point x="190" y="426" type="curve" smooth="yes"/>
      <point x="205" y="439"/>
      <point x="223" y="446"/>
      <point x="244" y="446" type="curve" smooth="yes"/>
      <point x="262" y="446"/>
      <point x="277" y="442"/>
      <point x="290" y="434" type="curve" smooth="yes"/>
      <point x="302" y="426"/>
      <point x="311" y="413"/>
      <point x="318" y="397" type="curve" smooth="yes"/>
      <point x="324" y="382"/>
      <point x="328" y="365"/>
      <point x="330" y="345" type="curve" smooth="yes"/>
      <point x="331" y="324"/>
      <point x="332" y="305"/>
      <point x="332" y="289" type="curve" smooth="yes"/>
      <point x="332" y="14" type="line"/>
      <point x="384" y="14" type="line"/>
      <point x="384" y="219" type="line" smooth="yes"/>
      <point x="384" y="229"/>
      <point x="384" y="241"/>
      <point x="385" y="253" type="curve" smooth="yes"/>
      <point x="385" y="265"/>
      <point x="387" y="278"/>
      <point x="389" y="292" type="curve" smooth="yes"/>
      <point x="395" y="338"/>
      <point x="408" y="376"/>
      <point x="429" y="404" type="curve" smooth="yes"/>
      <point x="449" y="432"/>
      <point x="474" y="446"/>
      <point x="504" y="446" type="curve" smooth="yes"/>
      <point x="520" y="446"/>
      <point x="534" y="442"/>
      <point x="547" y="434" type="curve" smooth="yes"/>
      <point x="559" y="426"/>
      <point x="569" y="413"/>
      <point x="576" y="397" type="curve" smooth="yes"/>
      <point x="581" y="384"/>
      <point x="585" y="367"/>
      <point x="587" y="346" type="curve" smooth="yes"/>
      <point x="588" y="324"/>
      <point x="589" y="305"/>
      <point x="589" y="289" type="curve" smooth="yes"/>
      <point x="589" y="14" type="line"/>
    </contour>
  </outline>
</glyph>
<glyph name="n" format="2">
	<unicode hex="006E"/>
	<advance width="500"/>
	<outline>
		<contour>
			<point x="428" y="14" type="line"/>
			<point x="428" y="336" type="line" smooth="yes"/>
			<point x="428" y="441.136"/>
			<point x="376.959" y="502"/>
			<point x="274" y="502" type="curve" smooth="yes"/>
			<point x="198.417" y="502"/>
			<point x="151.026" y="447.996"/>
			<point x="129" y="387" type="curve"/>
			<point x="129" y="490" type="line"/>
			<point x="72" y="490" type="line"/>
			<point x="72" y="14" type="line"/>
			<point x="129" y="14" type="line"/>
			<point x="129" y="223" type="line" smooth="yes"/>
			<point x="129" y="328.897"/>
			<point x="170.19" y="452"/>
			<point x="268" y="452" type="curve" smooth="yes"/>
			<point x="339.821" y="452"/>
			<point x="370" y="397.41"/>
			<point x="370" y="328" type="curve" smooth="yes"/>
			<point x="370" y="14" type="line"/>
		</contour>
	</outline>
</glyph>
<glyph name="o" format="2">
  <advance width="500"/>
  <unicode hex="006F"/>
  <outline>
    <contour>
      <point x="391" y="252" type="curve" smooth="yes"/>
      <point x="391" y="224"/>
      <point x="388" y="197"/>
      <point x="382" y="171" type="curve" smooth="yes"/>
      <point x="375" y="144"/>
      <point x="365" y="122"/>
      <point x="353" y="104" type="curve" smooth="yes"/>
      <point x="340" y="85"/>
      <point x="325" y="71"/>
      <point x="307" y="62" type="curve" smooth="yes"/>
      <point x="288" y="52"/>
      <point x="269" y="47"/>
      <point x="250" y="47" type="curve" smooth="yes"/>
      <point x="230" y="47"/>
      <point x="212" y="52"/>
      <point x="194" y="62" type="curve" smooth="yes"/>
      <point x="175" y="71"/>
      <point x="159" y="85"/>
      <point x="147" y="104" type="curve" smooth="yes"/>
      <point x="134" y="122"/>
      <point x="125" y="144"/>
      <point x="119" y="171" type="curve" smooth="yes"/>
      <point x="112" y="197"/>
      <point x="109" y="224"/>
      <point x="109" y="252" type="curve" smooth="yes"/>
      <point x="109" y="280"/>
      <point x="112" y="307"/>
      <point x="119" y="334" type="curve" smooth="yes"/>
      <point x="125" y="360"/>
      <point x="134" y="382"/>
      <point x="147" y="400" type="curve" smooth="yes"/>
      <point x="159" y="418"/>
      <point x="175" y="433"/>
      <point x="194" y="443" type="curve" smooth="yes"/>
      <point x="212" y="452"/>
      <point x="230" y="457"/>
      <point x="250" y="457" type="curve" smooth="yes"/>
      <point x="269" y="457"/>
      <point x="288" y="452"/>
      <point x="307" y="443" type="curve" smooth="yes"/>
      <point x="325" y="433"/>
      <point x="340" y="418"/>
      <point x="353" y="400" type="curve" smooth="yes"/>
      <point x="365" y="382"/>
      <point x="375" y="360"/>
      <point x="382" y="334" type="curve" smooth="yes"/>
      <point x="388" y="307"/>
      <point x="391" y="280"/>
    </contour>
    <contour>
      <point x="453" y="252" type="curve" smooth="yes"/>
      <point x="453" y="283"/>
      <point x="449" y="314"/>
      <point x="442" y="344" type="curve" smooth="yes"/>
      <point x="434" y="373"/>
      <point x="422" y="398"/>
      <point x="408" y="419" type="curve" smooth="yes"/>
      <point x="392" y="443"/>
      <point x="370" y="462"/>
      <point x="344" y="478" type="curve" smooth="yes"/>
      <point x="316" y="493"/>
      <point x="285" y="501"/>
      <point x="250" y="501" type="curve" smooth="yes"/>
      <point x="214" y="501"/>
      <point x="183" y="493"/>
      <point x="157" y="478" type="curve" smooth="yes"/>
      <point x="129" y="462"/>
      <point x="108" y="443"/>
      <point x="92" y="419" type="curve" smooth="yes"/>
      <point x="77" y="398"/>
      <point x="66" y="373"/>
      <point x="59" y="344" type="curve" smooth="yes"/>
      <point x="51" y="314"/>
      <point x="47" y="283"/>
      <point x="47" y="252" type="curve" smooth="yes"/>
      <point x="47" y="220"/>
      <point x="51" y="190"/>
      <point x="59" y="161" type="curve" smooth="yes"/>
      <point x="66" y="131"/>
      <point x="77" y="105"/>
      <point x="92" y="85" type="curve" smooth="yes"/>
      <point x="108" y="61"/>
      <point x="129" y="41"/>
      <point x="157" y="26" type="curve" smooth="yes"/>
      <point x="183" y="10"/>
      <point x="214" y="3"/>
      <point x="250" y="3" type="curve" smooth="yes"/>
      <point x="285" y="3"/>
      <point x="316" y="10"/>
      <point x="344" y="26" type="curve" smooth="yes"/>
      <point x="370" y="41"/>
      <point x="392" y="61"/>
      <point x="408" y="85" type="curve" smooth="yes"/>
      <point x="422" y="105"/>
      <point x="434" y="131"/>
      <point x="442" y="161" type="curve" smooth="yes"/>
      <point x="449" y="190"/>
      <point x="453" y="220"/>
    </contour>
  </outline>
</glyph>
<glyph name="p" format="2">
	<unicode hex="0070"/>
	<advance width="500"/>
	<outline>
		<contour>
			<point x="453" y="259" type="curve" smooth="yes"/>
			<point x="453" y="385.973"/>
			<point x="393.729" y="502"/>
			<point x="267" y="502" type="curve" smooth="yes"/>
			<point x="206" y="502"/>
			<point x="160" y="469"/>
			<point x="129" y="405" type="curve"/>
			<point x="129" y="490" type="line"/>
			<point x="72" y="490" type="line"/>
			<point x="72" y="-158" type="line"/>
			<point x="129" y="-158" type="line"/>
			<point x="129" y="103" type="line"/>
			<point x="150.375" y="49.5632"/>
			<point x="199.768" y="7"/>
			<point x="271" y="7" type="curve" smooth="yes"/>
			<point x="399.464" y="7"/>
			<point x="453" y="124.241"/>
		</contour>
		<contour>
			<point x="393" y="254" type="curve" smooth="yes"/>
			<point x="393" y="159.108"/>
			<point x="351.241" y="52"/>
			<point x="261" y="52" type="curve" smooth="yes"/>
			<point x="169.976" y="52"/>
			<point x="130" y="160.698"/>
			<point x="130" y="254" type="curve" smooth="yes"/>
			<point x="130" y="346.735"/>
			<point x="169.825" y="456"/>
			<point x="261" y="456" type="curve" smooth="yes"/>
			<point x="351.822" y="456"/>
			<point x="393" y="347.97"/>
		</contour>
	</outline>
</glyph>
<glyph name="q" format="2">
  <advance width="500"/>
  <unicode hex="0071"/>
  <outline>
    <contour>
      <point x="47" y="259" type="curve" smooth="yes"/>
      <point x="47" y="217"/>
      <point x="52" y="181"/>
      <point x="62" y="150" type="curve" smooth="yes"/>
      <point x="71" y="118"/>
      <point x="83" y="92"/>
      <point x="99" y="72" type="curve" smooth="yes"/>
      <point x="114" y="50"/>
      <point x="133" y="34"/>
      <point x="157" y="24" type="curve" smooth="yes"/>
      <point x="180" y="12"/>
      <point x="204" y="7"/>
      <point x="229" y="7" type="curve" smooth="yes"/>
      <point x="261" y="7"/>
      <point x="290" y="15"/>
      <point x="315" y="33" type="curve" smooth="yes"/>
      <point x="339" y="50"/>
      <point x="358" y="73"/>
      <point x="371" y="103" type="curve"/>
      <point x="371" y="-158" type="line"/>
      <point x="428" y="-158" type="line"/>
      <point x="428" y="490" type="line"/>
      <point x="371" y="490" type="line"/>
      <point x="371" y="405" type="line"/>
      <point x="339" y="469"/>
      <point x="293" y="502"/>
      <point x="233" y="502" type="curve" smooth="yes"/>
      <point x="203" y="502"/>
      <point x="177" y="495"/>
      <point x="153" y="482" type="curve" smooth="yes"/>
      <point x="129" y="468"/>
      <point x="109" y="450"/>
      <point x="94" y="428" type="curve" smooth="yes"/>
      <point x="78" y="405"/>
      <point x="67" y="379"/>
      <point x="59" y="351" type="curve" smooth="yes"/>
      <point x="51" y="321"/>
      <point x="47" y="291"/>
    </contour>
    <contour>
      <point x="107" y="254" type="curve" smooth="yes"/>
      <point x="107" y="282"/>
      <point x="110" y="308"/>
      <point x="118" y="333" type="curve" smooth="yes"/>
      <point x="124" y="357"/>
      <point x="134" y="379"/>
      <point x="146" y="398" type="curve" smooth="yes"/>
      <point x="158" y="416"/>
      <point x="172" y="430"/>
      <point x="188" y="441" type="curve" smooth="yes"/>
      <point x="204" y="451"/>
      <point x="221" y="456"/>
      <point x="239" y="456" type="curve" smooth="yes"/>
      <point x="257" y="456"/>
      <point x="274" y="450"/>
      <point x="290" y="440" type="curve" smooth="yes"/>
      <point x="306" y="429"/>
      <point x="320" y="415"/>
      <point x="332" y="397" type="curve" smooth="yes"/>
      <point x="344" y="378"/>
      <point x="353" y="357"/>
      <point x="360" y="333" type="curve" smooth="yes"/>
      <point x="366" y="308"/>
      <point x="370" y="282"/>
      <point x="370" y="254" type="curve" smooth="yes"/>
      <point x="370" y="226"/>
      <point x="366" y="200"/>
      <point x="360" y="176" type="curve" smooth="yes"/>
      <point x="353" y="151"/>
      <point x="344" y="129"/>
      <point x="332" y="111" type="curve" smooth="yes"/>
      <point x="320" y="93"/>
      <point x="306" y="78"/>
      <point x="290" y="68" type="curve" smooth="yes"/>
      <point x="274" y="57"/>
      <point x="257" y="52"/>
      <point x="239" y="52" type="curve" smooth="yes"/>
      <point x="221" y="52"/>
      <point x="204" y="57"/>
      <point x="188" y="68" type="curve" smooth="yes"/>
      <point x="172" y="78"/>
      <point x="158" y="92"/>
      <point x="146" y="110" type="curve" smooth="yes"/>
      <point x="134" y="128"/>
      <point x="124" y="150"/>
      <point x="118" y="175" type="curve" smooth="yes"/>
      <point x="110" y="199"/>
      <point x="107" y="226"/>
    </contour>
  </outline>
</glyph>
<glyph name="r" format="2">
	<unicode hex="0072"/>
	<advance width="350"/>
	<outline>
		<contour>
			<point x="323" y="442" type="curve"/>
			<point x="323" y="502" type="line"/>
			<point x="285" y="502"/>
			<point x="250" y="492"/>
			<point x="216" y="473" type="curve" smooth="yes"/>
			<point x="185" y="455"/>
			<point x="156" y="423"/>
			<point x="128" y="377" type="curve"/>
			<point x="128" y="490" type="line"/>
			<point x="72" y="490" type="line"/>
			<point x="72" y="14" type="line"/>
			<point x="128" y="14" type="line"/>
			<point x="128" y="213" type="line" smooth="yes"/>
			<point x="128" y="244"/>
			<point x="130" y="274"/>
			<point x="136" y="303" type="curve" smooth="yes"/>
			<point x="141" y="327"/>
			<point x="151" y="348"/>
			<point x="166" y="368" type="curve" smooth="yes"/>
			<point x="180" y="386"/>
			<point x="196" y="401"/>
			<point x="214" y="412" type="curve" smooth="yes"/>
			<point x="231" y="422"/>
			<point x="250" y="429"/>
			<point x="270" y="435" type="curve" smooth="yes"/>
			<point x="289" y="439"/>
			<point x="307" y="442"/>
		</contour>
	</outline>
</glyph>
<glyph name="s" format="2">
	<unicode hex="0073"/>
	<advance width="394"/>
	<outline>
		<contour>
			<point x="353" y="135" type="curve" smooth="yes"/>
			<point x="353" y="307"/>
			<point x="103" y="253"/>
			<point x="103" y="386" type="curve" smooth="yes"/>
			<point x="103" y="429.928"/>
			<point x="151.106" y="458"/>
			<point x="197" y="458" type="curve" smooth="yes"/>
			<point x="238.295" y="458"/>
			<point x="300.585" y="438.766"/>
			<point x="325" y="429" type="curve"/>
			<point x="325" y="482" type="line"/>
			<point x="286" y="495"/>
			<point x="246" y="502"/>
			<point x="206" y="502" type="curve" smooth="yes"/>
			<point x="116.254" y="502"/>
			<point x="47" y="459.927"/>
			<point x="47" y="375" type="curve" smooth="yes"/>
			<point x="47" y="210.318"/>
			<point x="295" y="258"/>
			<point x="295" y="130" type="curve" smooth="yes"/>
			<point x="295" y="72.7259"/>
			<point x="240.427" y="49"/>
			<point x="171" y="49" type="curve" smooth="yes"/>
			<point x="142.071" y="49"/>
			<point x="61.1847" y="72.2892"/>
			<point x="45" y="82" type="curve"/>
			<point x="45" y="26" type="line"/>
			<point x="93" y="10"/>
			<point x="135" y="3"/>
			<point x="171" y="3" type="curve" smooth="yes"/>
			<point x="272.79" y="3"/>
			<point x="353" y="32.9019"/>
		</contour>
	</outline>
</glyph>
<glyph name="t" format="2">
	<unicode hex="0074"/>
	<advance width="330"/>
	<outline>
		<contour>
			<point x="292" y="445" type="line"/>
			<point x="292" y="490" type="line"/>
			<point x="166" y="490" type="line"/>
			<point x="166" y="637" type="line"/>
			<point x="108" y="607" type="line"/>
			<point x="108" y="490" type="line"/>
			<point x="32" y="490" type="line"/>
			<point x="32" y="445" type="line"/>
			<point x="108" y="445" type="line"/>
			<point x="108" y="123" type="line" smooth="yes"/>
			<point x="108" y="80"/>
			<point x="117" y="49"/>
			<point x="137" y="31" type="curve" smooth="yes"/>
			<point x="156" y="12"/>
			<point x="187" y="3"/>
			<point x="231" y="3" type="curve" smooth="yes"/>
			<point x="256" y="3"/>
			<point x="276" y="4"/>
			<point x="290" y="6" type="curve"/>
			<point x="290" y="53" type="line"/>
			<point x="276" y="50"/>
			<point x="260" y="49"/>
			<point x="242" y="49" type="curve" smooth="yes"/>
			<point x="226" y="49"/>
			<point x="212" y="52"/>
			<point x="201" y="58" type="curve" smooth="yes"/>
			<point x="189" y="63"/>
			<point x="180" y="72"/>
			<point x="175" y="85" type="curve" smooth="yes"/>
			<point x="169" y="98"/>
			<point x="166" y="112"/>
			<point x="166" y="126" type="curve" smooth="yes"/>
			<point x="166" y="139"/>
			<point x="166" y="153"/>
			<point x="166" y="169" type="curve" smooth="yes"/>
			<point x="166" y="445" type="line"/>
		</contour>
	</outline>
</glyph>
<glyph name="u" format="2">
	<unicode hex="0075"/>
	<advance width="514"/>
	<outline>
		<contour>
			<point x="72" y="490" type="line"/>
			<point x="72" y="168" type="line" smooth="yes"/>
			<point x="72" y="61.679"/>
			<point x="121.73" y="2"/>
			<point x="226" y="2" type="curve" smooth="yes"/>
			<point x="301.796" y="2"/>
			<point x="347.401" y="54.6303"/>
			<point x="371" y="117" type="curve"/>
			<point x="371" y="14" type="line"/>
			<point x="428" y="14" type="line"/>
			<point x="428" y="490" type="line"/>
			<point x="371" y="490" type="line"/>
			<point x="371" y="281" type="line" smooth="yes"/>
			<point x="371" y="173.563"/>
			<point x="327.464" y="52"/>
			<point x="232" y="52" type="curve" smooth="yes"/>
			<point x="159.895" y="52"/>
			<point x="130" y="108.201"/>
			<point x="130" y="176" type="curve" smooth="yes"/>
			<point x="130" y="490" type="line"/>
		</contour>
	</outline>
</glyph>
<glyph name="v" format="2">
	<unicode hex="0076"/>
	<advance width="470"/>
	<outline>
		<contour>
			<point x="436" y="490" type="line"/>
			<point x="382" y="490" type="line"/>
			<point x="243" y="77" type="line"/>
			<point x="94" y="490" type="line"/>
			<point x="37" y="490" type="line"/>
			<point x="216" y="14" type="line"/>
			<point x="271" y="14" type="line"/>
		</contour>
	</outline>
</glyph>
<glyph name="w" format="2">
	<unicode hex="0077"/>
	<advance width="665"/>
	<outline>
		<contour>
			<point x="605" y="490" type="line"/>
			<point x="553" y="490" type="line"/>
			<point x="463" y="88" type="line"/>
			<point x="344" y="490" type="line"/>
			<point x="298" y="490" type="line"/>
			<point x="180" y="88" type="line"/>
			<point x="91" y="490" type="line"/>
			<point x="37" y="490" type="line"/>
			<point x="150" y="14" type="line"/>
			<point x="205" y="14" type="line"/>
			<point x="321" y="404" type="line"/>
			<point x="439" y="14" type="line"/>
			<point x="496" y="14" type="line"/>
		</contour>
	</outline>
</glyph>
<glyph name="x" format="2">
  <advance width="465"/>
  <unicode hex="0078"/>
  <outline>
    <contour>
      <point x="423" y="14" type="line"/>
      <point x="262" y="265" type="line"/>
      <point x="407" y="490" type="line"/>
      <point x="346" y="490" type="line"/>
      <point x="233" y="313" type="line"/>
      <point x="121" y="490" type="line"/>
      <point x="60" y="490" type="line"/>
      <point x="204" y="265" type="line"/>
      <point x="41" y="14" type="line"/>
      <point x="103" y="14" type="line"/>
      <point x="233" y="217" type="line"/>
      <point x="361" y="14" type="line"/>
    </contour>
  </outline>
</glyph>
<glyph name="z" format="2">
	<unicode hex="007A"/>
	<advance width="420"/>
	<outline>
		<contour>
			<point x="378" y="14" type="line"/>
			<point x="378" y="59" type="line"/>
			<point x="101" y="59" type="line"/>
			<point x="366" y="435" type="line"/>
			<point x="366" y="490" type="line"/>
			<point x="59" y="490" type="line"/>
			<point x="59" y="445" type="line"/>
			<point x="310" y="445" type="line"/>
			<point x="42" y="63" type="line"/>
			<point x="42" y="14" type="line"/>
		</contour>
	</outline>
</glyph>
<glyph name="braceleft" format="2">
	<unicode hex="007B"/>
	<advance width="417"/>
	<outline>
		<contour>
			<point x="120" y="312" type="curve"/>
			<point x="120" y="349" type="line"/>
			<point x="167" y="365"/>
			<point x="216" y="398"/>
			<point x="216" y="461" type="curve" smooth="yes"/>
			<point x="216" y="522"/>
			<point x="193" y="570"/>
			<point x="193" y="635" type="curve" smooth="yes"/>
			<point x="193" y="722"/>
			<point x="268" y="793"/>
			<point x="355" y="793" type="curve"/>
			<point x="355" y="770" type="line"/>
			<point x="293" y="752"/>
			<point x="258" y="697"/>
			<point x="258" y="625" type="curve" smooth="yes"/>
			<point x="258" y="580"/>
			<point x="270" y="542"/>
			<point x="270" y="497" type="curve" smooth="yes"/>
			<point x="270" y="406"/>
			<point x="220" y="354"/>
			<point x="156" y="330" type="curve"/>
			<point x="218" y="302"/>
			<point x="270" y="257"/>
			<point x="270" y="164" type="curve" smooth="yes"/>
			<point x="270" y="117"/>
			<point x="257" y="78"/>
			<point x="257" y="31" type="curve" smooth="yes"/>
			<point x="257" y="-37"/>
			<point x="296" y="-92"/>
			<point x="355" y="-109" type="curve"/>
			<point x="355" y="-132" type="line"/>
			<point x="253" y="-132"/>
			<point x="194" y="-54"/>
			<point x="194" y="45" type="curve" smooth="yes"/>
			<point x="194" y="101"/>
			<point x="216" y="144"/>
			<point x="216" y="200" type="curve" smooth="yes"/>
			<point x="216" y="263"/>
			<point x="167" y="294"/>
		</contour>
	</outline>
</glyph>
<glyph name="bar" format="2">
	<unicode hex="007C"/>
	<advance width="303"/>
	<outline>
		<contour>
			<point x="176" y="-112" type="line"/>
			<point x="127" y="-112" type="line"/>
			<point x="127" y="771" type="line"/>
			<point x="176" y="771" type="line"/>
		</contour>
	</outline>
</glyph>
<glyph name="braceright" format="2">
  <advance width="406"/>
  <unicode hex="007D"/>
  <outline>
    <contour>
      <point x="286" y="312" type="curve"/>
      <point x="286" y="349" type="line"/>
      <point x="260" y="358"/>
      <point x="237" y="372"/>
      <point x="219" y="390" type="curve" smooth="yes"/>
      <point x="199" y="408"/>
      <point x="190" y="431"/>
      <point x="190" y="461" type="curve" smooth="yes"/>
      <point x="190" y="480"/>
      <point x="192" y="499"/>
      <point x="198" y="519" type="curve" smooth="yes"/>
      <point x="202" y="538"/>
      <point x="206" y="557"/>
      <point x="209" y="576" type="curve" smooth="yes"/>
      <point x="211" y="595"/>
      <point x="213" y="615"/>
      <point x="213" y="635" type="curve" smooth="yes"/>
      <point x="213" y="654"/>
      <point x="208" y="674"/>
      <point x="200" y="694" type="curve" smooth="yes"/>
      <point x="191" y="712"/>
      <point x="181" y="727"/>
      <point x="169" y="740" type="curve" smooth="yes"/>
      <point x="156" y="752"/>
      <point x="143" y="762"/>
      <point x="129" y="770" type="curve" smooth="yes"/>
      <point x="115" y="778"/>
      <point x="100" y="785"/>
      <point x="86" y="789" type="curve" smooth="yes"/>
      <point x="71" y="792"/>
      <point x="59" y="793"/>
      <point x="51" y="793" type="curve"/>
      <point x="51" y="770" type="line"/>
      <point x="78" y="762"/>
      <point x="99" y="749"/>
      <point x="114" y="730" type="curve" smooth="yes"/>
      <point x="128" y="710"/>
      <point x="137" y="691"/>
      <point x="142" y="673" type="curve" smooth="yes"/>
      <point x="148" y="649"/>
      <point x="150" y="626"/>
      <point x="148" y="604" type="curve" smooth="yes"/>
      <point x="145" y="582"/>
      <point x="142" y="561"/>
      <point x="139" y="541" type="curve" smooth="yes"/>
      <point x="135" y="521"/>
      <point x="134" y="502"/>
      <point x="136" y="483" type="curve" smooth="yes"/>
      <point x="137" y="463"/>
      <point x="141" y="444"/>
      <point x="149" y="427" type="curve" smooth="yes"/>
      <point x="161" y="399"/>
      <point x="175" y="378"/>
      <point x="191" y="365" type="curve" smooth="yes"/>
      <point x="206" y="351"/>
      <point x="226" y="339"/>
      <point x="250" y="330" type="curve"/>
      <point x="227" y="320"/>
      <point x="208" y="309"/>
      <point x="192" y="296" type="curve" smooth="yes"/>
      <point x="176" y="282"/>
      <point x="161" y="262"/>
      <point x="149" y="234" type="curve" smooth="yes"/>
      <point x="141" y="216"/>
      <point x="137" y="198"/>
      <point x="136" y="179" type="curve" smooth="yes"/>
      <point x="134" y="159"/>
      <point x="135" y="139"/>
      <point x="139" y="120" type="curve" smooth="yes"/>
      <point x="142" y="100"/>
      <point x="145" y="79"/>
      <point x="148" y="57" type="curve" smooth="yes"/>
      <point x="150" y="35"/>
      <point x="148" y="12"/>
      <point x="142" y="-12" type="curve" smooth="yes"/>
      <point x="137" y="-30"/>
      <point x="128" y="-49"/>
      <point x="114" y="-69" type="curve" smooth="yes"/>
      <point x="99" y="-88"/>
      <point x="78" y="-101"/>
      <point x="51" y="-109" type="curve"/>
      <point x="51" y="-132" type="line"/>
      <point x="59" y="-132"/>
      <point x="71" y="-131"/>
      <point x="86" y="-128" type="curve" smooth="yes"/>
      <point x="100" y="-124"/>
      <point x="115" y="-117"/>
      <point x="129" y="-109" type="curve" smooth="yes"/>
      <point x="143" y="-101"/>
      <point x="156" y="-91"/>
      <point x="169" y="-79" type="curve" smooth="yes"/>
      <point x="181" y="-66"/>
      <point x="191" y="-51"/>
      <point x="200" y="-33" type="curve" smooth="yes"/>
      <point x="208" y="-13"/>
      <point x="213" y="7"/>
      <point x="213" y="27" type="curve" smooth="yes"/>
      <point x="213" y="46"/>
      <point x="211" y="65"/>
      <point x="209" y="85" type="curve" smooth="yes"/>
      <point x="206" y="103"/>
      <point x="202" y="122"/>
      <point x="198" y="142" type="curve" smooth="yes"/>
      <point x="192" y="161"/>
      <point x="190" y="180"/>
      <point x="190" y="200" type="curve" smooth="yes"/>
      <point x="190" y="229"/>
      <point x="199" y="253"/>
      <point x="219" y="271" type="curve" smooth="yes"/>
      <point x="237" y="289"/>
      <point x="260" y="302"/>
    </contour>
  </outline>
</glyph>
<glyph name="asciitilde" format="2">
	<unicode hex="007E"/>
	<advance width="544"/>
	<outline>
		<contour>
			<point x="96" y="275" type="line"/>
			<point x="96" y="331.918"/>
			<point x="114.353" y="386"/>
			<point x="167" y="386" type="curve" smooth="yes"/>
			<point x="236" y="386"/>
			<point x="256" y="263"/>
			<point x="358" y="263" type="curve" smooth="yes"/>
			<point x="438.171" y="263"/>
			<point x="475" y="335.343"/>
			<point x="475" y="420" type="curve"/>
			<point x="428" y="420" type="line"/>
			<point x="428" y="363.163"/>
			<point x="408.208" y="311"/>
			<point x="355" y="311" type="curve" smooth="yes"/>
			<point x="288" y="311"/>
			<point x="266" y="434"/>
			<point x="165" y="434" type="curve" smooth="yes"/>
			<point x="89.0256" y="434"/>
			<point x="50" y="356.26"/>
			<point x="50" y="275" type="curve"/>
		</contour>
	</outline>
</glyph>
<glyph name="uni0082" format="2">
	<unicode hex="0082"/>
	<advance width="408"/>
	<outline>
		<contour>
			<point x="361" y="379" type="line"/>
			<point x="47" y="379" type="line"/>
			<point x="47" y="305" type="line"/>
			<point x="361" y="305" type="line"/>
		</contour>
	</outline>
</glyph>
<glyph name="exclamdown" format="2">
	<unicode hex="00A1"/>
	<advance width="838"/>
	<outline>
		<contour>
			<point x="455" y="-65" type="line"/>
			<point x="448" y="484" type="line"/>
			<point x="389" y="484" type="line"/>
			<point x="382" y="-65" type="line"/>
		</contour>
		<contour>
			<point x="462" y="728" type="line"/>
			<point x="376" y="728" type="line"/>
			<point x="376" y="638" type="line"/>
			<point x="462" y="638" type="line"/>
		</contour>
	</outline>
</glyph>
<glyph name="cent" format="2">
	<unicode hex="00A2"/>
	<advance width="940"/>
	<outline>
		<contour>
			<point x="657" y="98" type="line"/>
			<point x="624.452" y="88.0941"/>
			<point x="582.455" y="82"/>
			<point x="549" y="82" type="curve" smooth="yes"/>
			<point x="515.79" y="82"/>
			<point x="434.788" y="87.2122"/>
			<point x="418" y="104" type="curve"/>
			<point x="554" y="457" type="line"/>
			<point x="579.121" y="440.252"/>
			<point x="589" y="414.144"/>
			<point x="589" y="374" type="curve"/>
			<point x="673" y="374" type="line"/>
			<point x="673" y="452.457"/>
			<point x="634.694" y="496.322"/>
			<point x="578" y="519" type="curve"/>
			<point x="600" y="576" type="line"/>
			<point x="541" y="576" type="line"/>
			<point x="524" y="532" type="line"/>
			<point x="508.471" y="532"/>
			<point x="492.512" y="535"/>
			<point x="476" y="535" type="curve" smooth="yes"/>
			<point x="325.946" y="535"/>
			<point x="234" y="436.472"/>
			<point x="234" y="290" type="curve" smooth="yes"/>
			<point x="234" y="190.113"/>
			<point x="276.947" y="98.0263"/>
			<point x="343" y="65" type="curve"/>
			<point x="306" y="-32" type="line"/>
			<point x="365" y="-32" type="line"/>
			<point x="394" y="42" type="line"/>
			<point x="431.414" y="30.185"/>
			<point x="477.839" y="23"/>
			<point x="527" y="23" type="curve" smooth="yes"/>
			<point x="575.293" y="23"/>
			<point x="618.986" y="30.5958"/>
			<point x="657" y="42" type="curve"/>
		</contour>
		<contour>
			<point x="473" y="476" type="curve" smooth="yes"/>
			<point x="481.498" y="476"/>
			<point x="492.108" y="473"/>
			<point x="501" y="473" type="curve"/>
			<point x="372" y="140" type="line"/>
			<point x="330.92" y="179.436"/>
			<point x="314" y="235.94"/>
			<point x="314" y="305" type="curve" smooth="yes"/>
			<point x="314" y="406.358"/>
			<point x="375.408" y="476"/>
		</contour>
	</outline>
</glyph>
<glyph name="sterling" format="2">
	<unicode hex="00A3"/>
	<advance width="940"/>
	<outline>
		<contour>
			<point x="683" y="200" type="line"/>
			<point x="683" y="186"/>
			<point x="682" y="173"/>
			<point x="681" y="163" type="curve" smooth="yes"/>
			<point x="679" y="151"/>
			<point x="677" y="143"/>
			<point x="674" y="137" type="curve" smooth="yes"/>
			<point x="670" y="129"/>
			<point x="665" y="122"/>
			<point x="659" y="118" type="curve" smooth="yes"/>
			<point x="652" y="112"/>
			<point x="645" y="108"/>
			<point x="637" y="105" type="curve" smooth="yes"/>
			<point x="629" y="101"/>
			<point x="617" y="99"/>
			<point x="601" y="99" type="curve" smooth="yes"/>
			<point x="585" y="98"/>
			<point x="573" y="98"/>
			<point x="567" y="98" type="curve" smooth="yes"/>
			<point x="324" y="98" type="line"/>
			<point x="327" y="104"/>
			<point x="331" y="117"/>
			<point x="336" y="137" type="curve" smooth="yes"/>
			<point x="340" y="155"/>
			<point x="344" y="179"/>
			<point x="348" y="207" type="curve" smooth="yes"/>
			<point x="352" y="233"/>
			<point x="354" y="256"/>
			<point x="354" y="278" type="curve" smooth="yes"/>
			<point x="354" y="299"/>
			<point x="352" y="322"/>
			<point x="350" y="347" type="curve"/>
			<point x="604" y="347" type="line"/>
			<point x="604" y="407" type="line"/>
			<point x="342" y="407" type="line"/>
			<point x="337" y="431"/>
			<point x="334" y="458"/>
			<point x="333" y="490" type="curve" smooth="yes"/>
			<point x="331" y="520"/>
			<point x="335" y="548"/>
			<point x="345" y="572" type="curve" smooth="yes"/>
			<point x="357" y="602"/>
			<point x="376" y="628"/>
			<point x="400" y="649" type="curve" smooth="yes"/>
			<point x="423" y="669"/>
			<point x="453" y="680"/>
			<point x="491" y="680" type="curve" smooth="yes"/>
			<point x="527" y="680"/>
			<point x="557" y="667"/>
			<point x="583" y="642" type="curve" smooth="yes"/>
			<point x="608" y="616"/>
			<point x="623" y="585"/>
			<point x="629" y="549" type="curve"/>
			<point x="701" y="549" type="line"/>
			<point x="698" y="575"/>
			<point x="691" y="600"/>
			<point x="680" y="624" type="curve" smooth="yes"/>
			<point x="668" y="648"/>
			<point x="653" y="669"/>
			<point x="635" y="687" type="curve" smooth="yes"/>
			<point x="617" y="705"/>
			<point x="596" y="720"/>
			<point x="572" y="732" type="curve" smooth="yes"/>
			<point x="547" y="742"/>
			<point x="520" y="748"/>
			<point x="492" y="748" type="curve" smooth="yes"/>
			<point x="444" y="748"/>
			<point x="401" y="735"/>
			<point x="363" y="711" type="curve" smooth="yes"/>
			<point x="323" y="685"/>
			<point x="295" y="649"/>
			<point x="277" y="601" type="curve" smooth="yes"/>
			<point x="265" y="571"/>
			<point x="259" y="539"/>
			<point x="260" y="507" type="curve" smooth="yes"/>
			<point x="260" y="473"/>
			<point x="262" y="440"/>
			<point x="267" y="407" type="curve"/>
			<point x="209" y="407" type="line"/>
			<point x="209" y="347" type="line"/>
			<point x="274" y="347" type="line"/>
			<point x="278" y="324"/>
			<point x="280" y="302"/>
			<point x="280" y="280" type="curve" smooth="yes"/>
			<point x="280" y="257"/>
			<point x="278" y="232"/>
			<point x="274" y="204" type="curve" smooth="yes"/>
			<point x="269" y="175"/>
			<point x="264" y="152"/>
			<point x="259" y="134" type="curve" smooth="yes"/>
			<point x="253" y="115"/>
			<point x="249" y="103"/>
			<point x="247" y="99" type="curve"/>
			<point x="175" y="99" type="line"/>
			<point x="175" y="32" type="line"/>
			<point x="572" y="32" type="line" smooth="yes"/>
			<point x="601" y="32"/>
			<point x="625" y="33"/>
			<point x="645" y="37" type="curve" smooth="yes"/>
			<point x="663" y="40"/>
			<point x="677" y="44"/>
			<point x="687" y="50" type="curve" smooth="yes"/>
			<point x="698" y="56"/>
			<point x="708" y="65"/>
			<point x="718" y="76" type="curve" smooth="yes"/>
			<point x="727" y="86"/>
			<point x="735" y="98"/>
			<point x="741" y="112" type="curve" smooth="yes"/>
			<point x="744" y="122"/>
			<point x="747" y="134"/>
			<point x="750" y="150" type="curve" smooth="yes"/>
			<point x="752" y="164"/>
			<point x="754" y="181"/>
			<point x="754" y="200" type="curve"/>
		</contour>
	</outline>
</glyph>
<glyph name="currency" format="2">
  <advance width="678"/>
  <unicode hex="00A4"/>
  <outline>
    <contour>
      <point x="123" y="332" type="curve" smooth="yes"/>
      <point x="123" y="273"/>
      <point x="140" y="223"/>
      <point x="176" y="183" type="curve"/>
      <point x="100" y="101" type="line"/>
      <point x="131" y="73" type="line"/>
      <point x="205" y="153" type="line"/>
      <point x="245" y="119"/>
      <point x="291" y="102"/>
      <point x="343" y="102" type="curve" smooth="yes"/>
      <point x="394" y="102"/>
      <point x="440" y="119"/>
      <point x="481" y="153" type="curve"/>
      <point x="555" y="73" type="line"/>
      <point x="586" y="101" type="line"/>
      <point x="510" y="182" type="line"/>
      <point x="545" y="223"/>
      <point x="563" y="273"/>
      <point x="563" y="332" type="curve" smooth="yes"/>
      <point x="563" y="390"/>
      <point x="545" y="440"/>
      <point x="511" y="481" type="curve"/>
      <point x="586" y="562" type="line"/>
      <point x="556" y="590" type="line"/>
      <point x="482" y="510" type="line"/>
      <point x="441" y="544"/>
      <point x="395" y="562"/>
      <point x="343" y="562" type="curve" smooth="yes"/>
      <point x="291" y="562"/>
      <point x="244" y="544"/>
      <point x="204" y="510" type="curve"/>
      <point x="130" y="590" type="line"/>
      <point x="100" y="562" type="line"/>
      <point x="176" y="482" type="line"/>
      <point x="140" y="440"/>
      <point x="123" y="390"/>
    </contour>
    <contour>
      <point x="165" y="332" type="curve" smooth="yes"/>
      <point x="165" y="387"/>
      <point x="183" y="433"/>
      <point x="219" y="469" type="curve" smooth="yes"/>
      <point x="254" y="504"/>
      <point x="295" y="522"/>
      <point x="343" y="522" type="curve" smooth="yes"/>
      <point x="390" y="522"/>
      <point x="432" y="504"/>
      <point x="468" y="469" type="curve" smooth="yes"/>
      <point x="503" y="433"/>
      <point x="521" y="387"/>
      <point x="521" y="332" type="curve" smooth="yes"/>
      <point x="521" y="276"/>
      <point x="503" y="231"/>
      <point x="468" y="196" type="curve" smooth="yes"/>
      <point x="432" y="160"/>
      <point x="390" y="142"/>
      <point x="343" y="142" type="curve" smooth="yes"/>
      <point x="295" y="142"/>
      <point x="254" y="160"/>
      <point x="219" y="196" type="curve" smooth="yes"/>
      <point x="183" y="231"/>
      <point x="165" y="276"/>
    </contour>
  </outline>
</glyph>
<glyph name="section" format="2">
	<unicode hex="00A7"/>
	<advance width="347"/>
	<outline>
		<contour>
			<point x="295" y="271" type="curve" smooth="yes"/>
			<point x="301" y="294"/>
			<point x="300" y="318"/>
			<point x="291" y="343" type="curve" smooth="yes"/>
			<point x="281" y="367"/>
			<point x="271" y="389"/>
			<point x="259" y="407" type="curve" smooth="yes"/>
			<point x="245" y="425"/>
			<point x="230" y="443"/>
			<point x="214" y="460" type="curve" smooth="yes"/>
			<point x="197" y="476"/>
			<point x="182" y="492"/>
			<point x="168" y="509" type="curve" smooth="yes"/>
			<point x="153" y="525"/>
			<point x="141" y="543"/>
			<point x="131" y="562" type="curve" smooth="yes"/>
			<point x="121" y="580"/>
			<point x="116" y="601"/>
			<point x="116" y="625" type="curve" smooth="yes"/>
			<point x="116" y="649"/>
			<point x="121" y="668"/>
			<point x="133" y="680" type="curve" smooth="yes"/>
			<point x="143" y="691"/>
			<point x="155" y="697"/>
			<point x="167" y="699" type="curve" smooth="yes"/>
			<point x="179" y="700"/>
			<point x="191" y="698"/>
			<point x="202" y="693" type="curve" smooth="yes"/>
			<point x="212" y="687"/>
			<point x="216" y="679"/>
			<point x="216" y="670" type="curve" smooth="yes"/>
			<point x="213" y="661"/>
			<point x="213" y="652"/>
			<point x="216" y="643" type="curve" smooth="yes"/>
			<point x="218" y="633"/>
			<point x="221" y="624"/>
			<point x="227" y="618" type="curve" smooth="yes"/>
			<point x="233" y="611"/>
			<point x="239" y="607"/>
			<point x="246" y="606" type="curve" smooth="yes"/>
			<point x="252" y="604"/>
			<point x="259" y="608"/>
			<point x="267" y="616" type="curve" smooth="yes"/>
			<point x="274" y="623"/>
			<point x="277" y="633"/>
			<point x="276" y="645" type="curve" smooth="yes"/>
			<point x="274" y="657"/>
			<point x="268" y="669"/>
			<point x="260" y="682" type="curve" smooth="yes"/>
			<point x="250" y="694"/>
			<point x="238" y="704"/>
			<point x="224" y="714" type="curve" smooth="yes"/>
			<point x="208" y="722"/>
			<point x="190" y="727"/>
			<point x="170" y="727" type="curve" smooth="yes"/>
			<point x="141" y="726"/>
			<point x="117" y="715"/>
			<point x="98" y="694" type="curve" smooth="yes"/>
			<point x="78" y="672"/>
			<point x="69" y="640"/>
			<point x="71" y="598" type="curve" smooth="yes"/>
			<point x="71" y="580"/>
			<point x="73" y="564"/>
			<point x="78" y="550" type="curve" smooth="yes"/>
			<point x="82" y="535"/>
			<point x="87" y="522"/>
			<point x="92" y="511" type="curve" smooth="yes"/>
			<point x="97" y="499"/>
			<point x="103" y="488"/>
			<point x="110" y="480" type="curve" smooth="yes"/>
			<point x="116" y="471"/>
			<point x="119" y="467"/>
			<point x="119" y="467" type="curve"/>
			<point x="111" y="465"/>
			<point x="103" y="461"/>
			<point x="95" y="457" type="curve" smooth="yes"/>
			<point x="89" y="453"/>
			<point x="83" y="449"/>
			<point x="77" y="444" type="curve" smooth="yes"/>
			<point x="71" y="438"/>
			<point x="66" y="431"/>
			<point x="62" y="422" type="curve" smooth="yes"/>
			<point x="54" y="405"/>
			<point x="52" y="389"/>
			<point x="54" y="374" type="curve" smooth="yes"/>
			<point x="55" y="358"/>
			<point x="59" y="342"/>
			<point x="65" y="327" type="curve" smooth="yes"/>
			<point x="72" y="311"/>
			<point x="81" y="295"/>
			<point x="92" y="281" type="curve" smooth="yes"/>
			<point x="102" y="266"/>
			<point x="114" y="252"/>
			<point x="126" y="239" type="curve" smooth="yes"/>
			<point x="138" y="223"/>
			<point x="150" y="207"/>
			<point x="164" y="193" type="curve" smooth="yes"/>
			<point x="176" y="177"/>
			<point x="188" y="162"/>
			<point x="198" y="147" type="curve" smooth="yes"/>
			<point x="208" y="131"/>
			<point x="215" y="114"/>
			<point x="220" y="97" type="curve" smooth="yes"/>
			<point x="224" y="79"/>
			<point x="225" y="61"/>
			<point x="222" y="41" type="curve" smooth="yes"/>
			<point x="218" y="22"/>
			<point x="211" y="9"/>
			<point x="201" y="2" type="curve" smooth="yes"/>
			<point x="190" y="-5"/>
			<point x="179" y="-9"/>
			<point x="168" y="-10" type="curve" smooth="yes"/>
			<point x="158" y="-10"/>
			<point x="148" y="-8"/>
			<point x="140" y="-4" type="curve" smooth="yes"/>
			<point x="130" y="1"/>
			<point x="127" y="8"/>
			<point x="129" y="16" type="curve" smooth="yes"/>
			<point x="130" y="20"/>
			<point x="130" y="26"/>
			<point x="129" y="34" type="curve" smooth="yes"/>
			<point x="127" y="41"/>
			<point x="125" y="48"/>
			<point x="121" y="55" type="curve" smooth="yes"/>
			<point x="117" y="61"/>
			<point x="113" y="67"/>
			<point x="108" y="71" type="curve" smooth="yes"/>
			<point x="102" y="74"/>
			<point x="96" y="75"/>
			<point x="88" y="73" type="curve" smooth="yes"/>
			<point x="80" y="71"/>
			<point x="76" y="66"/>
			<point x="74" y="58" type="curve" smooth="yes"/>
			<point x="71" y="49"/>
			<point x="71" y="39"/>
			<point x="74" y="28" type="curve" smooth="yes"/>
			<point x="76" y="16"/>
			<point x="82" y="4"/>
			<point x="92" y="-7" type="curve" smooth="yes"/>
			<point x="100" y="-18"/>
			<point x="112" y="-26"/>
			<point x="128" y="-32" type="curve" smooth="yes"/>
			<point x="142" y="-38"/>
			<point x="156" y="-41"/>
			<point x="172" y="-41" type="curve" smooth="yes"/>
			<point x="187" y="-40"/>
			<point x="201" y="-36"/>
			<point x="215" y="-30" type="curve" smooth="yes"/>
			<point x="227" y="-22"/>
			<point x="239" y="-12"/>
			<point x="249" y="1" type="curve" smooth="yes"/>
			<point x="259" y="14"/>
			<point x="266" y="31"/>
			<point x="271" y="51" type="curve" smooth="yes"/>
			<point x="276" y="73"/>
			<point x="278" y="93"/>
			<point x="276" y="113" type="curve" smooth="yes"/>
			<point x="274" y="132"/>
			<point x="270" y="148"/>
			<point x="266" y="162" type="curve" smooth="yes"/>
			<point x="256" y="188"/>
			<point x="246" y="206"/>
			<point x="236" y="217" type="curve"/>
			<point x="248" y="221"/>
			<point x="257" y="224"/>
			<point x="262" y="227" type="curve" smooth="yes"/>
			<point x="268" y="231"/>
			<point x="275" y="236"/>
			<point x="281" y="243" type="curve" smooth="yes"/>
			<point x="286" y="249"/>
			<point x="291" y="259"/>
		</contour>
		<contour>
			<point x="227" y="359" type="curve" smooth="yes"/>
			<point x="233" y="349"/>
			<point x="239" y="338"/>
			<point x="245" y="326" type="curve" smooth="yes"/>
			<point x="250" y="314"/>
			<point x="253" y="302"/>
			<point x="254" y="291" type="curve" smooth="yes"/>
			<point x="254" y="279"/>
			<point x="251" y="269"/>
			<point x="246" y="261" type="curve" smooth="yes"/>
			<point x="240" y="252"/>
			<point x="229" y="248"/>
			<point x="214" y="248" type="curve" smooth="yes"/>
			<point x="203" y="248"/>
			<point x="190" y="254"/>
			<point x="175" y="266" type="curve" smooth="yes"/>
			<point x="159" y="277"/>
			<point x="142" y="295"/>
			<point x="125" y="320" type="curve" smooth="yes"/>
			<point x="116" y="330"/>
			<point x="109" y="343"/>
			<point x="105" y="357" type="curve" smooth="yes"/>
			<point x="99" y="370"/>
			<point x="97" y="382"/>
			<point x="97" y="394" type="curve" smooth="yes"/>
			<point x="97" y="406"/>
			<point x="100" y="415"/>
			<point x="107" y="423" type="curve" smooth="yes"/>
			<point x="113" y="430"/>
			<point x="124" y="433"/>
			<point x="140" y="432" type="curve" smooth="yes"/>
			<point x="151" y="430"/>
			<point x="164" y="423"/>
			<point x="180" y="411" type="curve" smooth="yes"/>
			<point x="194" y="398"/>
			<point x="210" y="381"/>
		</contour>
	</outline>
</glyph>
<glyph name="copyright" format="2">
	<unicode hex="00A9"/>
	<advance width="838"/>
	<outline>
		<contour>
			<point x="576" y="461" type="line"/>
			<point x="576" y="480"/>
			<point x="571" y="499"/>
			<point x="563" y="517" type="curve" smooth="yes"/>
			<point x="554" y="534"/>
			<point x="543" y="549"/>
			<point x="530" y="562" type="curve" smooth="yes"/>
			<point x="516" y="574"/>
			<point x="499" y="584"/>
			<point x="481" y="592" type="curve" smooth="yes"/>
			<point x="462" y="599"/>
			<point x="442" y="603"/>
			<point x="420" y="603" type="curve" smooth="yes"/>
			<point x="386" y="603"/>
			<point x="356" y="595"/>
			<point x="330" y="581" type="curve" smooth="yes"/>
			<point x="304" y="566"/>
			<point x="282" y="547"/>
			<point x="265" y="524" type="curve" smooth="yes"/>
			<point x="247" y="500"/>
			<point x="235" y="473"/>
			<point x="227" y="443" type="curve" smooth="yes"/>
			<point x="219" y="411"/>
			<point x="215" y="379"/>
			<point x="215" y="345" type="curve" smooth="yes"/>
			<point x="215" y="311"/>
			<point x="218" y="278"/>
			<point x="226" y="246" type="curve" smooth="yes"/>
			<point x="233" y="213"/>
			<point x="246" y="184"/>
			<point x="264" y="158" type="curve" smooth="yes"/>
			<point x="282" y="131"/>
			<point x="305" y="110"/>
			<point x="334" y="95" type="curve" smooth="yes"/>
			<point x="362" y="79"/>
			<point x="391" y="71"/>
			<point x="423" y="71" type="curve" smooth="yes"/>
			<point x="458" y="71"/>
			<point x="490" y="75"/>
			<point x="518" y="84" type="curve" smooth="yes"/>
			<point x="528" y="86"/>
			<point x="537" y="90"/>
			<point x="545" y="94" type="curve" smooth="yes"/>
			<point x="551" y="97"/>
			<point x="556" y="99"/>
			<point x="559" y="101" type="curve" smooth="yes"/>
			<point x="559" y="147" type="line"/>
			<point x="549" y="139"/>
			<point x="533" y="131"/>
			<point x="511" y="123" type="curve" smooth="yes"/>
			<point x="487" y="113"/>
			<point x="463" y="109"/>
			<point x="437" y="109" type="curve" smooth="yes"/>
			<point x="405" y="109"/>
			<point x="376" y="118"/>
			<point x="352" y="136" type="curve" smooth="yes"/>
			<point x="326" y="153"/>
			<point x="307" y="174"/>
			<point x="294" y="199" type="curve" smooth="yes"/>
			<point x="280" y="224"/>
			<point x="272" y="250"/>
			<point x="268" y="277" type="curve" smooth="yes"/>
			<point x="263" y="303"/>
			<point x="261" y="326"/>
			<point x="261" y="345" type="curve" smooth="yes"/>
			<point x="261" y="374"/>
			<point x="265" y="404"/>
			<point x="274" y="434" type="curve" smooth="yes"/>
			<point x="282" y="464"/>
			<point x="293" y="488"/>
			<point x="309" y="508" type="curve" smooth="yes"/>
			<point x="324" y="527"/>
			<point x="341" y="541"/>
			<point x="361" y="551" type="curve" smooth="yes"/>
			<point x="379" y="560"/>
			<point x="399" y="565"/>
			<point x="420" y="565" type="curve" smooth="yes"/>
			<point x="434" y="564"/>
			<point x="447" y="561"/>
			<point x="460" y="557" type="curve" smooth="yes"/>
			<point x="472" y="552"/>
			<point x="483" y="546"/>
			<point x="493" y="538" type="curve" smooth="yes"/>
			<point x="503" y="528"/>
			<point x="512" y="517"/>
			<point x="519" y="504" type="curve" smooth="yes"/>
			<point x="525" y="490"/>
			<point x="528" y="476"/>
			<point x="528" y="461" type="curve"/>
		</contour>
		<contour>
			<point x="808" y="331" type="curve" smooth="yes"/>
			<point x="808" y="389"/>
			<point x="797" y="443"/>
			<point x="777" y="491" type="curve" smooth="yes"/>
			<point x="756" y="538"/>
			<point x="728" y="579"/>
			<point x="693" y="615" type="curve" smooth="yes"/>
			<point x="657" y="650"/>
			<point x="616" y="678"/>
			<point x="570" y="700" type="curve" smooth="yes"/>
			<point x="522" y="720"/>
			<point x="472" y="731"/>
			<point x="419" y="731" type="curve" smooth="yes"/>
			<point x="365" y="731"/>
			<point x="315" y="720"/>
			<point x="269" y="700" type="curve" smooth="yes"/>
			<point x="221" y="678"/>
			<point x="180" y="650"/>
			<point x="145" y="615" type="curve" smooth="yes"/>
			<point x="109" y="579"/>
			<point x="81" y="538"/>
			<point x="61" y="491" type="curve" smooth="yes"/>
			<point x="40" y="443"/>
			<point x="30" y="389"/>
			<point x="30" y="331" type="curve" smooth="yes"/>
			<point x="30" y="273"/>
			<point x="40" y="220"/>
			<point x="61" y="173" type="curve" smooth="yes"/>
			<point x="81" y="125"/>
			<point x="109" y="83"/>
			<point x="145" y="48" type="curve" smooth="yes"/>
			<point x="180" y="12"/>
			<point x="221" y="-15"/>
			<point x="269" y="-36" type="curve" smooth="yes"/>
			<point x="315" y="-56"/>
			<point x="365" y="-67"/>
			<point x="419" y="-67" type="curve" smooth="yes"/>
			<point x="472" y="-67"/>
			<point x="522" y="-56"/>
			<point x="570" y="-36" type="curve" smooth="yes"/>
			<point x="616" y="-15"/>
			<point x="657" y="12"/>
			<point x="693" y="48" type="curve" smooth="yes"/>
			<point x="728" y="83"/>
			<point x="756" y="125"/>
			<point x="777" y="173" type="curve" smooth="yes"/>
			<point x="797" y="220"/>
			<point x="808" y="273"/>
		</contour>
		<contour>
			<point x="774" y="331" type="curve" smooth="yes"/>
			<point x="774" y="277"/>
			<point x="764" y="228"/>
			<point x="746" y="184" type="curve" smooth="yes"/>
			<point x="726" y="140"/>
			<point x="701" y="101"/>
			<point x="669" y="69" type="curve" smooth="yes"/>
			<point x="637" y="37"/>
			<point x="599" y="11"/>
			<point x="557" y="-7" type="curve" smooth="yes"/>
			<point x="513" y="-25"/>
			<point x="467" y="-35"/>
			<point x="419" y="-35" type="curve" smooth="yes"/>
			<point x="370" y="-35"/>
			<point x="324" y="-25"/>
			<point x="282" y="-7" type="curve" smooth="yes"/>
			<point x="238" y="11"/>
			<point x="201" y="37"/>
			<point x="169" y="69" type="curve" smooth="yes"/>
			<point x="137" y="101"/>
			<point x="111" y="140"/>
			<point x="93" y="184" type="curve" smooth="yes"/>
			<point x="73" y="228"/>
			<point x="64" y="277"/>
			<point x="64" y="331" type="curve" smooth="yes"/>
			<point x="64" y="385"/>
			<point x="73" y="435"/>
			<point x="93" y="479" type="curve" smooth="yes"/>
			<point x="111" y="523"/>
			<point x="137" y="561"/>
			<point x="169" y="594" type="curve" smooth="yes"/>
			<point x="201" y="626"/>
			<point x="238" y="651"/>
			<point x="282" y="671" type="curve" smooth="yes"/>
			<point x="324" y="689"/>
			<point x="370" y="699"/>
			<point x="419" y="699" type="curve" smooth="yes"/>
			<point x="467" y="699"/>
			<point x="513" y="689"/>
			<point x="557" y="671" type="curve" smooth="yes"/>
			<point x="599" y="651"/>
			<point x="637" y="626"/>
			<point x="669" y="594" type="curve" smooth="yes"/>
			<point x="701" y="561"/>
			<point x="726" y="523"/>
			<point x="746" y="479" type="curve" smooth="yes"/>
			<point x="764" y="435"/>
			<point x="774" y="385"/>
		</contour>
	</outline>
</glyph>
<glyph name="ordfeminine" format="2">
	<unicode hex="00AA"/>
	<advance width="611"/>
	<outline>
		<contour>
			<point x="116" y="202" type="line"/>
			<point x="487" y="202" type="line"/>
			<point x="487" y="245" type="line"/>
			<point x="116" y="245" type="line"/>
		</contour>
		<contour>
			<point x="396" y="320" type="line"/>
			<point x="447" y="320" type="line"/>
			<point x="447" y="586" type="line" smooth="yes"/>
			<point x="447" y="621"/>
			<point x="435" y="651"/>
			<point x="411" y="676" type="curve" smooth="yes"/>
			<point x="386" y="700"/>
			<point x="353" y="712"/>
			<point x="311" y="712" type="curve" smooth="yes"/>
			<point x="289" y="712"/>
			<point x="269" y="708"/>
			<point x="252" y="702" type="curve" smooth="yes"/>
			<point x="234" y="695"/>
			<point x="220" y="687"/>
			<point x="208" y="677" type="curve" smooth="yes"/>
			<point x="195" y="667"/>
			<point x="186" y="656"/>
			<point x="180" y="644" type="curve" smooth="yes"/>
			<point x="174" y="631"/>
			<point x="171" y="621"/>
			<point x="171" y="615" type="curve"/>
			<point x="231" y="615" type="line"/>
			<point x="231" y="630"/>
			<point x="238" y="643"/>
			<point x="253" y="654" type="curve" smooth="yes"/>
			<point x="267" y="664"/>
			<point x="286" y="670"/>
			<point x="311" y="670" type="curve" smooth="yes"/>
			<point x="329" y="670"/>
			<point x="344" y="667"/>
			<point x="356" y="661" type="curve" smooth="yes"/>
			<point x="367" y="654"/>
			<point x="376" y="646"/>
			<point x="382" y="638" type="curve" smooth="yes"/>
			<point x="388" y="628"/>
			<point x="392" y="619"/>
			<point x="394" y="610" type="curve" smooth="yes"/>
			<point x="395" y="600"/>
			<point x="396" y="590"/>
			<point x="396" y="582" type="curve" smooth="yes"/>
			<point x="396" y="546" type="line"/>
			<point x="375" y="546"/>
			<point x="352" y="545"/>
			<point x="327" y="545" type="curve" smooth="yes"/>
			<point x="301" y="543"/>
			<point x="275" y="538"/>
			<point x="250" y="528" type="curve" smooth="yes"/>
			<point x="226" y="517"/>
			<point x="205" y="502"/>
			<point x="188" y="484" type="curve" smooth="yes"/>
			<point x="170" y="464"/>
			<point x="162" y="439"/>
			<point x="162" y="408" type="curve" smooth="yes"/>
			<point x="162" y="392"/>
			<point x="165" y="379"/>
			<point x="171" y="367" type="curve" smooth="yes"/>
			<point x="176" y="355"/>
			<point x="184" y="345"/>
			<point x="194" y="337" type="curve" smooth="yes"/>
			<point x="204" y="328"/>
			<point x="215" y="322"/>
			<point x="227" y="318" type="curve" smooth="yes"/>
			<point x="239" y="313"/>
			<point x="251" y="311"/>
			<point x="264" y="311" type="curve" smooth="yes"/>
			<point x="281" y="311"/>
			<point x="296" y="312"/>
			<point x="310" y="315" type="curve" smooth="yes"/>
			<point x="323" y="317"/>
			<point x="335" y="322"/>
			<point x="345" y="328" type="curve" smooth="yes"/>
			<point x="361" y="337"/>
			<point x="378" y="354"/>
			<point x="396" y="380" type="curve"/>
		</contour>
		<contour>
			<point x="396" y="464" type="line" smooth="yes"/>
			<point x="396" y="432"/>
			<point x="386" y="406"/>
			<point x="366" y="385" type="curve" smooth="yes"/>
			<point x="345" y="363"/>
			<point x="320" y="353"/>
			<point x="290" y="353" type="curve" smooth="yes"/>
			<point x="272" y="353"/>
			<point x="255" y="357"/>
			<point x="240" y="367" type="curve" smooth="yes"/>
			<point x="224" y="375"/>
			<point x="217" y="392"/>
			<point x="217" y="416" type="curve" smooth="yes"/>
			<point x="217" y="439"/>
			<point x="223" y="457"/>
			<point x="237" y="471" type="curve" smooth="yes"/>
			<point x="250" y="484"/>
			<point x="266" y="494"/>
			<point x="284" y="500" type="curve" smooth="yes"/>
			<point x="302" y="505"/>
			<point x="320" y="508"/>
			<point x="340" y="510" type="curve" smooth="yes"/>
			<point x="358" y="510"/>
			<point x="377" y="511"/>
			<point x="396" y="511" type="curve"/>
		</contour>
	</outline>
</glyph>
<glyph name="logicalnot" format="2">
	<unicode hex="00AC"/>
	<advance width="940"/>
	<outline>
		<contour>
			<point x="888" y="387" type="line"/>
			<point x="25" y="387" type="line"/>
			<point x="25" y="333" type="line"/>
			<point x="824" y="333" type="line"/>
			<point x="824" y="58" type="line"/>
			<point x="888" y="58" type="line"/>
		</contour>
	</outline>
</glyph>
<glyph name="uni00AD" format="2">
	<unicode hex="00AD"/>
	<advance width="367"/>
	<outline>
		<contour>
			<point x="316" y="371" type="line"/>
			<point x="50" y="371" type="line"/>
			<point x="50" y="313" type="line"/>
			<point x="316" y="313" type="line"/>
		</contour>
	</outline>
</glyph>
<glyph name="registered" format="2">
	<unicode hex="00AE"/>
	<advance width="838"/>
	<outline>
		<contour>
			<point x="774" y="331" type="curve" smooth="yes"/>
			<point x="774" y="121.462"/>
			<point x="626.862" y="-35"/>
			<point x="419" y="-35" type="curve" smooth="yes"/>
			<point x="210.134" y="-35"/>
			<point x="64" y="121.01"/>
			<point x="64" y="331" type="curve" smooth="yes"/>
			<point x="64" y="540.498"/>
			<point x="210.091" y="699"/>
			<point x="419" y="699" type="curve" smooth="yes"/>
			<point x="627.056" y="699"/>
			<point x="774" y="541.084"/>
		</contour>
		<contour>
			<point x="808" y="331" type="curve" smooth="yes"/>
			<point x="808" y="558.366"/>
			<point x="644.443" y="731"/>
			<point x="419" y="731" type="curve" smooth="yes"/>
			<point x="192.314" y="731"/>
			<point x="30" y="557.747"/>
			<point x="30" y="331" type="curve" smooth="yes"/>
			<point x="30" y="103.149"/>
			<point x="192.655" y="-67"/>
			<point x="419" y="-67" type="curve" smooth="yes"/>
			<point x="644.679" y="-67"/>
			<point x="808" y="104.215"/>
		</contour>
		<contour>
			<point x="582" y="449" type="curve" smooth="yes"/>
			<point x="582" y="545.81"/>
			<point x="510.547" y="593"/>
			<point x="415" y="593" type="curve" smooth="yes"/>
			<point x="288" y="593" type="line"/>
			<point x="288" y="80" type="line"/>
			<point x="333" y="80" type="line"/>
			<point x="333" y="304" type="line"/>
			<point x="361.667" y="304"/>
			<point x="390.333" y="304"/>
			<point x="419" y="304" type="curve" smooth="yes"/>
			<point x="503.026" y="304"/>
			<point x="530.287" y="188.679"/>
			<point x="546" y="80" type="curve"/>
			<point x="593" y="80" type="line"/>
			<point x="574.502" y="181.74"/>
			<point x="555.534" y="283.378"/>
			<point x="474" y="322" type="curve"/>
			<point x="534.43" y="337.107"/>
			<point x="582" y="375.299"/>
		</contour>
		<contour>
			<point x="333" y="346" type="curve"/>
			<point x="333" y="554" type="line"/>
			<point x="412" y="554" type="line" smooth="yes"/>
			<point x="427" y="554"/>
			<point x="442" y="552"/>
			<point x="456" y="549" type="curve" smooth="yes"/>
			<point x="500.911" y="536.168"/>
			<point x="537" y="506.823"/>
			<point x="537" y="449" type="curve" smooth="yes"/>
			<point x="537" y="379.858"/>
			<point x="483.673" y="346"/>
			<point x="416" y="346" type="curve" smooth="yes"/>
			<point x="388.333" y="346"/>
			<point x="360.667" y="346"/>
		</contour>
	</outline>
</glyph>
<glyph name="degree" format="2">
	<unicode hex="00B0"/>
	<advance width="255"/>
	<outline>
		<contour>
			<point x="179" y="670" type="curve" smooth="yes"/>
			<point x="179" y="642.234"/>
			<point x="155.765" y="619"/>
			<point x="128" y="619" type="curve" smooth="yes"/>
			<point x="100.234" y="619"/>
			<point x="77" y="642.235"/>
			<point x="77" y="670" type="curve" smooth="yes"/>
			<point x="77" y="697.766"/>
			<point x="100.235" y="721"/>
			<point x="128" y="721" type="curve" smooth="yes"/>
			<point x="155.766" y="721"/>
			<point x="179" y="697.765"/>
		</contour>
		<contour>
			<point x="219" y="670" type="curve" smooth="yes"/>
			<point x="219" y="720.677"/>
			<point x="178.686" y="761"/>
			<point x="128" y="761" type="curve" smooth="yes"/>
			<point x="76.7977" y="761"/>
			<point x="37" y="719.62"/>
			<point x="37" y="670" type="curve" smooth="yes"/>
			<point x="37" y="619.855"/>
			<point x="77.8707" y="579"/>
			<point x="128" y="579" type="curve" smooth="yes"/>
			<point x="177.616" y="579"/>
			<point x="219" y="618.809"/>
		</contour>
	</outline>
</glyph>
<glyph name="plusminus" format="2">
	<unicode hex="00B1"/>
	<advance width="606"/>
	<outline>
		<contour>
			<point x="536" y="390" type="line"/>
			<point x="536" y="439" type="line"/>
			<point x="323" y="439" type="line"/>
			<point x="323" y="628" type="line"/>
			<point x="269" y="628" type="line"/>
			<point x="269" y="439" type="line"/>
			<point x="56" y="439" type="line"/>
			<point x="56" y="390" type="line"/>
			<point x="269" y="390" type="line"/>
			<point x="269" y="197" type="line"/>
			<point x="323" y="197" type="line"/>
			<point x="323" y="390" type="line"/>
		</contour>
		<contour>
			<point x="536" y="62" type="line"/>
			<point x="536" y="110" type="line"/>
			<point x="56" y="110" type="line"/>
			<point x="56" y="62" type="line"/>
		</contour>
	</outline>
</glyph>
<glyph name="uni00B2" format="2">
	<unicode hex="00B2"/>
	<advance width="348"/>
	<outline>
		<contour>
			<point x="77" y="386" type="line"/>
			<point x="95" y="404"/>
			<point x="106" y="414"/>
			<point x="148" y="466" type="curve" smooth="yes"/>
			<point x="182" y="507"/>
			<point x="206" y="546"/>
			<point x="221" y="584" type="curve" smooth="yes"/>
			<point x="224" y="594"/>
			<point x="228" y="624"/>
			<point x="228" y="639" type="curve" smooth="yes"/>
			<point x="228" y="671"/>
			<point x="209" y="705"/>
			<point x="171" y="705" type="curve" smooth="yes"/>
			<point x="137.473" y="705"/>
			<point x="115.874" y="676.554"/>
			<point x="115.874" y="646.031" type="curve" smooth="yes"/>
			<point x="115.874" y="644.691"/>
			<point x="115.916" y="643.346"/>
			<point x="116" y="642" type="curve"/>
			<point x="74" y="642" type="line"/>
			<point x="74" y="695"/>
			<point x="113" y="742"/>
			<point x="171" y="742" type="curve" smooth="yes"/>
			<point x="231" y="742"/>
			<point x="269" y="697"/>
			<point x="269" y="635" type="curve" smooth="yes"/>
			<point x="269" y="616"/>
			<point x="264" y="586"/>
			<point x="259" y="573" type="curve" smooth="yes"/>
			<point x="248" y="543"/>
			<point x="233" y="514"/>
			<point x="214" y="488" type="curve" smooth="yes"/>
			<point x="194" y="461"/>
			<point x="165" y="427"/>
			<point x="128" y="385" type="curve"/>
			<point x="276" y="385" type="line"/>
			<point x="276" y="344" type="line"/>
			<point x="77" y="344" type="line"/>
		</contour>
	</outline>
</glyph>
<glyph name="uni00B3" format="2">
	<unicode hex="00B3"/>
	<advance width="357"/>
	<outline>
		<contour>
			<point x="220" y="554" type="curve"/>
			<point x="256.921" y="562.687"/>
			<point x="270" y="589.052"/>
			<point x="270" y="638" type="curve" smooth="yes"/>
			<point x="270" y="700.699"/>
			<point x="231.614" y="741"/>
			<point x="170" y="741" type="curve" smooth="yes"/>
			<point x="117.916" y="741"/>
			<point x="74" y="705.283"/>
			<point x="74" y="658" type="curve"/>
			<point x="112" y="658" type="line"/>
			<point x="114.548" y="686.032"/>
			<point x="140.17" y="705"/>
			<point x="175" y="705" type="curve" smooth="yes"/>
			<point x="210.521" y="705"/>
			<point x="229" y="675.378"/>
			<point x="229" y="638" type="curve" smooth="yes"/>
			<point x="229" y="586.91"/>
			<point x="205.092" y="568"/>
			<point x="155" y="568" type="curve"/>
			<point x="155" y="532" type="line"/>
			<point x="200.99" y="532"/>
			<point x="234" y="508.607"/>
			<point x="234" y="455" type="curve" smooth="yes"/>
			<point x="234" y="407.497"/>
			<point x="214.469" y="374"/>
			<point x="169" y="374" type="curve" smooth="yes"/>
			<point x="136.046" y="374"/>
			<point x="110" y="395.31"/>
			<point x="110" y="422" type="curve"/>
			<point x="67" y="422" type="line"/>
			<point x="71.7191" y="372.449"/>
			<point x="111.047" y="337"/>
			<point x="171" y="337" type="curve" smooth="yes"/>
			<point x="236.358" y="337"/>
			<point x="276" y="387.353"/>
			<point x="276" y="453" type="curve" smooth="yes"/>
			<point x="276" y="513.226"/>
			<point x="259.965" y="529.26"/>
		</contour>
	</outline>
</glyph>
<glyph name="acute" format="2">
	<unicode hex="00B4"/>
	<advance width="871"/>
	<outline>
		<contour>
			<point x="483" y="723" type="line"/>
			<point x="409" y="723" type="line"/>
			<point x="356" y="565" type="line"/>
			<point x="409" y="565" type="line"/>
		</contour>
	</outline>
</glyph>
<glyph name="paragraph" format="2">
	<unicode hex="00B6"/>
	<advance width="838"/>
	<outline>
		<contour>
			<point x="358" y="705" type="line" smooth="yes"/>
			<point x="265.277" y="705"/>
			<point x="197" y="617.535"/>
			<point x="197" y="523" type="curve" smooth="yes"/>
			<point x="197" y="413.81"/>
			<point x="262.587" y="337"/>
			<point x="374" y="337" type="curve"/>
			<point x="374" y="-140" type="line"/>
			<point x="404" y="-140" type="line"/>
			<point x="404" y="676" type="line"/>
			<point x="501" y="676" type="line"/>
			<point x="501" y="-140" type="line"/>
			<point x="532" y="-140" type="line"/>
			<point x="532" y="705" type="line"/>
		</contour>
	</outline>
</glyph>
<glyph name="periodcentered" format="2">
	<unicode hex="00B7"/>
	<advance width="259"/>
	<outline>
		<contour>
			<point x="169" y="382" type="line"/>
			<point x="91" y="382" type="line"/>
			<point x="91" y="298" type="line"/>
			<point x="169" y="298" type="line"/>
		</contour>
	</outline>
</glyph>
<glyph name="cedilla" format="2">
	<unicode hex="00B8"/>
	<advance width="280"/>
	<outline>
		<contour>
			<point x="240" y="27" type="line"/>
			<point x="177" y="27" type="line"/>
			<point x="177" y="-73" type="line"/>
			<point x="173.137" y="-109.698"/>
			<point x="149.428" y="-121"/>
			<point x="111" y="-121" type="curve" smooth="yes"/>
			<point x="84.9068" y="-121"/>
			<point x="60.9533" y="-110.545"/>
			<point x="46" y="-102" type="curve"/>
			<point x="36" y="-120" type="line"/>
			<point x="58.7675" y="-136.558"/>
			<point x="95.9755" y="-149"/>
			<point x="137" y="-149" type="curve" smooth="yes"/>
			<point x="189.994" y="-149"/>
			<point x="240" y="-119.227"/>
			<point x="240" y="-68" type="curve" smooth="yes"/>
		</contour>
	</outline>
</glyph>
<glyph name="uni00B9" format="2">
	<unicode hex="00B9"/>
	<advance width="361"/>
	<outline>
		<contour>
			<point x="161" y="692" type="line"/>
			<point x="161" y="342" type="line"/>
			<point x="200" y="342" type="line"/>
			<point x="200" y="739" type="line"/>
			<point x="167" y="739" type="line"/>
			<point x="101" y="693" type="line"/>
			<point x="101" y="649" type="line"/>
		</contour>
	</outline>
</glyph>
<glyph name="ordmasculine" format="2">
	<unicode hex="00BA"/>
	<advance width="611"/>
	<outline>
		<contour>
			<point x="116" y="199" type="line"/>
			<point x="487" y="199" type="line"/>
			<point x="487" y="242" type="line"/>
			<point x="116" y="242" type="line"/>
		</contour>
		<contour>
			<point x="303" y="315" type="curve" smooth="yes"/>
			<point x="353" y="315"/>
			<point x="392" y="333"/>
			<point x="421" y="369" type="curve" smooth="yes"/>
			<point x="449" y="405"/>
			<point x="464" y="452"/>
			<point x="464" y="512" type="curve" smooth="yes"/>
			<point x="464" y="572"/>
			<point x="449" y="620"/>
			<point x="421" y="657" type="curve" smooth="yes"/>
			<point x="391" y="693"/>
			<point x="351" y="712"/>
			<point x="301" y="712" type="curve" smooth="yes"/>
			<point x="274" y="712"/>
			<point x="251" y="706"/>
			<point x="231" y="696" type="curve" smooth="yes"/>
			<point x="211" y="685"/>
			<point x="194" y="670"/>
			<point x="181" y="652" type="curve" smooth="yes"/>
			<point x="167" y="633"/>
			<point x="157" y="612"/>
			<point x="151" y="588" type="curve" smooth="yes"/>
			<point x="144" y="564"/>
			<point x="141" y="538"/>
			<point x="141" y="511" type="curve" smooth="yes"/>
			<point x="141" y="448"/>
			<point x="156" y="400"/>
			<point x="186" y="366" type="curve" smooth="yes"/>
			<point x="216" y="332"/>
			<point x="255" y="315"/>
		</contour>
		<contour>
			<point x="197" y="511" type="curve" smooth="yes"/>
			<point x="197" y="531"/>
			<point x="198" y="551"/>
			<point x="202" y="570" type="curve" smooth="yes"/>
			<point x="204" y="588"/>
			<point x="210" y="605"/>
			<point x="219" y="620" type="curve" smooth="yes"/>
			<point x="226" y="634"/>
			<point x="237" y="646"/>
			<point x="251" y="656" type="curve" smooth="yes"/>
			<point x="264" y="665"/>
			<point x="280" y="670"/>
			<point x="300" y="670" type="curve" smooth="yes"/>
			<point x="339" y="670"/>
			<point x="367" y="654"/>
			<point x="383" y="622" type="curve" smooth="yes"/>
			<point x="399" y="590"/>
			<point x="407" y="553"/>
			<point x="407" y="512" type="curve" smooth="yes"/>
			<point x="407" y="470"/>
			<point x="399" y="433"/>
			<point x="384" y="403" type="curve" smooth="yes"/>
			<point x="368" y="372"/>
			<point x="341" y="357"/>
			<point x="303" y="357" type="curve" smooth="yes"/>
			<point x="264" y="357"/>
			<point x="237" y="372"/>
			<point x="221" y="403" type="curve" smooth="yes"/>
			<point x="205" y="433"/>
			<point x="197" y="469"/>
		</contour>
	</outline>
</glyph>
<glyph name="onequarter" format="2">
	<unicode hex="00BC"/>
	<advance width="862"/>
	<outline>
		<contour>
			<point x="130" y="-50" type="line"/>
			<point x="715" y="710" type="line"/>
			<point x="680" y="736" type="line"/>
			<point x="95" y="-24" type="line"/>
		</contour>
		<contour>
			<point x="204" y="682" type="line"/>
			<point x="204" y="332" type="line"/>
			<point x="249" y="332" type="line"/>
			<point x="249" y="729" type="line"/>
			<point x="211" y="729" type="line"/>
			<point x="144" y="683" type="line"/>
			<point x="144" y="639" type="line"/>
		</contour>
		<contour>
			<point x="617" y="51" type="line"/>
			<point x="617" y="-55" type="line"/>
			<point x="660" y="-55" type="line"/>
			<point x="660" y="51" type="line"/>
			<point x="716" y="51" type="line"/>
			<point x="716" y="92" type="line"/>
			<point x="660" y="92" type="line"/>
			<point x="660" y="342" type="line"/>
			<point x="615" y="342" type="line"/>
			<point x="479" y="88" type="line"/>
			<point x="479" y="51" type="line"/>
		</contour>
		<contour>
			<point x="617" y="277" type="line"/>
			<point x="617" y="92" type="line"/>
			<point x="522" y="92" type="line"/>
		</contour>
	</outline>
</glyph>
<glyph name="onehalf" format="2">
	<unicode hex="00BD"/>
	<advance width="838"/>
	<outline>
		<contour>
			<point x="130" y="-50" type="line"/>
			<point x="95" y="-24" type="line"/>
			<point x="680" y="736" type="line"/>
			<point x="715" y="710" type="line"/>
		</contour>
		<contour>
			<point x="204" y="682" type="line"/>
			<point x="144" y="639" type="line"/>
			<point x="144" y="683" type="line"/>
			<point x="211" y="729" type="line"/>
			<point x="249" y="729" type="line"/>
			<point x="249" y="332" type="line"/>
			<point x="204" y="332" type="line"/>
		</contour>
		<contour>
			<point x="499" y="-15" type="line"/>
			<point x="547" y="28"/>
			<point x="650" y="140"/>
			<point x="650" y="239" type="curve" smooth="yes"/>
			<point x="650" y="273"/>
			<point x="632" y="305"/>
			<point x="595" y="305" type="curve" smooth="yes"/>
			<point x="564.407" y="305"/>
			<point x="543.869" y="274.839"/>
			<point x="543.869" y="245.973" type="curve" smooth="yes"/>
			<point x="543.869" y="244.645"/>
			<point x="543.912" y="243.319"/>
			<point x="544" y="242" type="curve"/>
			<point x="496" y="242" type="line"/>
			<point x="496" y="297"/>
			<point x="535" y="342"/>
			<point x="595" y="342" type="curve" smooth="yes"/>
			<point x="652" y="342"/>
			<point x="697" y="294"/>
			<point x="697" y="235" type="curve" smooth="yes"/>
			<point x="697" y="120"/>
			<point x="614" y="49"/>
			<point x="556" y="-15" type="curve"/>
			<point x="704" y="-15" type="line"/>
			<point x="704" y="-56" type="line"/>
			<point x="499" y="-56" type="line"/>
		</contour>
	</outline>
</glyph>
<glyph name="threequarters" format="2">
	<unicode hex="00BE"/>
	<advance width="838"/>
	<outline>
		<contour>
			<point x="130" y="-50" type="line"/>
			<point x="715" y="710" type="line"/>
			<point x="680" y="736" type="line"/>
			<point x="95" y="-24" type="line"/>
		</contour>
		<contour>
			<point x="617" y="51" type="line"/>
			<point x="617" y="-55" type="line"/>
			<point x="660" y="-55" type="line"/>
			<point x="660" y="51" type="line"/>
			<point x="716" y="51" type="line"/>
			<point x="716" y="92" type="line"/>
			<point x="660" y="92" type="line"/>
			<point x="660" y="342" type="line"/>
			<point x="615" y="342" type="line"/>
			<point x="479" y="88" type="line"/>
			<point x="479" y="51" type="line"/>
		</contour>
		<contour>
			<point x="617" y="277" type="line"/>
			<point x="617" y="92" type="line"/>
			<point x="522" y="92" type="line"/>
		</contour>
		<contour>
			<point x="236" y="550" type="curve"/>
			<point x="272.127" y="565.211"/>
			<point x="293" y="587.115"/>
			<point x="293" y="638" type="curve" smooth="yes"/>
			<point x="293" y="697.108"/>
			<point x="248.648" y="741"/>
			<point x="190" y="741" type="curve" smooth="yes"/>
			<point x="136.76" y="741"/>
			<point x="91" y="706.007"/>
			<point x="91" y="658" type="curve"/>
			<point x="135" y="658" type="line"/>
			<point x="137.427" y="684.696"/>
			<point x="162.634" y="705"/>
			<point x="195" y="705" type="curve" smooth="yes"/>
			<point x="228.112" y="705"/>
			<point x="247" y="672.97"/>
			<point x="247" y="638" type="curve" smooth="yes"/>
			<point x="247" y="589.247"/>
			<point x="217.484" y="568"/>
			<point x="173" y="568" type="curve"/>
			<point x="173" y="532" type="line"/>
			<point x="219.336" y="532"/>
			<point x="251" y="509.013"/>
			<point x="251" y="455" type="curve" smooth="yes"/>
			<point x="251" y="409.093"/>
			<point x="231.827" y="374"/>
			<point x="189" y="374" type="curve" smooth="yes"/>
			<point x="158.49" y="374"/>
			<point x="133" y="396.649"/>
			<point x="133" y="422" type="curve"/>
			<point x="84" y="422" type="line"/>
			<point x="88.8941" y="373.059"/>
			<point x="130.343" y="337"/>
			<point x="191" y="337" type="curve" smooth="yes"/>
			<point x="258.554" y="337"/>
			<point x="300" y="386.28"/>
			<point x="300" y="453" type="curve" smooth="yes"/>
			<point x="300" y="507.459"/>
			<point x="274.359" y="532.739"/>
		</contour>
	</outline>
</glyph>
<glyph name="questiondown" format="2">
	<unicode hex="00BF"/>
	<advance width="838"/>
	<outline>
		<contour>
			<point x="213" y="109" type="curve" smooth="yes"/>
			<point x="213" y="80"/>
			<point x="219" y="55"/>
			<point x="232" y="35" type="curve" smooth="yes"/>
			<point x="244" y="14"/>
			<point x="259" y="-2"/>
			<point x="277" y="-16" type="curve" smooth="yes"/>
			<point x="295" y="-30"/>
			<point x="315" y="-40"/>
			<point x="338" y="-47" type="curve" smooth="yes"/>
			<point x="360" y="-53"/>
			<point x="382" y="-56"/>
			<point x="403" y="-56" type="curve" smooth="yes"/>
			<point x="418" y="-56"/>
			<point x="433" y="-55"/>
			<point x="447" y="-53" type="curve" smooth="yes"/>
			<point x="461" y="-51"/>
			<point x="473" y="-48"/>
			<point x="485" y="-46" type="curve" smooth="yes"/>
			<point x="497" y="-43"/>
			<point x="507" y="-40"/>
			<point x="517" y="-38" type="curve" smooth="yes"/>
			<point x="526" y="-35"/>
			<point x="534" y="-33"/>
			<point x="540" y="-31" type="curve"/>
			<point x="540" y="34" type="line"/>
			<point x="535" y="32"/>
			<point x="528" y="29"/>
			<point x="519" y="25" type="curve" smooth="yes"/>
			<point x="509" y="21"/>
			<point x="497" y="17"/>
			<point x="484" y="13" type="curve" smooth="yes"/>
			<point x="470" y="9"/>
			<point x="457" y="6"/>
			<point x="445" y="4" type="curve" smooth="yes"/>
			<point x="431" y="1"/>
			<point x="418" y="0"/>
			<point x="405" y="0" type="curve" smooth="yes"/>
			<point x="389" y="0"/>
			<point x="375" y="3"/>
			<point x="361" y="10" type="curve" smooth="yes"/>
			<point x="346" y="16"/>
			<point x="333" y="23"/>
			<point x="322" y="33" type="curve" smooth="yes"/>
			<point x="310" y="43"/>
			<point x="301" y="55"/>
			<point x="294" y="69" type="curve" smooth="yes"/>
			<point x="286" y="82"/>
			<point x="283" y="96"/>
			<point x="283" y="112" type="curve" smooth="yes"/>
			<point x="283" y="128"/>
			<point x="287" y="145"/>
			<point x="295" y="163" type="curve" smooth="yes"/>
			<point x="303" y="180"/>
			<point x="312" y="196"/>
			<point x="323" y="211" type="curve" smooth="yes"/>
			<point x="334" y="226"/>
			<point x="346" y="240"/>
			<point x="359" y="254" type="curve" smooth="yes"/>
			<point x="371" y="267"/>
			<point x="382" y="279"/>
			<point x="392" y="289" type="curve" smooth="yes"/>
			<point x="411" y="311"/>
			<point x="426" y="333"/>
			<point x="437" y="356" type="curve" smooth="yes"/>
			<point x="447" y="378"/>
			<point x="453" y="409"/>
			<point x="453" y="447" type="curve" smooth="yes"/>
			<point x="453" y="516" type="line"/>
			<point x="390" y="516" type="line"/>
			<point x="390" y="468" type="line" smooth="yes"/>
			<point x="390" y="446"/>
			<point x="389" y="428"/>
			<point x="387" y="414" type="curve" smooth="yes"/>
			<point x="384" y="399"/>
			<point x="380" y="386"/>
			<point x="374" y="376" type="curve" smooth="yes"/>
			<point x="369" y="365"/>
			<point x="363" y="355"/>
			<point x="357" y="347" type="curve" smooth="yes"/>
			<point x="350" y="338"/>
			<point x="343" y="328"/>
			<point x="335" y="318" type="curve" smooth="yes"/>
			<point x="328" y="310"/>
			<point x="318" y="299"/>
			<point x="305" y="285" type="curve" smooth="yes"/>
			<point x="291" y="270"/>
			<point x="278" y="254"/>
			<point x="264" y="236" type="curve" smooth="yes"/>
			<point x="250" y="218"/>
			<point x="239" y="199"/>
			<point x="229" y="177" type="curve" smooth="yes"/>
			<point x="218" y="155"/>
			<point x="213" y="132"/>
		</contour>
		<contour>
			<point x="376" y="728" type="line"/>
			<point x="376" y="638" type="line"/>
			<point x="463" y="638" type="line"/>
			<point x="463" y="728" type="line"/>
		</contour>
	</outline>
</glyph>
<glyph name="Eth" format="2">
  <advance width="627"/>
  <unicode hex="00D0"/>
  <outline>
    <contour>
      <point x="134" y="345" type="line"/>
      <point x="134" y="14" type="line"/>
      <point x="273" y="14" type="line" smooth="yes"/>
      <point x="310" y="14"/>
      <point x="347" y="18"/>
      <point x="385" y="28" type="curve" smooth="yes"/>
      <point x="410" y="34"/>
      <point x="434" y="46"/>
      <point x="457" y="64" type="curve" smooth="yes"/>
      <point x="479" y="82"/>
      <point x="499" y="104"/>
      <point x="517" y="132" type="curve" smooth="yes"/>
      <point x="535" y="159"/>
      <point x="550" y="191"/>
      <point x="561" y="228" type="curve" smooth="yes"/>
      <point x="571" y="264"/>
      <point x="576" y="308"/>
      <point x="576" y="359" type="curve" smooth="yes"/>
      <point x="576" y="445"/>
      <point x="561" y="514"/>
      <point x="533" y="564" type="curve" smooth="yes"/>
      <point x="503" y="614"/>
      <point x="466" y="650"/>
      <point x="422" y="672" type="curve" smooth="yes"/>
      <point x="384" y="690"/>
      <point x="337" y="699"/>
      <point x="283" y="699" type="curve" smooth="yes"/>
      <point x="134" y="699" type="line"/>
      <point x="134" y="385" type="line"/>
      <point x="32" y="385" type="line"/>
      <point x="32" y="345" type="line"/>
    </contour>
    <contour>
      <point x="188" y="345" type="line"/>
      <point x="382" y="345" type="line"/>
      <point x="382" y="385" type="line"/>
      <point x="188" y="385" type="line"/>
      <point x="188" y="648" type="line"/>
      <point x="263" y="648" type="line" smooth="yes"/>
      <point x="303" y="647"/>
      <point x="336" y="644"/>
      <point x="364" y="639" type="curve" smooth="yes"/>
      <point x="383" y="633"/>
      <point x="402" y="624"/>
      <point x="422" y="612" type="curve" smooth="yes"/>
      <point x="440" y="599"/>
      <point x="457" y="581"/>
      <point x="472" y="558" type="curve" smooth="yes"/>
      <point x="486" y="535"/>
      <point x="497" y="508"/>
      <point x="507" y="476" type="curve" smooth="yes"/>
      <point x="516" y="444"/>
      <point x="521" y="404"/>
      <point x="522" y="358" type="curve" smooth="yes"/>
      <point x="522" y="312"/>
      <point x="517" y="274"/>
      <point x="508" y="243" type="curve" smooth="yes"/>
      <point x="498" y="211"/>
      <point x="486" y="183"/>
      <point x="472" y="160" type="curve" smooth="yes"/>
      <point x="458" y="139"/>
      <point x="442" y="121"/>
      <point x="424" y="105" type="curve" smooth="yes"/>
      <point x="405" y="89"/>
      <point x="387" y="79"/>
      <point x="370" y="75" type="curve" smooth="yes"/>
      <point x="337" y="67"/>
      <point x="304" y="64"/>
      <point x="272" y="65" type="curve" smooth="yes"/>
      <point x="188" y="65" type="line"/>
    </contour>
  </outline>
</glyph>
<glyph name="multiply" format="2">
	<unicode hex="00D7"/>
	<advance width="606"/>
	<outline>
		<contour>
			<point x="479" y="583" type="line"/>
			<point x="294" y="373" type="line"/>
			<point x="109" y="583" type="line"/>
			<point x="73" y="549" type="line"/>
			<point x="261" y="336" type="line"/>
			<point x="73" y="123" type="line"/>
			<point x="109" y="88" type="line"/>
			<point x="294" y="298" type="line"/>
			<point x="479" y="88" type="line"/>
			<point x="515" y="123" type="line"/>
			<point x="327" y="336" type="line"/>
			<point x="515" y="549" type="line"/>
		</contour>
	</outline>
</glyph>
<glyph name="Oslash" format="2">
  <advance width="676"/>
  <unicode hex="00D8"/>
  <outline>
    <contour>
      <point x="549" y="357" type="curve" smooth="yes"/>
      <point x="549" y="315"/>
      <point x="544" y="276"/>
      <point x="534" y="238" type="curve" smooth="yes"/>
      <point x="524" y="199"/>
      <point x="509" y="165"/>
      <point x="491" y="137" type="curve" smooth="yes"/>
      <point x="471" y="109"/>
      <point x="447" y="88"/>
      <point x="420" y="73" type="curve" smooth="yes"/>
      <point x="392" y="57"/>
      <point x="363" y="50"/>
      <point x="334" y="50" type="curve" smooth="yes"/>
      <point x="304" y="50"/>
      <point x="276" y="57"/>
      <point x="249" y="73" type="curve" smooth="yes"/>
      <point x="233" y="81"/>
      <point x="218" y="92"/>
      <point x="205" y="105" type="curve"/>
      <point x="507" y="550" type="line"/>
      <point x="517" y="528"/>
      <point x="526" y="503"/>
      <point x="534" y="477" type="curve" smooth="yes"/>
      <point x="544" y="438"/>
      <point x="549" y="398"/>
    </contour>
    <contour>
      <point x="487" y="583" type="curve"/>
      <point x="181" y="131" type="line"/>
      <point x="177" y="137" type="line" smooth="yes"/>
      <point x="158" y="165"/>
      <point x="144" y="199"/>
      <point x="134" y="238" type="curve" smooth="yes"/>
      <point x="124" y="276"/>
      <point x="119" y="315"/>
      <point x="119" y="357" type="curve" smooth="yes"/>
      <point x="119" y="398"/>
      <point x="124" y="438"/>
      <point x="134" y="477" type="curve" smooth="yes"/>
      <point x="144" y="515"/>
      <point x="158" y="548"/>
      <point x="177" y="577" type="curve" smooth="yes"/>
      <point x="197" y="604"/>
      <point x="221" y="625"/>
      <point x="249" y="641" type="curve" smooth="yes"/>
      <point x="276" y="656"/>
      <point x="304" y="664"/>
      <point x="334" y="664" type="curve" smooth="yes"/>
      <point x="363" y="664"/>
      <point x="392" y="656"/>
      <point x="420" y="641" type="curve" smooth="yes"/>
      <point x="445" y="627"/>
      <point x="467" y="607"/>
    </contour>
    <contour>
      <point x="607" y="357" type="curve" smooth="yes"/>
      <point x="607" y="406"/>
      <point x="600" y="453"/>
      <point x="587" y="497" type="curve" smooth="yes"/>
      <point x="575" y="535"/>
      <point x="559" y="569"/>
      <point x="539" y="599" type="curve"/>
      <point x="591" y="675" type="line"/>
      <point x="563" y="696" type="line"/>
      <point x="517" y="628" type="line"/>
      <point x="495" y="652"/>
      <point x="470" y="671"/>
      <point x="442" y="686" type="curve" smooth="yes"/>
      <point x="407" y="702"/>
      <point x="371" y="711"/>
      <point x="334" y="711" type="curve" smooth="yes"/>
      <point x="296" y="711"/>
      <point x="261" y="702"/>
      <point x="227" y="686" type="curve" smooth="yes"/>
      <point x="192" y="668"/>
      <point x="162" y="644"/>
      <point x="138" y="612" type="curve" smooth="yes"/>
      <point x="113" y="579"/>
      <point x="94" y="541"/>
      <point x="81" y="497" type="curve" smooth="yes"/>
      <point x="67" y="453"/>
      <point x="61" y="406"/>
      <point x="61" y="357" type="curve" smooth="yes"/>
      <point x="61" y="307"/>
      <point x="67" y="261"/>
      <point x="81" y="217" type="curve" smooth="yes"/>
      <point x="94" y="173"/>
      <point x="113" y="134"/>
      <point x="138" y="102" type="curve" smooth="yes"/>
      <point x="142" y="96"/>
      <point x="146" y="91"/>
      <point x="151" y="86" type="curve"/>
      <point x="100" y="11" type="line"/>
      <point x="130" y="-7" type="line"/>
      <point x="176" y="62" type="line"/>
      <point x="191" y="48"/>
      <point x="208" y="37"/>
      <point x="227" y="29" type="curve" smooth="yes"/>
      <point x="261" y="11"/>
      <point x="296" y="3"/>
      <point x="334" y="3" type="curve" smooth="yes"/>
      <point x="371" y="3"/>
      <point x="407" y="11"/>
      <point x="442" y="29" type="curve" smooth="yes"/>
      <point x="476" y="45"/>
      <point x="505" y="70"/>
      <point x="530" y="102" type="curve" smooth="yes"/>
      <point x="554" y="134"/>
      <point x="573" y="173"/>
      <point x="587" y="217" type="curve" smooth="yes"/>
      <point x="600" y="261"/>
      <point x="607" y="307"/>
    </contour>
  </outline>
</glyph>
<glyph name="Thorn" format="2">
	<unicode hex="00DE"/>
	<advance width="525"/>
	<outline>
		<contour>
			<point x="137" y="699" type="line"/>
			<point x="82" y="699" type="line"/>
			<point x="82" y="14" type="line"/>
			<point x="137" y="14" type="line"/>
			<point x="137" y="144" type="line"/>
			<point x="261" y="144" type="line" smooth="yes"/>
			<point x="288" y="144"/>
			<point x="314" y="147"/>
			<point x="340" y="154" type="curve" smooth="yes"/>
			<point x="364" y="160"/>
			<point x="387" y="170"/>
			<point x="407" y="186" type="curve" smooth="yes"/>
			<point x="427" y="200"/>
			<point x="443" y="220"/>
			<point x="456" y="245" type="curve" smooth="yes"/>
			<point x="468" y="269"/>
			<point x="475" y="299"/>
			<point x="475" y="335" type="curve" smooth="yes"/>
			<point x="475" y="368"/>
			<point x="468" y="397"/>
			<point x="456" y="422" type="curve" smooth="yes"/>
			<point x="443" y="446"/>
			<point x="426" y="467"/>
			<point x="405" y="483" type="curve" smooth="yes"/>
			<point x="383" y="499"/>
			<point x="357" y="511"/>
			<point x="328" y="519" type="curve" smooth="yes"/>
			<point x="298" y="527"/>
			<point x="264" y="531"/>
			<point x="227" y="531" type="curve" smooth="yes"/>
			<point x="137" y="531" type="line"/>
		</contour>
		<contour>
			<point x="137" y="483" type="line"/>
			<point x="258" y="483" type="line" smooth="yes"/>
			<point x="277" y="483"/>
			<point x="296" y="480"/>
			<point x="316" y="475" type="curve" smooth="yes"/>
			<point x="334" y="469"/>
			<point x="351" y="460"/>
			<point x="366" y="448" type="curve" smooth="yes"/>
			<point x="380" y="436"/>
			<point x="393" y="421"/>
			<point x="403" y="403" type="curve" smooth="yes"/>
			<point x="413" y="384"/>
			<point x="418" y="362"/>
			<point x="418" y="337" type="curve" smooth="yes"/>
			<point x="416" y="283"/>
			<point x="399" y="246"/>
			<point x="368" y="225" type="curve" smooth="yes"/>
			<point x="336" y="203"/>
			<point x="297" y="193"/>
			<point x="249" y="193" type="curve" smooth="yes"/>
			<point x="137" y="193" type="line"/>
		</contour>
	</outline>
</glyph>
<glyph name="germandbls" format="2">
  <advance width="537"/>
  <unicode hex="00DF"/>
  <outline>
    <contour>
      <point x="272" y="353" type="line" smooth="yes"/>
      <point x="288" y="353"/>
      <point x="305" y="350"/>
      <point x="325" y="345" type="curve" smooth="yes"/>
      <point x="343" y="339"/>
      <point x="360" y="330"/>
      <point x="375" y="318" type="curve" smooth="yes"/>
      <point x="389" y="306"/>
      <point x="402" y="291"/>
      <point x="412" y="273" type="curve" smooth="yes"/>
      <point x="421" y="254"/>
      <point x="426" y="232"/>
      <point x="427" y="207" type="curve" smooth="yes"/>
      <point x="424" y="153"/>
      <point x="407" y="116"/>
      <point x="376" y="95" type="curve" smooth="yes"/>
      <point x="344" y="73"/>
      <point x="308" y="63"/>
      <point x="266" y="63" type="curve" smooth="yes"/>
      <point x="232" y="63" type="line"/>
      <point x="232" y="14" type="line"/>
      <point x="276" y="14" type="line" smooth="yes"/>
      <point x="299" y="14"/>
      <point x="323" y="17"/>
      <point x="349" y="24" type="curve" smooth="yes"/>
      <point x="373" y="30"/>
      <point x="396" y="40"/>
      <point x="416" y="56" type="curve" smooth="yes"/>
      <point x="436" y="70"/>
      <point x="452" y="90"/>
      <point x="465" y="115" type="curve" smooth="yes"/>
      <point x="477" y="139"/>
      <point x="483" y="169"/>
      <point x="483" y="205" type="curve" smooth="yes"/>
      <point x="483" y="237"/>
      <point x="478" y="264"/>
      <point x="468" y="285" type="curve" smooth="yes"/>
      <point x="458" y="305"/>
      <point x="446" y="322"/>
      <point x="432" y="334" type="curve" smooth="yes"/>
      <point x="418" y="346"/>
      <point x="404" y="355"/>
      <point x="390" y="362" type="curve" smooth="yes"/>
      <point x="375" y="368"/>
      <point x="353" y="373"/>
      <point x="323" y="378" type="curve"/>
      <point x="364" y="388"/>
      <point x="397" y="407"/>
      <point x="421" y="435" type="curve" smooth="yes"/>
      <point x="445" y="462"/>
      <point x="457" y="499"/>
      <point x="457" y="545" type="curve" smooth="yes"/>
      <point x="455" y="603"/>
      <point x="436" y="646"/>
      <point x="402" y="673" type="curve" smooth="yes"/>
      <point x="367" y="699"/>
      <point x="324" y="712"/>
      <point x="273" y="712" type="curve" smooth="yes"/>
      <point x="218" y="712"/>
      <point x="174" y="692"/>
      <point x="141" y="653" type="curve" smooth="yes"/>
      <point x="107" y="613"/>
      <point x="91" y="559"/>
      <point x="91" y="490" type="curve" smooth="yes"/>
      <point x="91" y="14" type="line"/>
      <point x="145" y="14" type="line"/>
      <point x="145" y="494" type="line" smooth="yes"/>
      <point x="145" y="543"/>
      <point x="155" y="584"/>
      <point x="176" y="616" type="curve" smooth="yes"/>
      <point x="196" y="647"/>
      <point x="227" y="663"/>
      <point x="271" y="663" type="curve" smooth="yes"/>
      <point x="310" y="663"/>
      <point x="342" y="652"/>
      <point x="367" y="632" type="curve" smooth="yes"/>
      <point x="391" y="611"/>
      <point x="403" y="580"/>
      <point x="403" y="540" type="curve" smooth="yes"/>
      <point x="403" y="513"/>
      <point x="398" y="490"/>
      <point x="390" y="472" type="curve" smooth="yes"/>
      <point x="380" y="452"/>
      <point x="368" y="438"/>
      <point x="352" y="428" type="curve" smooth="yes"/>
      <point x="337" y="417"/>
      <point x="320" y="410"/>
      <point x="301" y="407" type="curve" smooth="yes"/>
      <point x="281" y="403"/>
      <point x="262" y="401"/>
      <point x="245" y="401" type="curve" smooth="yes"/>
      <point x="232" y="401" type="line"/>
      <point x="232" y="353" type="line"/>
    </contour>
  </outline>
</glyph>
